<?xml version="1.0" encoding="UTF-8" standalone="no"?>
<!-- Created with Inkscape (http://www.inkscape.org/) -->

<svg
   xmlns:dc="http://purl.org/dc/elements/1.1/"
   xmlns:cc="http://creativecommons.org/ns#"
   xmlns:rdf="http://www.w3.org/1999/02/22-rdf-syntax-ns#"
   xmlns:svg="http://www.w3.org/2000/svg"
   xmlns="http://www.w3.org/2000/svg"
   xmlns:xlink="http://www.w3.org/1999/xlink"
   xmlns:sodipodi="http://sodipodi.sourceforge.net/DTD/sodipodi-0.dtd"
   xmlns:inkscape="http://www.inkscape.org/namespaces/inkscape"
   width="68.26667"
   height="68.26667"
   id="svg3413"
   version="1.1"
   inkscape:version="0.92.0 r15299"
   sodipodi:docname="logo_color_centered.svg"
   inkscape:export-filename="logo_color_centered.png"
   inkscape:export-xdpi="360"
   inkscape:export-ydpi="360">
  <title
     id="title3432">Main logo, color</title>
  <defs
     id="defs3415">
    <radialGradient
       inkscape:collect="always"
       xlink:href="#linearGradient4494"
       id="radialGradient4295"
       gradientUnits="userSpaceOnUse"
       gradientTransform="matrix(1.4841341,-0.00981819,0.00661529,0.99997812,-147.87792,2.947719)"
       cx="299.21332"
       cy="456.29883"
       fx="299.21332"
       fy="456.29883"
       r="78.375488" />
    <linearGradient
       id="linearGradient4494">
      <stop
         style="stop-color:#000000;stop-opacity:0;"
         offset="0"
         id="stop4496" />
      <stop
         style="stop-color:#000000;stop-opacity:0.1254902;"
         offset="1"
         id="stop4498" />
    </linearGradient>
    <radialGradient
       r="78.375488"
       fy="456.29883"
       fx="299.21332"
       cy="456.29883"
       cx="299.21332"
       gradientTransform="matrix(0.32317785,-0.00213796,0.00144051,0.21775039,1965.1476,899.67046)"
       gradientUnits="userSpaceOnUse"
       id="radialGradient3453"
       xlink:href="#linearGradient4494"
       inkscape:collect="always" />
  </defs>
  <sodipodi:namedview
     id="base"
     pagecolor="#ffffff"
     bordercolor="#666666"
     borderopacity="1.0"
     inkscape:pageopacity="0.0"
     inkscape:pageshadow="2"
     inkscape:zoom="22"
     inkscape:cx="37.890768"
     inkscape:cy="34.65496"
     inkscape:current-layer="layer1"
     showgrid="true"
     inkscape:document-units="px"
     inkscape:grid-bbox="true"
     inkscape:window-width="1920"
     inkscape:window-height="1058"
     inkscape:window-x="-8"
     inkscape:window-y="-8"
     inkscape:window-maximized="1"
     showguides="false"
     inkscape:snap-global="false">
    <inkscape:grid
       type="xygrid"
       id="grid3013"
       originx="0"
       originy="0"
       spacingx="1.0666667"
       spacingy="1.0666667" />
  </sodipodi:namedview>
  <metadata
     id="metadata3418">
    <rdf:RDF>
      <cc:Work
         rdf:about="">
        <dc:format>image/svg+xml</dc:format>
        <dc:type
           rdf:resource="http://purl.org/dc/dcmitype/StillImage" />
        <dc:title>Main logo, color</dc:title>
      </cc:Work>
    </rdf:RDF>
  </metadata>
  <g
     id="layer1"
     inkscape:label="Layer 1"
     inkscape:groupmode="layer">
    <g
       id="g3529"
       inkscape:export-filename="Greenish256.png"
       inkscape:export-xdpi="720"
       inkscape:export-ydpi="720"
       transform="matrix(1.6803977,0,0,1.6803977,-3445.4506,-1646.1433)">
      <circle
         id="path5524"
         style="fill:#aad400;stroke:none;stroke-width:0.21775515"
         cx="2070.8494"
         cy="999.91339"
         r="17.066668" />
      <path
         style="color:#000000;font-style:normal;font-variant:normal;font-weight:normal;font-stretch:normal;font-size:medium;line-height:normal;font-family:Sans;-inkscape-font-specification:Sans;text-indent:0;text-align:start;text-decoration:none;text-decoration-line:none;letter-spacing:normal;word-spacing:normal;text-transform:none;writing-mode:lr-tb;direction:ltr;text-anchor:start;display:inline;overflow:visible;visibility:visible;fill:#000000;fill-opacity:1;stroke:none;stroke-width:4.26666689;marker:none;enable-background:accumulate"
         d="m 2068.315,984.7608 c -0.5411,0 -0.9767,0.43558 -0.9767,0.97665 v 3.32052 c 0,0.54107 0.4356,0.97661 0.9767,0.97661 h 2.8811 c 0.5013,2.53976 0.284,3.66143 -0.6532,6.35421 -0.7031,-0.8674 -1.6608,-1.45334 -2.7651,-1.88614 -0.9489,-0.37186 -1.7623,-0.91064 -2.0753,-1.57479 0.06,-0.12648 0.098,-0.26553 0.098,-0.41509 v -3.32052 c 0,-0.54103 -0.4356,-0.97661 -0.9766,-0.97661 h -3.3205 c -0.5412,0 -0.9767,0.43558 -0.9767,0.97661 v 3.32052 c 0,0.54106 0.4355,0.97665 0.9767,0.97665 h 3.3205 c 0.2674,0 0.5075,-0.10777 0.6836,-0.28078 0.1883,0.89301 0.9016,1.45207 2.0753,2.0387 1.0599,0.52972 1.8913,1.78156 2.3013,2.99702 -0.2068,0.58222 -0.4239,1.20124 -0.6715,1.92274 -0.4641,1.3862 -1.0492,2.9929 -1.465,4.755 -0.4667,-0.2701 -0.9727,-0.4572 -1.5015,-0.5555 -0.2258,-0.1491 -0.3933,-0.2881 -0.5128,-0.4578 -0.3732,-0.5303 -0.1144,-1.5528 -0.2319,-2.2768 h 1.294 c 0.5411,0 0.9767,-0.4355 0.9767,-0.9766 v -3.32053 c 0,-0.54102 -0.4356,-0.97661 -0.9767,-0.97661 h -3.3144 c -0.541,0 -0.9766,0.43559 -0.9766,0.97661 v 3.32053 c 0,0.5411 0.4356,0.9766 0.9766,0.9766 h 1.7824 c -0.031,0.761 -0.5969,1.9324 -0.1099,2.6247 0,0.01 0.011,0.013 0.012,0.018 -0.033,10e-5 -0.065,0 -0.098,0 -1.9826,0.04 -3.102,-0.2685 -4.2483,-0.9828 0.173,-0.176 0.2807,-0.4222 0.2807,-0.6897 v -3.31443 c 0,-0.54106 -0.4355,-0.97665 -0.9766,-0.97665 h -3.3205 c -0.5411,0 -0.9767,0.43559 -0.9767,0.97665 v 3.31443 c 0,0.5411 0.4356,0.9766 0.9767,0.9766 h 3.3205 c 0.069,0 0.1421,0 0.2076,-0.018 1.0415,1.0034 2.5071,1.7619 4.5657,2.0326 1.2939,0.1702 2.0585,0.4367 2.5514,0.8118 -0.4308,2.6423 -0.3489,5.5749 1.0988,8.6249 0.2461,0.037 0.4886,0.084 0.7385,0.1099 0.5147,0.052 1.0341,0.079 1.5626,0.079 0.5284,0 1.0541,-0.027 1.5687,-0.079 0.1882,-0.019 0.7601,-0.1146 0.9462,-0.1404 -2.5027,-4.3693 -2.8823,-8.2819 -2.112,-11.9942 0.2805,-0.2799 0.6116,-0.4895 0.9949,-0.6654 0.9153,-0.4199 2.351,-0.7155 3.4182,-0.8118 2.097,-0.1618 4.2679,-0.8179 4.7305,-2.47209 0.175,0.1659 0.4164,0.26854 0.6776,0.26854 h 3.3144 c 0.541,0 0.9767,-0.43554 0.9767,-0.9766 v -3.32052 c 0,-0.54107 -0.4357,-0.97665 -0.9767,-0.97665 h -3.3144 c -0.541,0 -0.9767,0.43558 -0.9767,0.97665 v 3.32052 c 0,0.097 0.017,0.18635 0.043,0.27468 -0.2454,1.13887 -1.6881,1.41447 -3.0031,1.51377 0.4197,-0.46154 0.6416,-0.9158 0.8729,-1.41003 0.4563,-0.97534 0.2341,-2.22383 0.1343,-2.8017 -0.2381,-0.76722 -0.3993,-2.0213 -0.2198,-3.16791 h 1.3307 c 0.541,0 0.9766,-0.43558 0.9766,-0.97665 v -3.32052 c 0,-0.54106 -0.4356,-0.97665 -0.9766,-0.97665 h -3.3205 c -0.5412,0 -0.9767,0.43559 -0.9767,0.97665 v 3.32052 c 0,0.54107 0.4355,0.97665 0.9767,0.97665 h 1.6907 c -0.3798,0.97974 -0.3363,2.11675 -0.1282,3.2778 0.087,0.50647 -0.027,1.53702 -0.3724,2.27676 -0.3246,0.69405 -0.6807,1.1519 -2.2217,1.96548 -0.9428,0.068 -2.0865,0.1555 -3.0642,0.5371 1.643,-5.29885 0.7822,-8.77795 0.055,-10.81615 0.414,-0.11331 0.7204,-0.48911 0.7204,-0.93998 v -3.32052 c 0,-0.54107 -0.4357,-0.97665 -0.9767,-0.97665 z"
         id="path5526"
         inkscape:connector-curvature="0" />
      <path
         id="path5528"
         d="m 2074.0709,985.03549 c 0.067,0.22429 0.1035,0.45882 0.1035,0.70196 v 0.9156 c 0.4601,-0.44783 1.0806,-0.73251 1.758,-0.73251 h 0.9155 c -0.8856,-0.3813 -1.8152,-0.67669 -2.7773,-0.88505 z m -8.2891,0.52493 c -0.8359,0.29589 -1.6366,0.66191 -2.3989,1.09263 h 1.4406 c 0.3361,0 0.6558,0.0712 0.9522,0.19528 v -1.11088 c 0,-0.0595 0,-0.11843 0.011,-0.17703 z m 16.0106,3.77833 v 2.44156 c 0,0.24623 -0.047,0.48124 -0.1159,0.70806 h 2.4598 c -0.6454,-1.1497 -1.4336,-2.2082 -2.3439,-3.14962 z m -22.8287,1.0743 c -1.4924,1.86187 -2.5592,4.07656 -3.0458,6.50067 0.2775,-0.10674 0.5745,-0.1648 0.885,-0.1648 h 2.3622 c 0.2066,-0.76946 0.4843,-1.50954 0.8302,-2.20965 -0.6209,-0.46729 -1.0316,-1.20729 -1.0316,-2.0265 z m 27.1076,9.81505 c -0.4519,0.4069 -1.0432,0.6593 -1.6847,0.6593 h -1.4832 c -0.4248,5.3472 -4.2921,9.6968 -9.4001,10.8345 0.3209,0.8097 0.7207,1.6401 1.2147,2.5026 0.066,0.116 0.1186,0.2431 0.1526,0.3723 6.3492,-1.7444 11.0588,-7.5093 11.2007,-14.3687 z m -29.5308,4.9015 c 1.6617,4.5387 5.4288,8.0716 10.108,9.4184 -0.4656,-1.2365 -0.7322,-2.4537 -0.8606,-3.638 -2.517,-1.1563 -4.5676,-3.1438 -5.7926,-5.6217 -0.064,-0.048 -0.1276,-0.097 -0.1892,-0.1465 h -3.0031 c -0.088,0 -0.1763,0 -0.2625,-0.012 z"
         style="color:#000000;font-style:normal;font-variant:normal;font-weight:normal;font-stretch:normal;font-size:medium;line-height:normal;font-family:Sans;-inkscape-font-specification:Sans;text-indent:0;text-align:start;text-decoration:none;text-decoration-line:none;letter-spacing:normal;word-spacing:normal;text-transform:none;writing-mode:lr-tb;direction:ltr;text-anchor:start;display:inline;overflow:visible;visibility:visible;fill:#000000;fill-opacity:1;stroke:none;stroke-width:19.11929131;marker:none;enable-background:accumulate"
         inkscape:connector-curvature="0" />
      <circle
         style="fill:url(#radialGradient3453);fill-opacity:1;stroke:none;stroke-width:0.21775515"
         id="path5530"
         cx="2070.8494"
         cy="999.91339"
         r="17.066668" />
    </g>
  </g>
</svg>
