<?xml version="1.0" encoding="UTF-8" standalone="no"?>
<svg
   xmlns:dc="http://purl.org/dc/elements/1.1/"
   xmlns:cc="http://creativecommons.org/ns#"
   xmlns:rdf="http://www.w3.org/1999/02/22-rdf-syntax-ns#"
   xmlns:svg="http://www.w3.org/2000/svg"
   xmlns="http://www.w3.org/2000/svg"
   xmlns:xlink="http://www.w3.org/1999/xlink"
   xmlns:sodipodi="http://sodipodi.sourceforge.net/DTD/sodipodi-0.dtd"
   xmlns:inkscape="http://www.inkscape.org/namespaces/inkscape"
   viewBox="0 0 283.46457 389.76376"
   version="1.1"
   id="svg4988"
   sodipodi:docname="logo-windirstat-incubator.svg"
   inkscape:version="0.92.2 (5c3e80d, 2017-08-06)">
  <metadata
     id="metadata4992">
    <rdf:RDF>
      <cc:Work
         rdf:about="">
        <dc:format>image/svg+xml</dc:format>
        <dc:type
           rdf:resource="http://purl.org/dc/dcmitype/StillImage" />
        <dc:title></dc:title>
      </cc:Work>
    </rdf:RDF>
  </metadata>
  <sodipodi:namedview
     pagecolor="#ffffff"
     bordercolor="#666666"
     borderopacity="1"
     objecttolerance="10"
     gridtolerance="10"
     guidetolerance="10"
     inkscape:pageopacity="0"
     inkscape:pageshadow="2"
     inkscape:window-width="1920"
     inkscape:window-height="1058"
     id="namedview4990"
     showgrid="false"
     inkscape:zoom="2.4219799"
     inkscape:cx="233.19901"
     inkscape:cy="263.36245"
     inkscape:window-x="-8"
     inkscape:window-y="-8"
     inkscape:window-maximized="1"
     inkscape:current-layer="layer3" />
  <defs
     id="defs4960">
    <filter
       id="d"
       x="-.06319"
       y="-.3986"
       width="1.1264"
       height="1.7972">
      <feGaussianBlur
         stdDeviation="8.72405"
         id="feGaussianBlur4942" />
    </filter>
    <linearGradient
       id="c"
       x2="0"
       y1="1297.4"
       y2="746.91"
       gradientUnits="userSpaceOnUse"
       gradientTransform="translate(-145.1599,-503.09517)">
      <stop
         stop-color="#2e3436"
         offset="0"
         id="stop4945" />
      <stop
         stop-color="#2e3436"
         stop-opacity="0"
         offset="1"
         id="stop4947" />
    </linearGradient>
    <radialGradient
       id="b"
       cx="284.29"
       cy="771.46"
       r="201.43"
       gradientTransform="matrix(0.79684,0,0,1.3876,-123.11618,-843.4043)"
       gradientUnits="userSpaceOnUse">
      <stop
         stop-color="#fff"
         offset="0"
         id="stop4950" />
      <stop
         stop-color="#e9e9e6"
         offset="1"
         id="stop4952" />
    </radialGradient>
    <radialGradient
       id="a"
       cx="291.09"
       cy="722.74"
       r="201.43"
       gradientTransform="matrix(0.66214,0,0,1.4194,-83.28,-866.26)"
       gradientUnits="userSpaceOnUse">
      <stop
         stop-color="#ededed"
         offset="0"
         id="stop4955" />
      <stop
         stop-color="#dfdfdb"
         offset="1"
         id="stop4957" />
    </radialGradient>
    <radialGradient
       r="78.375488"
       fy="456.29883"
       fx="299.21332"
       cy="456.29883"
       cx="299.21332"
       gradientTransform="matrix(0.32317785,-0.00213796,0.00144051,0.21775039,1965.1476,899.67046)"
       gradientUnits="userSpaceOnUse"
       id="radialGradient3453"
       xlink:href="#linearGradient4494"
       inkscape:collect="always" />
    <linearGradient
       id="linearGradient4494">
      <stop
         style="stop-color:#000000;stop-opacity:0;"
         offset="0"
         id="stop4496" />
      <stop
         style="stop-color:#000000;stop-opacity:0.1254902;"
         offset="1"
         id="stop4498" />
    </linearGradient>
  </defs>
  <g
     inkscape:groupmode="layer"
     id="layer1"
     inkscape:label="Background" />
  <g
     inkscape:groupmode="layer"
     id="layer2"
     inkscape:label="Logo" />
  <g
     inkscape:groupmode="layer"
     id="layer3"
     inkscape:label="Egg shell">
    <g
       id="g5097">
      <path
         d="m 39.73,192.08 -1.4286,-2.3214 0.35716,-5.3571 -2.6786,-3.3036 -0.0893,-4.1071 -1.7857,-3.3929 -0.067,-4.1295"
         id="path4966"
         inkscape:connector-curvature="0"
         style="fill:none;stroke:#d3d7cf;stroke-width:0.639;stroke-linecap:round;stroke-linejoin:round" />
      <path
         d="m 197.72,155.12 0.26786,4.8214 -1.875,3.8839 1.4259,3.7373 -1.2971,5.653 0.58006,6.1844 -2.4054,3.8896"
         id="path4968"
         inkscape:connector-curvature="0"
         style="fill:none;stroke:#d3d7cf;stroke-width:0.639;stroke-linecap:round;stroke-linejoin:round" />
      <path
         d="m 102.82,145.84 -2.2728,4.9796 4.7982,3.7881 -2.5254,5.5558 2.2728,4.0406 2.0203,6.8185"
         id="path4970"
         inkscape:connector-curvature="0"
         style="fill:none;stroke:#d3d7cf;stroke-width:0.639;stroke-linecap:round;stroke-linejoin:round" />
      <path
         d="m 98.52,194.75 -1.7798,4.9725 2.5,3.75 -0.89285,7.3214 2.6786,4.2857 -0.89286,8.5714 4.4643,3.3929 1.25,5.8928 3.9286,6.25 0.53572,7.6786"
         id="path4974"
         inkscape:connector-curvature="0"
         style="fill:none;stroke:#d3d7cf;stroke-width:0.639;stroke-linecap:round;stroke-linejoin:round" />
      <path
         d="m 34.33,197.31 2.6922,5.2841 -1.6071,3.75 1.3673,2.9401 1.2933,2.7182 -1.9822,6.2717 2.4387,2.6569 0.89284,4.8214"
         id="path4976"
         inkscape:connector-curvature="0"
         style="fill:none;stroke:#d3d7cf;stroke-width:0.639;stroke-linecap:round;stroke-linejoin:round" />
      <path
         d="m 181.9,191.91 -0.87118,4.9477 -1.0461,2.7959 1.0461,2.9184 -1.7857,3.2143 1.6071,5.7143 -2.6786,4.6429 2.1428,4.2857"
         id="path4978"
         inkscape:connector-curvature="0"
         style="fill:none;stroke:#d3d7cf;stroke-width:0.639;stroke-linecap:round;stroke-linejoin:round" />
      <path
         d="m 258.7,204.22 -0.15505,-4.1359 1.4159,-3.759 0.004,-4.5382"
         id="path4980"
         inkscape:connector-curvature="0"
         style="fill:none;stroke:#d3d7cf;stroke-width:0.639;stroke-linecap:round;stroke-linejoin:round" />
      <path
         d="m 107.59,186.34 4.795,0.57051 3.5009,2.5188"
         id="path4982"
         inkscape:connector-curvature="0"
         style="fill:none;stroke:#d3d7cf;stroke-width:0.639;stroke-linecap:round;stroke-linejoin:round" />
      <path
         d="m 266.17,177.88 -0.1875,0.5 -4.5938,-9.3125 -5.375,0.65625 -3.0312,-6.4375 0.8125,-7.3125 1,-8.1562 -6.2188,-0.875 -3.8438,5.0625 -6.4688,5 -6.75,-1 -6.8125,-7.6562 -8.4062,6.5312 -5.0938,-5.8438 -7.9375,4.6875 -5.7188,1.4062 -4.1875,-9.0938 -6.375,-4.7812 -7.5312,6.1875 -4.75,-6.6875 -6.2812,3.8125 -4.0938,4.9375 -4.2812,1 -7.0312,-2.6875 -9.0938,3.7188 -3.4375,-4.0312 -5.625,-1.6562 -2.7812,-4.875 -2.75,-5.4062 -2.4375,4.2188 -1.9688,2.625 -7.2188,2.1562 -5.1875,-3.3438 -6.3125,-0.65625 -3.4375,5.4062 -2.9375,-6.6875 -5.25,4.0938 -6.5312,2.2188 -2.5,-4.7188 -5.2188,9.9375 -4.875,-2.4375 -4.875,-0.78125 -5.6875,8.25 -2.3125,-8.8125 -7.5625,9.7188 -6.125,-1.7812 -7.2812,6.1562 -6.2812,-0.75 -1.2812,9.125 -5.3125,0.625 -2.8125,-3.6562 -8.8125,12.5 c -2.5935,15.56 -4.125,31.18 -4.125,46.375 0,98.29 57.679,141.53 128.75,141.53 71.071,0 128.75,-43.242 128.75,-141.53 0,-15.552 -1.6,-31.548 -4.3125,-47.469 z"
         id="path4964"
         style="fill:url(#a);stroke:#d3d7cf;stroke-width:0.63919002;stroke-linecap:round;stroke-linejoin:round"
         inkscape:connector-curvature="0" />
      <g
         transform="matrix(5.5811616,0,0,5.5811616,-11422.05,-5357.3334)"
         inkscape:export-ydpi="720"
         inkscape:export-xdpi="720"
         inkscape:export-filename="C:\tuqueque\Imagenes\Svg\Logos\WinDirStat\Icons\Greenish\Greenish256.png"
         id="g3529"
         style="">
        <circle
           r="17.066668"
           cy="999.91339"
           cx="2070.8494"
           style="fill:#aad400;stroke:none;stroke-width:0.21775515"
           id="path5524" />
        <path
           inkscape:connector-curvature="0"
           id="path5526"
           d="m 2068.315,984.7608 c -0.5411,0 -0.9767,0.43558 -0.9767,0.97665 v 3.32052 c 0,0.54107 0.4356,0.97661 0.9767,0.97661 h 2.8811 c 0.5013,2.53976 0.284,3.66143 -0.6532,6.35421 -0.7031,-0.8674 -1.6608,-1.45334 -2.7651,-1.88614 -0.9489,-0.37186 -1.7623,-0.91064 -2.0753,-1.57479 0.06,-0.12648 0.098,-0.26553 0.098,-0.41509 v -3.32052 c 0,-0.54103 -0.4356,-0.97661 -0.9766,-0.97661 h -3.3205 c -0.5412,0 -0.9767,0.43558 -0.9767,0.97661 v 3.32052 c 0,0.54106 0.4355,0.97665 0.9767,0.97665 h 3.3205 c 0.2674,0 0.5075,-0.10777 0.6836,-0.28078 0.1883,0.89301 0.9016,1.45207 2.0753,2.0387 1.0599,0.52972 1.8913,1.78156 2.3013,2.99702 -0.2068,0.58222 -0.4239,1.20124 -0.6715,1.92274 -0.4641,1.3862 -1.0492,2.9929 -1.465,4.755 -0.4667,-0.2701 -0.9727,-0.4572 -1.5015,-0.5555 -0.2258,-0.1491 -0.3933,-0.2881 -0.5128,-0.4578 -0.3732,-0.5303 -0.1144,-1.5528 -0.2319,-2.2768 h 1.294 c 0.5411,0 0.9767,-0.4355 0.9767,-0.9766 v -3.32053 c 0,-0.54102 -0.4356,-0.97661 -0.9767,-0.97661 h -3.3144 c -0.541,0 -0.9766,0.43559 -0.9766,0.97661 v 3.32053 c 0,0.5411 0.4356,0.9766 0.9766,0.9766 h 1.7824 c -0.031,0.761 -0.5969,1.9324 -0.1099,2.6247 0,0.01 0.011,0.013 0.012,0.018 -0.033,10e-5 -0.065,0 -0.098,0 -1.9826,0.04 -3.102,-0.2685 -4.2483,-0.9828 0.173,-0.176 0.2807,-0.4222 0.2807,-0.6897 v -3.31443 c 0,-0.54106 -0.4355,-0.97665 -0.9766,-0.97665 h -3.3205 c -0.5411,0 -0.9767,0.43559 -0.9767,0.97665 v 3.31443 c 0,0.5411 0.4356,0.9766 0.9767,0.9766 h 3.3205 c 0.069,0 0.1421,0 0.2076,-0.018 1.0415,1.0034 2.5071,1.7619 4.5657,2.0326 1.2939,0.1702 2.0585,0.4367 2.5514,0.8118 -0.4308,2.6423 -0.3489,5.5749 1.0988,8.6249 0.2461,0.037 0.4886,0.084 0.7385,0.1099 0.5147,0.052 1.0341,0.079 1.5626,0.079 0.5284,0 1.0541,-0.027 1.5687,-0.079 0.1882,-0.019 0.7601,-0.1146 0.9462,-0.1404 -2.5027,-4.3693 -2.8823,-8.2819 -2.112,-11.9942 0.2805,-0.2799 0.6116,-0.4895 0.9949,-0.6654 0.9153,-0.4199 2.351,-0.7155 3.4182,-0.8118 2.097,-0.1618 4.2679,-0.8179 4.7305,-2.47209 0.175,0.1659 0.4164,0.26854 0.6776,0.26854 h 3.3144 c 0.541,0 0.9767,-0.43554 0.9767,-0.9766 v -3.32052 c 0,-0.54107 -0.4357,-0.97665 -0.9767,-0.97665 h -3.3144 c -0.541,0 -0.9767,0.43558 -0.9767,0.97665 v 3.32052 c 0,0.097 0.017,0.18635 0.043,0.27468 -0.2454,1.13887 -1.6881,1.41447 -3.0031,1.51377 0.4197,-0.46154 0.6416,-0.9158 0.8729,-1.41003 0.4563,-0.97534 0.2341,-2.22383 0.1343,-2.8017 -0.2381,-0.76722 -0.3993,-2.0213 -0.2198,-3.16791 h 1.3307 c 0.541,0 0.9766,-0.43558 0.9766,-0.97665 v -3.32052 c 0,-0.54106 -0.4356,-0.97665 -0.9766,-0.97665 h -3.3205 c -0.5412,0 -0.9767,0.43559 -0.9767,0.97665 v 3.32052 c 0,0.54107 0.4355,0.97665 0.9767,0.97665 h 1.6907 c -0.3798,0.97974 -0.3363,2.11675 -0.1282,3.2778 0.087,0.50647 -0.027,1.53702 -0.3724,2.27676 -0.3246,0.69405 -0.6807,1.1519 -2.2217,1.96548 -0.9428,0.068 -2.0865,0.1555 -3.0642,0.5371 1.643,-5.29885 0.7822,-8.77795 0.055,-10.81615 0.414,-0.11331 0.7204,-0.48911 0.7204,-0.93998 v -3.32052 c 0,-0.54107 -0.4357,-0.97665 -0.9767,-0.97665 z"
           style="color:#000000;font-style:normal;font-variant:normal;font-weight:normal;font-stretch:normal;font-size:medium;line-height:normal;font-family:Sans;-inkscape-font-specification:Sans;text-indent:0;text-align:start;text-decoration:none;text-decoration-line:none;letter-spacing:normal;word-spacing:normal;text-transform:none;writing-mode:lr-tb;direction:ltr;text-anchor:start;display:inline;overflow:visible;visibility:visible;fill:#000000;fill-opacity:1;stroke:none;stroke-width:4.26666689;marker:none;enable-background:accumulate" />
        <path
           inkscape:connector-curvature="0"
           style="color:#000000;font-style:normal;font-variant:normal;font-weight:normal;font-stretch:normal;font-size:medium;line-height:normal;font-family:Sans;-inkscape-font-specification:Sans;text-indent:0;text-align:start;text-decoration:none;text-decoration-line:none;letter-spacing:normal;word-spacing:normal;text-transform:none;writing-mode:lr-tb;direction:ltr;text-anchor:start;display:inline;overflow:visible;visibility:visible;fill:#000000;fill-opacity:1;stroke:none;stroke-width:19.11929131;marker:none;enable-background:accumulate"
           d="m 2074.0709,985.03549 c 0.067,0.22429 0.1035,0.45882 0.1035,0.70196 v 0.9156 c 0.4601,-0.44783 1.0806,-0.73251 1.758,-0.73251 h 0.9155 c -0.8856,-0.3813 -1.8152,-0.67669 -2.7773,-0.88505 z m -8.2891,0.52493 c -0.8359,0.29589 -1.6366,0.66191 -2.3989,1.09263 h 1.4406 c 0.3361,0 0.6558,0.0712 0.9522,0.19528 v -1.11088 c 0,-0.0595 0,-0.11843 0.011,-0.17703 z m 16.0106,3.77833 v 2.44156 c 0,0.24623 -0.047,0.48124 -0.1159,0.70806 h 2.4598 c -0.6454,-1.1497 -1.4336,-2.2082 -2.3439,-3.14962 z m -22.8287,1.0743 c -1.4924,1.86187 -2.5592,4.07656 -3.0458,6.50067 0.2775,-0.10674 0.5745,-0.1648 0.885,-0.1648 h 2.3622 c 0.2066,-0.76946 0.4843,-1.50954 0.8302,-2.20965 -0.6209,-0.46729 -1.0316,-1.20729 -1.0316,-2.0265 z m 27.1076,9.81505 c -0.4519,0.4069 -1.0432,0.6593 -1.6847,0.6593 h -1.4832 c -0.4248,5.3472 -4.2921,9.6968 -9.4001,10.8345 0.3209,0.8097 0.7207,1.6401 1.2147,2.5026 0.066,0.116 0.1186,0.2431 0.1526,0.3723 6.3492,-1.7444 11.0588,-7.5093 11.2007,-14.3687 z m -29.5308,4.9015 c 1.6617,4.5387 5.4288,8.0716 10.108,9.4184 -0.4656,-1.2365 -0.7322,-2.4537 -0.8606,-3.638 -2.517,-1.1563 -4.5676,-3.1438 -5.7926,-5.6217 -0.064,-0.048 -0.1276,-0.097 -0.1892,-0.1465 h -3.0031 c -0.088,0 -0.1763,0 -0.2625,-0.012 z"
           id="path5528" />
        <circle
           r="17.066668"
           cy="999.91339"
           cx="2070.8494"
           id="path5530"
           style="fill:url(#radialGradient3453);fill-opacity:1;stroke:none;stroke-width:0.21775515" />
      </g>
      <path
         d="m 266.25682,178.1557 -6.2857,13.536 -3.8348,-7.7009 -4.942,-2.2723 -5.2188,1.0938 -4.6875,-2.1562 -3.8438,2.8438 -2.7188,3.2188 -6.9688,2.5312 -5.1875,-3.4375 -3.1562,-8.5312 -4.875,8.75 -4.9375,-0.3125 -4.6875,1.9375 -6.5312,-2.2812 -2.9688,-4.4375 -5.9018,-5.1875 -4.9911,8.0491 -2.6652,8.4375 -1.7232,-5.2366 -0.77232,-4.8125 -3.5089,-5.4062 -6.9062,2.5 -7.4688,-4.25 -5.2188,3.875 -6.625,1.2812 -2.625,-5.9062 -7.25,2.25 -5.75,-1.0938 -3.7812,-3.6875 -8.7188,4.5625 -8.9554,4.0312 -5.1562,5.8125 -6.5,-2.2812 -2.375,10.875 -1.1875,-15.188 -9.0625,-0.3125 -6.0268,3.9375 -5.0312,-8.6562 -5.5625,1.9375 -5.25,-1.5938 -9.8438,-4.1875 -5.125,4.5 -0.92411,0.75 -6.2812,3 -3.9688,3.9375 -1.0312,7 -4.7812,7.2188 -2.5938,-11.344 1.2812,-8.3125 -2.3125,-6.4062 -0.53125,-8.7188 -5.75,4.9375 -4.4062,2.2188 -3.375,11.688 c -2.3536,14.805 -3.75,29.641 -3.75,44.094 0,98.29 57.679,141.53 128.75,141.53 71.071,0 128.75,-43.242 128.75,-141.53 0,-15.43 -1.5785,-31.296 -4.25,-47.094 z"
         id="path4972"
         style="fill:url(#b);stroke:#d3d7cf;stroke-width:0.639;stroke-linecap:round;stroke-linejoin:round"
         inkscape:connector-curvature="0" />
    </g>
    <path
       inkscape:connector-curvature="0"
       style="opacity:0.50568004;fill:url(#c)"
       id="path4984"
       d="m 270.54009,224.95483 c 0,98.29 -57.68099,141.54 -128.74999,141.54 -71.069006,0 -128.750006,-43.246 -128.750006,-141.54 0,-98.294 57.681,-214.590006 128.750006,-214.590006 71.069,0 128.74999,116.300006 128.74999,214.590006 z"
       inkscape:export-xdpi="720"
       inkscape:export-ydpi="720" />
  </g>
</svg>
