<?xml version="1.0" encoding="UTF-8" standalone="no"?>
<!-- Created with Inkscape (http://www.inkscape.org/) -->

<svg
   xmlns:dc="http://purl.org/dc/elements/1.1/"
   xmlns:cc="http://creativecommons.org/ns#"
   xmlns:rdf="http://www.w3.org/1999/02/22-rdf-syntax-ns#"
   xmlns:svg="http://www.w3.org/2000/svg"
   xmlns="http://www.w3.org/2000/svg"
   xmlns:sodipodi="http://sodipodi.sourceforge.net/DTD/sodipodi-0.dtd"
   xmlns:inkscape="http://www.inkscape.org/namespaces/inkscape"
   width="81.673553mm"
   height="28.039991mm"
   viewBox="0 0 81.673553 28.039991"
   version="1.1"
   id="svg285"
   inkscape:version="0.92.0 r15299"
   sodipodi:docname="name_plus_logo_gray_for_light_bg.svg">
  <defs
     id="defs279" />
  <sodipodi:namedview
     id="base"
     pagecolor="#ffffff"
     bordercolor="#666666"
     borderopacity="1.0"
     inkscape:pageopacity="0.0"
     inkscape:pageshadow="2"
     inkscape:zoom="0.35"
     inkscape:cx="282.91517"
     inkscape:cy="38.70327"
     inkscape:document-units="mm"
     inkscape:current-layer="layer1"
     showgrid="false"
     inkscape:pagecheckerboard="true"
     inkscape:window-width="1920"
     inkscape:window-height="1058"
     inkscape:window-x="-8"
     inkscape:window-y="-8"
     inkscape:window-maximized="1" />
  <metadata
     id="metadata282">
    <rdf:RDF>
      <cc:Work
         rdf:about="">
        <dc:format>image/svg+xml</dc:format>
        <dc:type
           rdf:resource="http://purl.org/dc/dcmitype/StillImage" />
        <dc:title></dc:title>
      </cc:Work>
    </rdf:RDF>
  </metadata>
  <g
     inkscape:label="Layer 1"
     inkscape:groupmode="layer"
     id="layer1"
     transform="translate(-30.978695,-131.03358)">
    <g
       id="g4262"
       transform="matrix(0.1685771,0,0,0.1685771,298.29973,165.56615)">
      <path
         style="color:#000000;font-style:normal;font-variant:normal;font-weight:normal;font-stretch:normal;font-size:medium;line-height:normal;font-family:Sans;-inkscape-font-specification:Sans;text-indent:0;text-align:start;text-decoration:none;text-decoration-line:none;letter-spacing:normal;word-spacing:normal;text-transform:none;writing-mode:lr-tb;direction:ltr;text-anchor:start;display:inline;overflow:visible;visibility:visible;fill:#808080;fill-opacity:1;stroke:none;stroke-width:19.11929131;marker:none;enable-background:accumulate"
         d="m -1486.1153,-203.34727 c 0.3651,1.22488 0.5666,2.50572 0.5666,3.83333 v 5 c 2.5124,-2.44535 5.9011,-4 9.6,-4 h 5 c -4.8363,-2.08235 -9.9126,-3.6954 -15.1666,-4.83333 z m -45.2667,2.86666 c -4.565,1.61591 -8.9377,3.61455 -13.1,5.96667 h 7.8666 c 1.8357,0 3.5814,0.3892 5.2,1.06667 v -6.06667 c 0,-0.32495 0.011,-0.6466 0.033,-0.96667 z m 87.4333,20.63334 v 13.33333 c 0,1.34446 -0.2592,2.62792 -0.6333,3.86667 h 13.4333 c -3.5245,-6.27844 -7.8289,-12.0589 -12.8,-17.2 z m -124.6667,5.86666 c -8.1505,10.16764 -13.9759,22.26192 -16.6332,35.5 1.5155,-0.58307 3.1375,-0.9 4.8332,-0.9 h 12.9001 c 1.1282,-4.20204 2.6444,-8.24361 4.5333,-12.06666 -3.3909,-2.55209 -5.6334,-6.59305 -5.6334,-11.06667 z m -13.2332,80.366669 c 9.0751,24.785674 29.6468,44.0784 55.2,51.433333 -2.5427,-6.752619 -3.999,-13.399531 -4.7001,-19.866667 -13.7451,-6.314346 -24.944,-17.168138 -31.6333,-30.7 -0.3473,-0.263829 -0.6964,-0.529045 -1.0334,-0.8 h -16.4 c -0.482,0 -0.9624,-0.01621 -1.4332,-0.06667 z"
         id="path4336"
         inkscape:connector-curvature="0"
         sodipodi:nodetypes="cscsccccscsccscccccsccsccccccsc" />
      <path
         style="color:#000000;font-style:normal;font-variant:normal;font-weight:normal;font-stretch:normal;font-size:medium;line-height:normal;font-family:Sans;-inkscape-font-specification:Sans;text-indent:0;text-align:start;text-decoration:none;text-decoration-line:none;letter-spacing:normal;word-spacing:normal;text-transform:none;writing-mode:lr-tb;direction:ltr;text-anchor:start;display:inline;overflow:visible;visibility:visible;fill:#ffffff;fill-opacity:1;stroke:none;stroke-width:4.26666689;marker:none;enable-background:accumulate"
         d="m -1517.5487,-204.84727 c -2.9547,0 -5.3333,2.37866 -5.3333,5.33333 v 18.13333 c 0,2.95467 2.3786,5.33334 5.3333,5.33334 h 15.7333 c 2.7382,13.86933 1.5518,19.99484 -3.5666,34.7 -3.8395,-4.73691 -9.0694,-7.93663 -15.1,-10.3 -5.182,-2.03085 -9.624,-4.97315 -11.3334,-8.6 0.3255,-0.69058 0.5334,-1.45004 0.5334,-2.26667 v -18.13333 c 0,-2.95467 -2.3787,-5.33334 -5.3334,-5.33334 h -18.1333 c -2.9547,0 -5.3333,2.37867 -5.3333,5.33334 v 18.13333 c 0,2.95467 2.3786,5.33333 5.3333,5.33333 h 18.1333 c 1.4607,0 2.7721,-0.58846 3.7334,-1.53333 1.0281,4.87683 4.9233,7.92967 11.3333,11.13333 5.788,2.89272 10.3282,9.72886 12.5667,16.36667 -1.1288,3.17941 -2.315,6.55995 -3.6666,10.5 -2.5342,7.56981 -5.7297,16.34396 -8,25.966665 -2.5491,-1.474933 -5.312,-2.49681 -8.2,-3.033333 -1.2329,-0.814507 -2.148,-1.573472 -2.8,-2.500002 -2.0383,-2.89606 -0.6253,-8.48009 -1.2667,-12.43333 h 7.0667 c 2.9546,0 5.3333,-2.37867 5.3333,-5.33333 v -18.13334 c 0,-2.95466 -2.3787,-5.33333 -5.3333,-5.33333 h -18.1001 c -2.9547,0 -5.3333,2.37867 -5.3333,5.33333 v 18.13334 c 0,2.95466 2.3786,5.33333 5.3333,5.33333 h 9.7333 c -0.1702,4.15564 -3.2598,10.55246 -0.6,14.333332 0.021,0.03093 0.045,0.06891 0.066,0.09995 -0.1797,8.42e-4 -0.3532,-0.0032 -0.5334,0 -10.8271,0.216277 -16.9393,-1.466006 -23.2,-5.366672 0.945,-0.96133 1.5334,-2.30598 1.5334,-3.76666 v -18.1 c 0,-2.95467 -2.3787,-5.33334 -5.3334,-5.33334 h -18.1333 c -2.9547,0 -5.3333,2.37867 -5.3333,5.33334 v 18.1 c 0,2.95466 2.3786,5.33333 5.3333,5.33333 h 18.1333 c 0.3807,0 0.7757,-0.025 1.1334,-0.1 5.688,5.479674 13.6911,9.621424 24.9333,11.100005 7.0664,0.929344 11.2414,2.384459 13.9333,4.433333 -2.3528,14.42928 -1.9056,30.44384 6,47.1 1.3448,0.203478 2.6685,0.461387 4.0334,0.6 2.8104,0.285408 5.6476,0.433334 8.5334,0.433334 2.8856,0 5.7562,-0.147926 8.5666,-0.433334 1.0273,-0.10432 4.1507,-0.625482 5.1667,-0.766666 -13.6668,-23.860427 -15.7395,-45.226859 -11.5333,-65.500002 1.5317,-1.52794 3.3401,-2.6731 5.4332,-3.63333 4.9987,-2.29309 12.8385,-3.90722 18.6667,-4.43334 11.4521,-0.88328 23.3072,-4.46626 25.8334,-13.5 0.9551,0.90602 2.2735,1.46667 3.6999,1.46667 h 18.1001 c 2.9547,0 5.3333,-2.37867 5.3333,-5.33333 v -18.13334 c 0,-2.95466 -2.3786,-5.33333 -5.3333,-5.33333 h -18.1001 c -2.9546,0 -5.3333,2.37867 -5.3333,5.33333 v 18.13334 c 0,0.52971 0.091,1.01769 0.2334,1.5 -1.3405,6.21931 -9.2186,7.72461 -16.4,8.26666 2.2924,-2.52053 3.5039,-5.00117 4.7666,-7.7 2.4922,-5.32641 1.2786,-12.14442 0.7333,-15.3 -1.3001,-4.18985 -2.1803,-11.03831 -1.2,-17.3 h 7.2667 c 2.9547,0 5.3333,-2.37866 5.3333,-5.33333 v -18.13333 c 0,-2.95467 -2.3786,-5.33334 -5.3333,-5.33334 h -18.1333 c -2.9547,0 -5.3334,2.37867 -5.3334,5.33334 v 18.13333 c 0,2.95467 2.3787,5.33333 5.3334,5.33333 h 9.2334 c -2.0744,5.35033 -1.8362,11.55956 -0.7001,17.9 0.4779,2.76583 -0.1432,8.39373 -2.0333,12.43334 -1.7733,3.79012 -3.7177,6.29053 -12.1333,10.73333 -5.1487,0.36973 -11.3942,0.84951 -16.7333,2.93333 8.9721,-28.93704 4.2713,-47.9363 0.2999,-59.06666 2.2606,-0.61901 3.9333,-2.67112 3.9333,-5.13334 v -18.13333 c 0,-2.95467 -2.3786,-5.33333 -5.3333,-5.33333 h -18.1333 z"
         id="path4338"
         inkscape:connector-curvature="0" />
      <text
         id="text4340"
         y="-50.943245"
         x="-1493.6021"
         style="font-style:normal;font-variant:normal;font-weight:normal;font-stretch:normal;font-size:72.24536896px;line-height:125%;font-family:'Arial Rounded MT Bold';-inkscape-font-specification:'Arial Rounded MT Bold,';text-align:start;letter-spacing:0;word-spacing:0;writing-mode:lr-tb;text-anchor:start;fill:#ffffff;stroke:none;stroke-width:1.06666672"
         xml:space="preserve"
         transform="scale(0.99591644,1.0041003)"><tspan
           y="-50.943245"
           x="-1493.6021"
           id="tspan4342"
           sodipodi:role="line"
           style="stroke-width:1.06666672"><tspan
   style="fill:#ffffff;stroke:none;stroke-width:1.06666672"
   id="tspan4344">W</tspan>in<tspan
   style="fill:#ffffff;stroke:none;stroke-width:1.06666672"
   id="tspan4346">D</tspan>ir<tspan
   style="fill:#ffffff;stroke:none;stroke-width:1.06666672"
   id="tspan4348">S</tspan>tat</tspan></text>
    </g>
  </g>
</svg>
