<svg xmlns="http://www.w3.org/2000/svg" width="28" height="28" viewBox="0 0 27.8 28"><style>.a{text-decoration-line:none;text-indent:0;text-transform:none;}</style><g transform="translate(-79.816 -70.557)matrix(0.26458 0 0 0.26458 58.622 -65.967)"><path d="m123.6 516c-1.9 0-3.4 1.5-3.4 3.4v11.6c0 1.9 1.5 3.4 3.4 3.4h10c1.7 8.8 1 12.7-2.3 22.1-2.4-3-5.8-5.1-9.6-6.6-3.3-1.3-6.1-3.2-7.2-5.5 0.2-0.4 0.3-0.9 0.3-1.4v-11.6c0-1.9-1.5-3.4-3.4-3.4h-11.6c-1.9 0-3.4 1.5-3.4 3.4v11.6c0 1.9 1.5 3.4 3.4 3.4h11.6c0.9 0 1.8-0.4 2.4-1 0.7 3.1 3.1 5.1 7.2 7.1 3.7 1.8 6.6 6.2 8 10.4-0.7 2-1.5 4.2-2.3 6.7-1.6 4.8-3.7 10.4-5.1 16.5-1.6-0.9-3.4-1.6-5.2-1.9-0.8-0.5-1.4-1-1.8-1.6-1.3-1.8-0.4-5.4-0.8-7.9h4.5c1.9 0 3.4-1.5 3.4-3.4v-11.6c0-1.9-1.5-3.4-3.4-3.4h-11.5c-1.9 0-3.4 1.5-3.4 3.4v11.6c0 1.9 1.5 3.4 3.4 3.4h6.2c-0.1 2.6-2.1 6.7-0.4 9.1 0 0 0 0 0 0.1-0.1 0-0.2 0-0.3 0-6.9 0.1-10.8-0.9-14.8-3.4 0.6-0.6 1-1.5 1-2.4v-11.5c0-1.9-1.5-3.4-3.4-3.4h-11.6c-1.9 0-3.4 1.5-3.4 3.4v11.5c0 1.9 1.5 3.4 3.4 3.4h11.6c0.2 0 0.5 0 0.7-0.1 3.6 3.5 8.7 6.1 15.9 7.1 4.5 0.6 7.2 1.5 8.9 2.8-1.5 9.2-1.2 19.4 3.8 30 0.9 0.1 1.7 0.3 2.6 0.4 1.8 0.2 3.6 0.3 5.4 0.3 1.8 0 3.7-0.1 5.5-0.3 0.7-0.1 2.6-0.4 3.3-0.5-8.7-15.2-10-28.8-7.3-41.7 1-1 2.1-1.7 3.5-2.3 3.2-1.5 8.2-2.5 11.9-2.8 7.3-0.6 14.9-2.8 16.5-8.6 0.6 0.6 1.4 0.9 2.4 0.9h11.5c1.9 0 3.4-1.5 3.4-3.4v-11.6c0-1.9-1.5-3.4-3.4-3.4h-11.5c-1.9 0-3.4 1.5-3.4 3.4v11.6c0 0.3 0.1 0.6 0.1 1-0.9 4-5.9 4.9-10.4 5.3 1.5-1.6 2.2-3.2 3-4.9 1.6-3.4 0.8-7.7 0.5-9.7-0.8-2.7-1.4-7-0.8-11h4.6c1.9 0 3.4-1.5 3.4-3.4v-11.6c0-1.9-1.5-3.4-3.4-3.4h-11.6c-1.9 0-3.4 1.5-3.4 3.4v11.6c0 1.9 1.5 3.4 3.4 3.4h5.9c-1.3 3.4-1.2 7.4-0.4 11.4 0.3 1.8-0.1 5.3-1.3 7.9-1.1 2.4-2.4 4-7.7 6.8-3.3 0.2-7.3 0.5-10.7 1.9 5.7-18.4 2.7-30.5 0.2-37.6 1.4-0.4 2.5-1.7 2.5-3.3v-11.6c0-1.9-1.5-3.4-3.4-3.4h-11.6z" class="a"/><path d="m143.6 517c0.2 0.8 0.4 1.6 0.4 2.4v3.2c1.6-1.6 3.8-2.5 6.1-2.5h3.2c-3.1-1.3-6.3-2.4-9.7-3.1zm-28.8 1.8c-2.9 1-5.7 2.3-8.3 3.8h5c1.2 0 2.3 0.2 3.3 0.7v-3.9c0-0.2 0-0.4 0-0.6zm55.7 13.1v8.5c0 0.9-0.2 1.7-0.4 2.5h8.6c-2.2-4-5-7.7-8.2-11zm-79.4 3.7c-5.2 6.5-8.9 14.2-10.6 22.6 1-0.4 2-0.6 3.1-0.6h8.2c0.7-2.7 1.7-5.3 2.9-7.7-2.2-1.6-3.6-4.2-3.6-7.1zm94.3 34.2c-1.6 1.4-3.6 2.3-5.9 2.3h-5.2c-1.5 18.6-14.9 33.7-32.7 37.7 1.1 2.8 2.5 5.7 4.2 8.7 0.2 0.4 0.4 0.8 0.5 1.3 22.1-6.1 38.5-26.1 39-50zm-102.7 17.1c5.8 15.8 18.9 28.1 35.2 32.8-1.6-4.3-2.5-8.5-3-12.7-8.8-4-15.9-10.9-20.2-19.6-0.2-0.2-0.4-0.3-0.7-0.5h-10.4c-0.3 0-0.6 0-0.9 0z" class="a"/></g></svg>