<?xml version="1.0" encoding="UTF-8" standalone="no"?>
<!-- Created with Inkscape (http://www.inkscape.org/) -->

<svg
   xmlns:dc="http://purl.org/dc/elements/1.1/"
   xmlns:cc="http://creativecommons.org/ns#"
   xmlns:rdf="http://www.w3.org/1999/02/22-rdf-syntax-ns#"
   xmlns:svg="http://www.w3.org/2000/svg"
   xmlns="http://www.w3.org/2000/svg"
   xmlns:xlink="http://www.w3.org/1999/xlink"
   xmlns:sodipodi="http://sodipodi.sourceforge.net/DTD/sodipodi-0.dtd"
   xmlns:inkscape="http://www.inkscape.org/namespaces/inkscape"
   width="816"
   height="1056"
   id="svg2"
   version="1.1"
   inkscape:version="0.92.0 r15299"
   sodipodi:docname="LogoWinDirStat.svg">
  <title
     id="title4299">WinDirStat</title>
  <defs
     id="defs4">
    <linearGradient
       id="linearGradient4494">
      <stop
         style="stop-color:#000000;stop-opacity:0;"
         offset="0"
         id="stop4496" />
      <stop
         style="stop-color:#000000;stop-opacity:0.1254902;"
         offset="1"
         id="stop4498" />
    </linearGradient>
    <inkscape:perspective
       sodipodi:type="inkscape:persp3d"
       inkscape:vp_x="0 : 0.53333333 : 1"
       inkscape:vp_y="0 : 1066.6667 : 0"
       inkscape:vp_z="1.0666667 : 0.53333333 : 1"
       inkscape:persp3d-origin="0.53333333 : 0.35555555 : 1"
       id="perspective8487" />
    <inkscape:perspective
       id="perspective8502"
       inkscape:persp3d-origin="396.85039 : 374.17322 : 1"
       inkscape:vp_z="793.70078 : 561.25983 : 1"
       inkscape:vp_y="0 : 1066.6667 : 0"
       inkscape:vp_x="0 : 561.25983 : 1"
       sodipodi:type="inkscape:persp3d" />
    <radialGradient
       inkscape:collect="always"
       xlink:href="#linearGradient4494"
       id="radialGradient4287"
       gradientUnits="userSpaceOnUse"
       gradientTransform="matrix(0.32317785,-0.00213796,0.00144051,0.21775039,2069.681,942.33712)"
       cx="299.21332"
       cy="456.29883"
       fx="299.21332"
       fy="456.29883"
       r="78.375488" />
    <radialGradient
       inkscape:collect="always"
       xlink:href="#linearGradient4494"
       id="radialGradient4289"
       gradientUnits="userSpaceOnUse"
       gradientTransform="matrix(0.32317785,-0.00213796,0.00144051,0.21775039,2069.681,899.67046)"
       cx="299.21332"
       cy="456.29883"
       fx="299.21332"
       fy="456.29883"
       r="78.375488" />
    <radialGradient
       inkscape:collect="always"
       xlink:href="#linearGradient4494"
       id="radialGradient4291"
       gradientUnits="userSpaceOnUse"
       gradientTransform="matrix(0.32317785,-0.00213796,0.00144051,0.21775039,2069.681,857.00379)"
       cx="299.21332"
       cy="456.29883"
       fx="299.21332"
       fy="456.29883"
       r="78.375488" />
    <radialGradient
       inkscape:collect="always"
       xlink:href="#linearGradient4494"
       id="radialGradient4293"
       gradientUnits="userSpaceOnUse"
       gradientTransform="matrix(0.32317785,-0.00213796,0.00144051,0.21775039,1965.1476,942.33712)"
       cx="299.21332"
       cy="456.29883"
       fx="299.21332"
       fy="456.29883"
       r="78.375488" />
    <radialGradient
       inkscape:collect="always"
       xlink:href="#linearGradient4494"
       id="radialGradient4295"
       gradientUnits="userSpaceOnUse"
       gradientTransform="matrix(0.32317785,-0.00213796,0.00144051,0.21775039,1965.1476,899.67046)"
       cx="299.21332"
       cy="456.29883"
       fx="299.21332"
       fy="456.29883"
       r="78.375488" />
    <radialGradient
       inkscape:collect="always"
       xlink:href="#linearGradient4494"
       id="radialGradient4297"
       gradientUnits="userSpaceOnUse"
       gradientTransform="matrix(0.32317785,-0.00213796,0.00144051,0.21775039,1965.1476,857.00379)"
       cx="299.21332"
       cy="456.29883"
       fx="299.21332"
       fy="456.29883"
       r="78.375488" />
  </defs>
  <sodipodi:namedview
     id="base"
     pagecolor="#ffffff"
     bordercolor="#666666"
     borderopacity="1.0"
     inkscape:pageopacity="0.0"
     inkscape:pageshadow="2"
     inkscape:zoom="1.2570995"
     inkscape:cx="401.01981"
     inkscape:cy="292.26493"
     inkscape:document-units="px"
     inkscape:current-layer="layer1"
     showgrid="false"
     inkscape:object-paths="true"
     inkscape:window-width="1920"
     inkscape:window-height="996"
     inkscape:window-x="1912"
     inkscape:window-y="-8"
     inkscape:window-maximized="1"
     inkscape:snap-nodes="true"
     showguides="true"
     inkscape:guide-bbox="true" />
  <metadata
     id="metadata7">
    <rdf:RDF>
      <cc:Work
         rdf:about="">
        <dc:format>image/svg+xml</dc:format>
        <dc:type
           rdf:resource="http://purl.org/dc/dcmitype/StillImage" />
        <dc:title>WinDirStat</dc:title>
        <dc:date>10/26/2010</dc:date>
        <dc:creator>
          <cc:Agent>
            <dc:title>tuqueque</dc:title>
          </cc:Agent>
        </dc:creator>
        <dc:rights>
          <cc:Agent>
            <dc:title>Creative Commons Att. V3.0</dc:title>
          </cc:Agent>
        </dc:rights>
        <dc:subject>
          <rdf:Bag>
            <rdf:li>logo</rdf:li>
            <rdf:li>WinDirStat</rdf:li>
            <rdf:li>tuqueque</rdf:li>
          </rdf:Bag>
        </dc:subject>
        <dc:description>WinDirStat Logo</dc:description>
        <dc:contributor>
          <cc:Agent>
            <dc:title>Oliver Schneider &amp; Bernhard Seifert</dc:title>
          </cc:Agent>
        </dc:contributor>
      </cc:Work>
    </rdf:RDF>
  </metadata>
  <g
     inkscape:label="Layer 1"
     inkscape:groupmode="layer"
     id="layer1"
     transform="translate(0,-66.51968)">
    <rect
       style="fill:#000000;fill-opacity:1;stroke:none;stroke-width:1.06666672"
       id="rect4354"
       width="753.20422"
       height="184.95377"
       x="35.527176"
       y="270.94537"
       rx="10.873887"
       ry="10.873887" />
    <rect
       ry="10.873887"
       rx="10.873887"
       y="270.94537"
       x="413.98383"
       height="414.34903"
       width="374.74768"
       id="rect4334"
       style="fill:#000000;fill-opacity:1;stroke:none;stroke-width:1.06666672" />
    <g
       id="g4262"
       transform="matrix(0.63714179,0,0,0.63714179,1463.658,436.91986)">
      <path
         style="color:#000000;font-style:normal;font-variant:normal;font-weight:normal;font-stretch:normal;font-size:medium;line-height:normal;font-family:Sans;-inkscape-font-specification:Sans;text-indent:0;text-align:start;text-decoration:none;text-decoration-line:none;letter-spacing:normal;word-spacing:normal;text-transform:none;writing-mode:lr-tb;direction:ltr;text-anchor:start;display:inline;overflow:visible;visibility:visible;fill:#808080;fill-opacity:1;stroke:none;stroke-width:19.11929131;marker:none;enable-background:accumulate"
         d="m -1486.1153,-203.34727 c 0.3651,1.22488 0.5666,2.50572 0.5666,3.83333 v 5 c 2.5124,-2.44535 5.9011,-4 9.6,-4 h 5 c -4.8363,-2.08235 -9.9126,-3.6954 -15.1666,-4.83333 z m -45.2667,2.86666 c -4.565,1.61591 -8.9377,3.61455 -13.1,5.96667 h 7.8666 c 1.8357,0 3.5814,0.3892 5.2,1.06667 v -6.06667 c 0,-0.32495 0.011,-0.6466 0.033,-0.96667 z m 87.4333,20.63334 v 13.33333 c 0,1.34446 -0.2592,2.62792 -0.6333,3.86667 h 13.4333 c -3.5245,-6.27844 -7.8289,-12.0589 -12.8,-17.2 z m -124.6667,5.86666 c -8.1505,10.16764 -13.9759,22.26192 -16.6332,35.5 1.5155,-0.58307 3.1375,-0.9 4.8332,-0.9 h 12.9001 c 1.1282,-4.20204 2.6444,-8.24361 4.5333,-12.06666 -3.3909,-2.55209 -5.6334,-6.59305 -5.6334,-11.06667 z m -13.2332,80.366669 c 9.0751,24.785674 29.6468,44.0784 55.2,51.433333 -2.5427,-6.752619 -3.999,-13.399531 -4.7001,-19.866667 -13.7451,-6.314346 -24.944,-17.168138 -31.6333,-30.7 -0.3473,-0.263829 -0.6964,-0.529045 -1.0334,-0.8 h -16.4 c -0.482,0 -0.9624,-0.01621 -1.4332,-0.06667 z"
         id="path4336"
         inkscape:connector-curvature="0"
         sodipodi:nodetypes="cscsccccscsccscccccsccsccccccsc" />
      <path
         style="color:#000000;font-style:normal;font-variant:normal;font-weight:normal;font-stretch:normal;font-size:medium;line-height:normal;font-family:Sans;-inkscape-font-specification:Sans;text-indent:0;text-align:start;text-decoration:none;text-decoration-line:none;letter-spacing:normal;word-spacing:normal;text-transform:none;writing-mode:lr-tb;direction:ltr;text-anchor:start;display:inline;overflow:visible;visibility:visible;fill:#ffffff;fill-opacity:1;stroke:none;stroke-width:4.26666689;marker:none;enable-background:accumulate"
         d="m -1517.5487,-204.84727 c -2.9547,0 -5.3333,2.37866 -5.3333,5.33333 v 18.13333 c 0,2.95467 2.3786,5.33334 5.3333,5.33334 h 15.7333 c 2.7382,13.86933 1.5518,19.99484 -3.5666,34.7 -3.8395,-4.73691 -9.0694,-7.93663 -15.1,-10.3 -5.182,-2.03085 -9.624,-4.97315 -11.3334,-8.6 0.3255,-0.69058 0.5334,-1.45004 0.5334,-2.26667 v -18.13333 c 0,-2.95467 -2.3787,-5.33334 -5.3334,-5.33334 h -18.1333 c -2.9547,0 -5.3333,2.37867 -5.3333,5.33334 v 18.13333 c 0,2.95467 2.3786,5.33333 5.3333,5.33333 h 18.1333 c 1.4607,0 2.7721,-0.58846 3.7334,-1.53333 1.0281,4.87683 4.9233,7.92967 11.3333,11.13333 5.788,2.89272 10.3282,9.72886 12.5667,16.36667 -1.1288,3.17941 -2.315,6.55995 -3.6666,10.5 -2.5342,7.56981 -5.7297,16.34396 -8,25.966665 -2.5491,-1.474933 -5.312,-2.49681 -8.2,-3.033333 -1.2329,-0.814507 -2.148,-1.573472 -2.8,-2.500002 -2.0383,-2.89606 -0.6253,-8.48009 -1.2667,-12.43333 h 7.0667 c 2.9546,0 5.3333,-2.37867 5.3333,-5.33333 v -18.13334 c 0,-2.95466 -2.3787,-5.33333 -5.3333,-5.33333 h -18.1001 c -2.9547,0 -5.3333,2.37867 -5.3333,5.33333 v 18.13334 c 0,2.95466 2.3786,5.33333 5.3333,5.33333 h 9.7333 c -0.1702,4.15564 -3.2598,10.55246 -0.6,14.333332 0.021,0.03093 0.045,0.06891 0.066,0.09995 -0.1797,8.42e-4 -0.3532,-0.0032 -0.5334,0 -10.8271,0.216277 -16.9393,-1.466006 -23.2,-5.366672 0.945,-0.96133 1.5334,-2.30598 1.5334,-3.76666 v -18.1 c 0,-2.95467 -2.3787,-5.33334 -5.3334,-5.33334 h -18.1333 c -2.9547,0 -5.3333,2.37867 -5.3333,5.33334 v 18.1 c 0,2.95466 2.3786,5.33333 5.3333,5.33333 h 18.1333 c 0.3807,0 0.7757,-0.025 1.1334,-0.1 5.688,5.479674 13.6911,9.621424 24.9333,11.100005 7.0664,0.929344 11.2414,2.384459 13.9333,4.433333 -2.3528,14.42928 -1.9056,30.44384 6,47.1 1.3448,0.203478 2.6685,0.461387 4.0334,0.6 2.8104,0.285408 5.6476,0.433334 8.5334,0.433334 2.8856,0 5.7562,-0.147926 8.5666,-0.433334 1.0273,-0.10432 4.1507,-0.625482 5.1667,-0.766666 -13.6668,-23.860427 -15.7395,-45.226859 -11.5333,-65.500002 1.5317,-1.52794 3.3401,-2.6731 5.4332,-3.63333 4.9987,-2.29309 12.8385,-3.90722 18.6667,-4.43334 11.4521,-0.88328 23.3072,-4.46626 25.8334,-13.5 0.9551,0.90602 2.2735,1.46667 3.6999,1.46667 h 18.1001 c 2.9547,0 5.3333,-2.37867 5.3333,-5.33333 v -18.13334 c 0,-2.95466 -2.3786,-5.33333 -5.3333,-5.33333 h -18.1001 c -2.9546,0 -5.3333,2.37867 -5.3333,5.33333 v 18.13334 c 0,0.52971 0.091,1.01769 0.2334,1.5 -1.3405,6.21931 -9.2186,7.72461 -16.4,8.26666 2.2924,-2.52053 3.5039,-5.00117 4.7666,-7.7 2.4922,-5.32641 1.2786,-12.14442 0.7333,-15.3 -1.3001,-4.18985 -2.1803,-11.03831 -1.2,-17.3 h 7.2667 c 2.9547,0 5.3333,-2.37866 5.3333,-5.33333 v -18.13333 c 0,-2.95467 -2.3786,-5.33334 -5.3333,-5.33334 h -18.1333 c -2.9547,0 -5.3334,2.37867 -5.3334,5.33334 v 18.13333 c 0,2.95467 2.3787,5.33333 5.3334,5.33333 h 9.2334 c -2.0744,5.35033 -1.8362,11.55956 -0.7001,17.9 0.4779,2.76583 -0.1432,8.39373 -2.0333,12.43334 -1.7733,3.79012 -3.7177,6.29053 -12.1333,10.73333 -5.1487,0.36973 -11.3942,0.84951 -16.7333,2.93333 8.9721,-28.93704 4.2713,-47.9363 0.2999,-59.06666 2.2606,-0.61901 3.9333,-2.67112 3.9333,-5.13334 v -18.13333 c 0,-2.95467 -2.3786,-5.33333 -5.3333,-5.33333 h -18.1333 z"
         id="path4338"
         inkscape:connector-curvature="0" />
      <text
         id="text4340"
         y="-50.943245"
         x="-1493.6021"
         style="font-style:normal;font-variant:normal;font-weight:normal;font-stretch:normal;font-size:72.24536896px;line-height:125%;font-family:'Arial Rounded MT Bold';-inkscape-font-specification:'Arial Rounded MT Bold,';text-align:start;letter-spacing:0;word-spacing:0;writing-mode:lr-tb;text-anchor:start;fill:#ffffff;stroke:none;stroke-width:1.06666672"
         xml:space="preserve"
         transform="scale(0.99591644,1.0041003)"><tspan
           y="-50.943245"
           x="-1493.6021"
           id="tspan4342"
           sodipodi:role="line"
           style="stroke-width:1.06666672"><tspan
   style="fill:#ffffff;stroke:none;stroke-width:1.06666672"
   id="tspan4344">W</tspan>in<tspan
   style="fill:#ffffff;stroke:none;stroke-width:1.06666672"
   id="tspan4346">D</tspan>ir<tspan
   style="fill:#ffffff;stroke:none;stroke-width:1.06666672"
   id="tspan4348">S</tspan>tat</tspan></text>
    </g>
    <g
       id="g3392">
      <path
         style="color:#000000;font-style:normal;font-variant:normal;font-weight:normal;font-stretch:normal;font-size:medium;line-height:normal;font-family:Sans;-inkscape-font-specification:Sans;text-indent:0;text-align:start;text-decoration:none;text-decoration-line:none;letter-spacing:normal;word-spacing:normal;text-transform:none;writing-mode:lr-tb;direction:ltr;text-anchor:start;display:inline;overflow:visible;visibility:visible;fill:#000000;fill-opacity:1;stroke:none;stroke-width:4.26666689;marker:none;enable-background:accumulate"
         d="m 123.55998,515.99744 c -1.88254,0 -3.39809,1.51554 -3.39809,3.39809 v 11.5535 c 0,1.88254 1.51555,3.3981 3.39809,3.3981 h 10.02436 c 1.74459,8.83672 0.98864,12.73955 -2.27244,22.10881 -2.44634,-3.01808 -5.77858,-5.05676 -9.62087,-6.56256 -3.30172,-1.29393 -6.13185,-3.1686 -7.22094,-5.47942 0.20729,-0.43999 0.33981,-0.92388 0.33981,-1.44419 v -11.5535 c 0,-1.88254 -1.51555,-3.39809 -3.39809,-3.39809 H 99.858304 c -1.882539,0 -3.398091,1.51555 -3.398091,3.39809 v 11.5535 c 0,1.88254 1.515552,3.39809 3.398091,3.39809 h 11.553506 c 0.93066,0 1.7662,-0.37493 2.37866,-0.97695 0.65509,3.10723 3.13685,5.05233 7.22094,7.09352 3.68767,1.84306 6.58047,6.19865 8.00679,10.42788 -0.71925,2.02574 -1.47498,4.17962 -2.33619,6.68999 -1.6147,4.82304 -3.65064,10.41342 -5.09714,16.54445 -1.62414,-0.93974 -3.38456,-1.59082 -5.22456,-1.93267 -0.78557,-0.51895 -1.36854,-1.00252 -1.78399,-1.59285 -1.29869,-1.84521 -0.3984,-5.40302 -0.80705,-7.9218 h 4.50246 c 1.88248,0 3.39809,-1.51555 3.39809,-3.39809 v -11.5535 c 0,-1.88254 -1.51561,-3.39809 -3.39809,-3.39809 h -11.5323 c -1.88253,0 -3.39809,1.51555 -3.39809,3.39809 v 11.5535 c 0,1.88254 1.51556,3.39809 3.39809,3.39809 h 6.20152 c -0.10853,2.64774 -2.07698,6.72342 -0.38228,9.13237 0.0135,0.0197 0.0286,0.0439 0.0421,0.0637 -0.11444,5.4e-4 -0.22502,-0.002 -0.33981,0 -6.89839,0.1378 -10.79281,-0.93405 -14.781683,-3.41933 0.602005,-0.6125 0.976949,-1.46924 0.976949,-2.39989 v -11.53227 c 0,-1.88255 -1.515552,-3.39809 -3.398091,-3.39809 H 83.50466 c -1.882542,0 -3.398089,1.51554 -3.398089,3.39809 v 11.53227 c 0,1.88253 1.515547,3.39808 3.398089,3.39808 h 11.553505 c 0.242486,0 0.494219,-0.0159 0.722091,-0.0637 3.624064,3.49132 8.723104,6.1302 15.886074,7.07227 4.50219,0.59213 7.16235,1.51925 8.87751,2.82466 -1.49917,9.19351 -1.21421,19.39705 3.82285,30.00938 0.85679,0.12964 1.70013,0.29397 2.56977,0.38229 1.79065,0.18185 3.59837,0.27609 5.43694,0.27609 1.83864,0 3.66756,-0.0942 5.45822,-0.27609 0.65453,-0.0665 2.64459,-0.39852 3.29186,-0.48848 -8.70761,-15.20247 -10.0283,-28.81592 -7.34837,-41.73279 0.97593,-0.97351 2.12823,-1.70313 3.46184,-2.31494 3.18476,-1.46102 8.17988,-2.48945 11.89331,-2.82466 7.29659,-0.56278 14.84993,-2.84564 16.45947,-8.60142 0.6086,0.57726 1.44861,0.93448 2.35746,0.93448 h 11.53222 c 1.88255,0 3.39809,-1.51555 3.39809,-3.3981 v -11.5535 c 0,-1.88254 -1.51554,-3.39809 -3.39809,-3.39809 h -11.53222 c -1.88255,0 -3.39809,1.51555 -3.39809,3.39809 v 11.5535 c 0,0.33751 0.0577,0.64842 0.14863,0.95572 -0.85401,3.96259 -5.87346,4.92168 -10.44913,5.26704 1.46057,-1.60593 2.23255,-3.18646 3.03707,-4.906 1.5878,-3.39367 0.8146,-7.73772 0.46725,-9.74826 -0.82846,-2.66953 -1.38928,-7.03298 -0.76458,-11.02255 h 4.6299 c 1.88255,0 3.39809,-1.51556 3.39809,-3.39809 V 528.8677 c 0,-1.88254 -1.51554,-3.39809 -3.39809,-3.39809 h -11.5535 c -1.88254,0 -3.39809,1.51555 -3.39809,3.39809 v 11.55351 c 0,1.88253 1.51555,3.39809 3.39809,3.39809 h 5.88291 c -1.32166,3.40891 -1.1699,7.36507 -0.44596,11.40483 0.30446,1.76223 -0.0913,5.348 -1.29557,7.9218 -1.12979,2.41485 -2.36867,4.00797 -7.73064,6.83866 -3.28039,0.23556 -7.25968,0.54126 -10.66152,1.86895 5.71655,-18.43701 2.72146,-30.54222 0.19118,-37.63385 1.44025,-0.39439 2.50609,-1.70188 2.50609,-3.27066 v -11.5535 c 0,-1.88255 -1.51554,-3.39809 -3.39809,-3.39809 h -11.5535 z"
         id="path4623"
         inkscape:connector-curvature="0" />
      <path
         id="path4627"
         d="m 143.58751,516.95315 c 0.23263,0.78043 0.36101,1.5965 0.36101,2.44238 v 3.18571 c 1.60077,-1.55804 3.75978,-2.54857 6.11656,-2.54857 h 3.1857 c -3.08138,-1.32675 -6.31575,-2.35449 -9.66327,-3.07952 z m -28.84129,1.82648 c -2.90857,1.02955 -5.69466,2.30297 -8.34659,3.80161 h 5.01218 c 1.16949,0 2.28182,0.24798 3.31314,0.67961 v -3.86532 c 0,-0.20704 0.006,-0.41198 0.021,-0.6159 z m 55.70739,13.14635 v 8.49523 c 0,0.8566 -0.16514,1.67435 -0.40349,2.46361 h 8.55891 c -2.2456,-4.00025 -4.98812,-7.68322 -8.15542,-10.95884 z m -79.430335,3.7379 c -5.193035,6.47823 -8.904628,14.184 -10.59776,22.61853 0.965601,-0.3715 1.999028,-0.57343 3.079484,-0.57343 h 8.219161 c 0.718837,-2.67729 1.684779,-5.25235 2.888384,-7.68817 -2.160512,-1.62604 -3.589269,-4.2007 -3.589269,-7.05104 z m 94.318255,34.1508 c -1.57223,1.41552 -3.62998,2.29371 -5.8617,2.29371 h -5.16089 c -1.47762,18.60506 -14.93392,33.7392 -32.70661,37.69755 1.11661,2.81746 2.50758,5.70686 4.22641,8.70761 0.23154,0.40373 0.41273,0.84609 0.53091,1.29553 22.09166,-6.06945 38.47814,-26.1279 38.97188,-49.9944 z M 82.591797,586.86884 c 5.782048,15.79199 18.889163,28.08419 35.170233,32.77033 -1.62001,-4.30238 -2.54796,-8.5374 -2.99461,-12.65789 -8.75755,-4.02313 -15.89286,-10.93854 -20.154876,-19.56025 -0.221291,-0.16809 -0.443797,-0.33707 -0.658421,-0.50971 H 83.504999 c -0.307118,0 -0.613219,-0.0107 -0.913202,-0.0425 z"
         style="color:#000000;font-style:normal;font-variant:normal;font-weight:normal;font-stretch:normal;font-size:medium;line-height:normal;font-family:Sans;-inkscape-font-specification:Sans;text-indent:0;text-align:start;text-decoration:none;text-decoration-line:none;letter-spacing:normal;word-spacing:normal;text-transform:none;writing-mode:lr-tb;direction:ltr;text-anchor:start;display:inline;overflow:visible;visibility:visible;fill:#000000;fill-opacity:1;stroke:none;stroke-width:19.11929131;marker:none;enable-background:accumulate"
         inkscape:connector-curvature="0" />
    </g>
    <g
       id="g3523"
       inkscape:export-filename="C:\tuqueque\Imagenes\Svg\Logos\WinDirStat\Icons\Orange\Orange256.png"
       inkscape:export-xdpi="720"
       inkscape:export-ydpi="720"
       transform="translate(-1850.6117,-95.466144)">
      <circle
         style="fill:#ff7f2a;stroke:none;stroke-width:0.21775515"
         id="path4631"
         cx="2070.8494"
         cy="957.2467"
         r="17.066668" />
      <path
         inkscape:connector-curvature="0"
         id="path4633"
         d="m 2068.315,942.09413 c -0.5411,0 -0.9767,0.43559 -0.9767,0.97665 v 3.32053 c 0,0.54106 0.4356,0.9766 0.9767,0.9766 h 2.8811 c 0.5013,2.53976 0.284,3.66143 -0.6532,6.35421 -0.7031,-0.8674 -1.6608,-1.45334 -2.7651,-1.88614 -0.9489,-0.37185 -1.7623,-0.91064 -2.0753,-1.57479 0.06,-0.12648 0.098,-0.26553 0.098,-0.41509 v -3.32052 c 0,-0.54103 -0.4356,-0.97661 -0.9766,-0.97661 h -3.3205 c -0.5412,0 -0.9767,0.43558 -0.9767,0.97661 v 3.32052 c 0,0.54107 0.4355,0.97665 0.9767,0.97665 h 3.3205 c 0.2674,0 0.5075,-0.10776 0.6836,-0.28078 0.1883,0.89302 0.9016,1.45208 2.0753,2.0387 1.0599,0.52972 1.8913,1.78156 2.3013,2.99703 -0.2068,0.58221 -0.4239,1.20123 -0.6715,1.92276 -0.4641,1.38615 -1.0492,2.99287 -1.465,4.75495 -0.4667,-0.27007 -0.9727,-0.45722 -1.5015,-0.55546 -0.2258,-0.14913 -0.3933,-0.28815 -0.5128,-0.45777 -0.3732,-0.53035 -0.1144,-1.55286 -0.2319,-2.2768 h 1.294 c 0.5411,0 0.9767,-0.43555 0.9767,-0.97661 v -3.32057 c 0,-0.54102 -0.4356,-0.97661 -0.9767,-0.97661 h -3.3144 c -0.541,0 -0.9766,0.43559 -0.9766,0.97661 v 3.32057 c 0,0.54106 0.4356,0.97661 0.9766,0.97661 h 1.7824 c -0.031,0.76099 -0.5969,1.93237 -0.1099,2.62469 0,0.005 0.011,0.0127 0.012,0.0182 -0.033,1.3e-4 -0.065,0 -0.098,0 -1.9826,0.0398 -3.102,-0.26846 -4.2483,-0.98275 0.173,-0.17602 0.2807,-0.42224 0.2807,-0.68973 v -3.31442 c 0,-0.54107 -0.4355,-0.97665 -0.9766,-0.97665 h -3.3205 c -0.5411,0 -0.9767,0.43558 -0.9767,0.97665 v 3.31442 c 0,0.54107 0.4356,0.97665 0.9767,0.97665 h 3.3205 c 0.069,0 0.1421,-0.004 0.2076,-0.0182 1.0415,1.00341 2.5071,1.76187 4.5657,2.03261 1.2939,0.17017 2.0585,0.43664 2.5514,0.81181 -0.4308,2.64226 -0.3489,5.57483 1.0988,8.62487 0.2461,0.0372 0.4886,0.0845 0.7385,0.10988 0.5147,0.0523 1.0341,0.0794 1.5626,0.0794 0.5284,0 1.0541,-0.0271 1.5687,-0.0794 0.1882,-0.0191 0.7601,-0.11454 0.9462,-0.14042 -2.5027,-4.36928 -2.8823,-8.28184 -2.112,-11.99421 0.2805,-0.2798 0.6116,-0.48949 0.9949,-0.66534 0.9153,-0.41988 2.351,-0.71548 3.4182,-0.81181 2.097,-0.16175 4.2679,-0.81786 4.7305,-2.47208 0.175,0.1659 0.4164,0.26853 0.6776,0.26853 h 3.3144 c 0.541,0 0.9767,-0.43554 0.9767,-0.9766 v -3.32052 c 0,-0.54107 -0.4357,-0.97665 -0.9767,-0.97665 h -3.3144 c -0.541,0 -0.9767,0.43558 -0.9767,0.97665 v 3.32052 c 0,0.097 0.017,0.18635 0.043,0.27468 -0.2454,1.13887 -1.6881,1.41452 -3.0031,1.51377 0.4197,-0.46154 0.6416,-0.9158 0.8729,-1.41003 0.4563,-0.97533 0.2341,-2.22383 0.1343,-2.80169 -0.2381,-0.76722 -0.3993,-2.0213 -0.2198,-3.16792 h 1.3307 c 0.541,0 0.9766,-0.43558 0.9766,-0.97665 v -3.32052 c 0,-0.54106 -0.4356,-0.97665 -0.9766,-0.97665 h -3.3205 c -0.5412,0 -0.9767,0.43559 -0.9767,0.97665 v 3.32052 c 0,0.54107 0.4355,0.97665 0.9767,0.97665 h 1.6907 c -0.3798,0.97975 -0.3363,2.11675 -0.1282,3.27781 0.087,0.50646 -0.027,1.53701 -0.3724,2.27675 -0.3246,0.69405 -0.6807,1.15191 -2.2217,1.96545 -0.9428,0.0677 -2.0865,0.15557 -3.0642,0.53717 1.643,-5.29888 0.7822,-8.77799 0.055,-10.81618 0.414,-0.11332 0.7204,-0.48911 0.7204,-0.93998 v -3.32053 c 0,-0.54106 -0.4357,-0.97665 -0.9767,-0.97665 z"
         style="color:#000000;font-style:normal;font-variant:normal;font-weight:normal;font-stretch:normal;font-size:medium;line-height:normal;font-family:Sans;-inkscape-font-specification:Sans;text-indent:0;text-align:start;text-decoration:none;text-decoration-line:none;letter-spacing:normal;word-spacing:normal;text-transform:none;writing-mode:lr-tb;direction:ltr;text-anchor:start;display:inline;overflow:visible;visibility:visible;fill:#000000;fill-opacity:1;stroke:none;stroke-width:4.26666689;marker:none;enable-background:accumulate" />
      <path
         inkscape:connector-curvature="0"
         style="color:#000000;font-style:normal;font-variant:normal;font-weight:normal;font-stretch:normal;font-size:medium;line-height:normal;font-family:Sans;-inkscape-font-specification:Sans;text-indent:0;text-align:start;text-decoration:none;text-decoration-line:none;letter-spacing:normal;word-spacing:normal;text-transform:none;writing-mode:lr-tb;direction:ltr;text-anchor:start;display:inline;overflow:visible;visibility:visible;fill:#000000;fill-opacity:1;stroke:none;stroke-width:19.11929131;marker:none;enable-background:accumulate"
         d="m 2074.0709,942.36882 c 0.067,0.22429 0.1035,0.45883 0.1035,0.70196 v 0.9156 c 0.4601,-0.44783 1.0806,-0.7325 1.758,-0.7325 h 0.9155 c -0.8856,-0.3813 -1.8152,-0.6767 -2.7773,-0.88506 z m -8.2891,0.52493 c -0.8359,0.29589 -1.6366,0.66191 -2.3989,1.09263 h 1.4406 c 0.3361,0 0.6558,0.0712 0.9522,0.19528 v -1.11088 c 0,-0.0595 0,-0.11843 0.011,-0.17703 z m 16.0106,3.77834 v 2.44155 c 0,0.24623 -0.047,0.48124 -0.1159,0.70807 h 2.4598 c -0.6454,-1.14971 -1.4336,-2.20821 -2.3439,-3.14962 z m -22.8287,1.07429 c -1.4924,1.86188 -2.5592,4.07656 -3.0458,6.50067 0.2775,-0.10674 0.5745,-0.1648 0.885,-0.1648 h 2.3622 c 0.2066,-0.76946 0.4843,-1.50954 0.8302,-2.20964 -0.6209,-0.4673 -1.0316,-1.2073 -1.0316,-2.02651 z m 27.1076,9.8151 c -0.4519,0.40684 -1.0432,0.65925 -1.6847,0.65925 h -1.4832 c -0.4248,5.3472 -4.2921,9.69678 -9.4001,10.83447 0.3209,0.80977 0.7207,1.64017 1.2147,2.50261 0.066,0.11602 0.1186,0.24314 0.1526,0.37233 6.3492,-1.74437 11.0588,-7.5093 11.2007,-14.36866 z m -29.5308,4.90145 c 1.6617,4.53874 5.4288,8.07158 10.108,9.41839 -0.4656,-1.23651 -0.7322,-2.45371 -0.8606,-3.63797 -2.517,-1.15627 -4.5676,-3.14378 -5.7926,-5.62172 -0.064,-0.0483 -0.1276,-0.0969 -0.1892,-0.14646 h -3.0031 c -0.088,0 -0.1763,-0.004 -0.2625,-0.0123 z"
         id="path4635" />
      <circle
         id="path4315"
         style="fill:url(#radialGradient4297);fill-opacity:1;stroke:none;stroke-width:0.21775515"
         cx="2070.8494"
         cy="957.2467"
         r="17.066668" />
    </g>
    <text
       xml:space="preserve"
       style="font-style:normal;font-variant:normal;font-weight:normal;font-stretch:normal;font-size:12.80000019px;line-height:125%;font-family:Sans;-inkscape-font-specification:Sans;text-align:center;letter-spacing:0;word-spacing:0;writing-mode:lr-tb;text-anchor:middle;fill:#000000;stroke:none;stroke-width:1.06666672"
       x="270.43997"
       y="816.22491"
       id="text4611"><tspan
         sodipodi:role="line"
         id="tspan4613"
         x="270.43997"
         y="816.22491"
         style="stroke-width:1.06666672">Icons</tspan></text>
    <path
       style="fill:#ff7f2a;fill-opacity:1;stroke:none;stroke-width:1.06666672"
       d="m 88.077216,776.8099 h 44.087244 c 1.21145,0 2.18674,0.98558 2.18674,2.20983 v 34.34891 c 0,1.22426 -0.97529,2.20983 -2.18674,2.20983 H 88.077216 c -1.211456,0 -2.186741,-0.98557 -2.186741,-2.20983 v -34.34891 c 0,-1.22425 0.975285,-2.20983 2.186741,-2.20983 z"
       id="path4864"
       inkscape:connector-curvature="0"
       sodipodi:nodetypes="sssssssss" />
    <path
       sodipodi:nodetypes="sssssssss"
       inkscape:connector-curvature="0"
       id="path4972"
       d="m 88.077216,818.34766 h 44.087244 c 1.21145,0 2.18674,0.98559 2.18674,2.20984 v 34.34891 c 0,1.22426 -0.97529,2.20984 -2.18674,2.20984 H 88.077216 c -1.211456,0 -2.186741,-0.98558 -2.186741,-2.20984 V 820.5575 c 0,-1.22425 0.975285,-2.20984 2.186741,-2.20984 z"
       style="fill:#aad400;fill-opacity:1;stroke:none;stroke-width:1.06666672" />
    <path
       style="fill:#37c871;fill-opacity:1;stroke:none;stroke-width:1.06666672"
       d="m 88.077216,859.88543 h 44.087254 c 1.21144,0 2.18674,0.98558 2.18674,2.20983 v 34.34892 c 0,1.22426 -0.9753,2.20984 -2.18674,2.20984 H 88.077216 c -1.211456,0 -2.186741,-0.98558 -2.186741,-2.20984 v -34.34892 c 0,-1.22425 0.975285,-2.20983 2.186741,-2.20983 z"
       id="path5080"
       inkscape:connector-curvature="0"
       sodipodi:nodetypes="sssssssss" />
    <path
       sodipodi:nodetypes="sssssssss"
       inkscape:connector-curvature="0"
       id="path5188"
       d="m 88.077227,901.4232 h 44.087243 c 1.21144,0 2.18674,0.98558 2.18674,2.20983 v 34.34891 c 0,1.22426 -0.9753,2.20985 -2.18674,2.20985 H 88.077216 c -1.211456,0 -2.186731,-0.98559 -2.186731,-2.20985 v -34.34891 c 0,-1.22425 0.975275,-2.20983 2.186731,-2.20983 z"
       style="fill:#37c8ab;fill-opacity:1;stroke:none;stroke-width:1.06666672" />
    <path
       style="fill:#80b3ff;fill-opacity:1;stroke:none;stroke-width:1.06666672"
       d="m 88.077227,942.96097 h 44.087243 c 1.21144,0 2.18674,0.98558 2.18674,2.20984 v 34.3489 c 0,1.22426 -0.9753,2.20984 -2.18674,2.20984 H 88.077216 c -1.211456,0 -2.186731,-0.98558 -2.186731,-2.20984 v -34.3489 c 0,-1.22426 0.975275,-2.20984 2.186731,-2.20984 z"
       id="path5296"
       inkscape:connector-curvature="0"
       sodipodi:nodetypes="sssssssss" />
    <path
       sodipodi:nodetypes="sssssssss"
       inkscape:connector-curvature="0"
       id="path5404"
       d="m 88.077227,984.49873 h 44.087243 c 1.21144,0 2.18674,0.98558 2.18674,2.20985 v 34.34892 c 0,1.2242 -0.9753,2.2098 -2.18674,2.2098 H 88.077216 c -1.211456,0 -2.186731,-0.9856 -2.186731,-2.2098 v -34.34892 c 0,-1.22427 0.975275,-2.20985 2.186731,-2.20985 z"
       style="fill:#dd55ff;fill-opacity:1;stroke:none;stroke-width:1.06666672" />
    <g
       id="g3529"
       inkscape:export-filename="C:\tuqueque\Imagenes\Svg\Logos\WinDirStat\Icons\Greenish\Greenish256.png"
       inkscape:export-xdpi="720"
       inkscape:export-ydpi="720"
       transform="translate(-1850.6117,-95.466144)">
      <circle
         id="path5524"
         style="fill:#aad400;stroke:none;stroke-width:0.21775515"
         cx="2070.8494"
         cy="999.91339"
         r="17.066668" />
      <path
         style="color:#000000;font-style:normal;font-variant:normal;font-weight:normal;font-stretch:normal;font-size:medium;line-height:normal;font-family:Sans;-inkscape-font-specification:Sans;text-indent:0;text-align:start;text-decoration:none;text-decoration-line:none;letter-spacing:normal;word-spacing:normal;text-transform:none;writing-mode:lr-tb;direction:ltr;text-anchor:start;display:inline;overflow:visible;visibility:visible;fill:#000000;fill-opacity:1;stroke:none;stroke-width:4.26666689;marker:none;enable-background:accumulate"
         d="m 2068.315,984.7608 c -0.5411,0 -0.9767,0.43558 -0.9767,0.97665 v 3.32052 c 0,0.54107 0.4356,0.97661 0.9767,0.97661 h 2.8811 c 0.5013,2.53976 0.284,3.66143 -0.6532,6.35421 -0.7031,-0.8674 -1.6608,-1.45334 -2.7651,-1.88614 -0.9489,-0.37186 -1.7623,-0.91064 -2.0753,-1.57479 0.06,-0.12648 0.098,-0.26553 0.098,-0.41509 v -3.32052 c 0,-0.54103 -0.4356,-0.97661 -0.9766,-0.97661 h -3.3205 c -0.5412,0 -0.9767,0.43558 -0.9767,0.97661 v 3.32052 c 0,0.54106 0.4355,0.97665 0.9767,0.97665 h 3.3205 c 0.2674,0 0.5075,-0.10777 0.6836,-0.28078 0.1883,0.89301 0.9016,1.45207 2.0753,2.0387 1.0599,0.52972 1.8913,1.78156 2.3013,2.99702 -0.2068,0.58222 -0.4239,1.20124 -0.6715,1.92274 -0.4641,1.3862 -1.0492,2.9929 -1.465,4.755 -0.4667,-0.2701 -0.9727,-0.4572 -1.5015,-0.5555 -0.2258,-0.1491 -0.3933,-0.2881 -0.5128,-0.4578 -0.3732,-0.5303 -0.1144,-1.5528 -0.2319,-2.2768 h 1.294 c 0.5411,0 0.9767,-0.4355 0.9767,-0.9766 v -3.32053 c 0,-0.54102 -0.4356,-0.97661 -0.9767,-0.97661 h -3.3144 c -0.541,0 -0.9766,0.43559 -0.9766,0.97661 v 3.32053 c 0,0.5411 0.4356,0.9766 0.9766,0.9766 h 1.7824 c -0.031,0.761 -0.5969,1.9324 -0.1099,2.6247 0,0.01 0.011,0.013 0.012,0.018 -0.033,10e-5 -0.065,0 -0.098,0 -1.9826,0.04 -3.102,-0.2685 -4.2483,-0.9828 0.173,-0.176 0.2807,-0.4222 0.2807,-0.6897 v -3.31443 c 0,-0.54106 -0.4355,-0.97665 -0.9766,-0.97665 h -3.3205 c -0.5411,0 -0.9767,0.43559 -0.9767,0.97665 v 3.31443 c 0,0.5411 0.4356,0.9766 0.9767,0.9766 h 3.3205 c 0.069,0 0.1421,0 0.2076,-0.018 1.0415,1.0034 2.5071,1.7619 4.5657,2.0326 1.2939,0.1702 2.0585,0.4367 2.5514,0.8118 -0.4308,2.6423 -0.3489,5.5749 1.0988,8.6249 0.2461,0.037 0.4886,0.084 0.7385,0.1099 0.5147,0.052 1.0341,0.079 1.5626,0.079 0.5284,0 1.0541,-0.027 1.5687,-0.079 0.1882,-0.019 0.7601,-0.1146 0.9462,-0.1404 -2.5027,-4.3693 -2.8823,-8.2819 -2.112,-11.9942 0.2805,-0.2799 0.6116,-0.4895 0.9949,-0.6654 0.9153,-0.4199 2.351,-0.7155 3.4182,-0.8118 2.097,-0.1618 4.2679,-0.8179 4.7305,-2.47209 0.175,0.1659 0.4164,0.26854 0.6776,0.26854 h 3.3144 c 0.541,0 0.9767,-0.43554 0.9767,-0.9766 v -3.32052 c 0,-0.54107 -0.4357,-0.97665 -0.9767,-0.97665 h -3.3144 c -0.541,0 -0.9767,0.43558 -0.9767,0.97665 v 3.32052 c 0,0.097 0.017,0.18635 0.043,0.27468 -0.2454,1.13887 -1.6881,1.41447 -3.0031,1.51377 0.4197,-0.46154 0.6416,-0.9158 0.8729,-1.41003 0.4563,-0.97534 0.2341,-2.22383 0.1343,-2.8017 -0.2381,-0.76722 -0.3993,-2.0213 -0.2198,-3.16791 h 1.3307 c 0.541,0 0.9766,-0.43558 0.9766,-0.97665 v -3.32052 c 0,-0.54106 -0.4356,-0.97665 -0.9766,-0.97665 h -3.3205 c -0.5412,0 -0.9767,0.43559 -0.9767,0.97665 v 3.32052 c 0,0.54107 0.4355,0.97665 0.9767,0.97665 h 1.6907 c -0.3798,0.97974 -0.3363,2.11675 -0.1282,3.2778 0.087,0.50647 -0.027,1.53702 -0.3724,2.27676 -0.3246,0.69405 -0.6807,1.1519 -2.2217,1.96548 -0.9428,0.068 -2.0865,0.1555 -3.0642,0.5371 1.643,-5.29885 0.7822,-8.77795 0.055,-10.81615 0.414,-0.11331 0.7204,-0.48911 0.7204,-0.93998 v -3.32052 c 0,-0.54107 -0.4357,-0.97665 -0.9767,-0.97665 z"
         id="path5526"
         inkscape:connector-curvature="0" />
      <path
         id="path5528"
         d="m 2074.0709,985.03549 c 0.067,0.22429 0.1035,0.45882 0.1035,0.70196 v 0.9156 c 0.4601,-0.44783 1.0806,-0.73251 1.758,-0.73251 h 0.9155 c -0.8856,-0.3813 -1.8152,-0.67669 -2.7773,-0.88505 z m -8.2891,0.52493 c -0.8359,0.29589 -1.6366,0.66191 -2.3989,1.09263 h 1.4406 c 0.3361,0 0.6558,0.0712 0.9522,0.19528 v -1.11088 c 0,-0.0595 0,-0.11843 0.011,-0.17703 z m 16.0106,3.77833 v 2.44156 c 0,0.24623 -0.047,0.48124 -0.1159,0.70806 h 2.4598 c -0.6454,-1.1497 -1.4336,-2.2082 -2.3439,-3.14962 z m -22.8287,1.0743 c -1.4924,1.86187 -2.5592,4.07656 -3.0458,6.50067 0.2775,-0.10674 0.5745,-0.1648 0.885,-0.1648 h 2.3622 c 0.2066,-0.76946 0.4843,-1.50954 0.8302,-2.20965 -0.6209,-0.46729 -1.0316,-1.20729 -1.0316,-2.0265 z m 27.1076,9.81505 c -0.4519,0.4069 -1.0432,0.6593 -1.6847,0.6593 h -1.4832 c -0.4248,5.3472 -4.2921,9.6968 -9.4001,10.8345 0.3209,0.8097 0.7207,1.6401 1.2147,2.5026 0.066,0.116 0.1186,0.2431 0.1526,0.3723 6.3492,-1.7444 11.0588,-7.5093 11.2007,-14.3687 z m -29.5308,4.9015 c 1.6617,4.5387 5.4288,8.0716 10.108,9.4184 -0.4656,-1.2365 -0.7322,-2.4537 -0.8606,-3.638 -2.517,-1.1563 -4.5676,-3.1438 -5.7926,-5.6217 -0.064,-0.048 -0.1276,-0.097 -0.1892,-0.1465 h -3.0031 c -0.088,0 -0.1763,0 -0.2625,-0.012 z"
         style="color:#000000;font-style:normal;font-variant:normal;font-weight:normal;font-stretch:normal;font-size:medium;line-height:normal;font-family:Sans;-inkscape-font-specification:Sans;text-indent:0;text-align:start;text-decoration:none;text-decoration-line:none;letter-spacing:normal;word-spacing:normal;text-transform:none;writing-mode:lr-tb;direction:ltr;text-anchor:start;display:inline;overflow:visible;visibility:visible;fill:#000000;fill-opacity:1;stroke:none;stroke-width:19.11929131;marker:none;enable-background:accumulate"
         inkscape:connector-curvature="0" />
      <circle
         style="fill:url(#radialGradient4295);fill-opacity:1;stroke:none;stroke-width:0.21775515"
         id="path5530"
         cx="2070.8494"
         cy="999.91339"
         r="17.066668" />
    </g>
    <g
       id="g3535"
       inkscape:export-filename="C:\tuqueque\Imagenes\Svg\Logos\WinDirStat\Icons\Green\Green256.png"
       inkscape:export-xdpi="720"
       inkscape:export-ydpi="720"
       transform="translate(-1850.6117,-95.466144)">
      <circle
         style="fill:#37c871;stroke:none;stroke-width:0.21775515"
         id="path5534"
         cx="2070.8494"
         cy="1042.5801"
         r="17.066668" />
      <path
         inkscape:connector-curvature="0"
         id="path5536"
         d="m 2068.315,1027.4275 c -0.5411,0 -0.9767,0.4356 -0.9767,0.9766 v 3.3205 c 0,0.5411 0.4356,0.9766 0.9767,0.9766 h 2.8811 c 0.5013,2.5398 0.284,3.6615 -0.6532,6.3543 -0.7031,-0.8674 -1.6608,-1.4534 -2.7651,-1.8862 -0.9489,-0.3718 -1.7623,-0.9106 -2.0753,-1.5748 0.06,-0.1265 0.098,-0.2655 0.098,-0.4151 v -3.3205 c 0,-0.541 -0.4356,-0.9766 -0.9766,-0.9766 h -3.3205 c -0.5412,0 -0.9767,0.4356 -0.9767,0.9766 v 3.3205 c 0,0.5411 0.4355,0.9767 0.9767,0.9767 h 3.3205 c 0.2674,0 0.5075,-0.1078 0.6836,-0.2808 0.1883,0.893 0.9016,1.4521 2.0753,2.0387 1.0599,0.5297 1.8913,1.7816 2.3013,2.997 -0.2068,0.5822 -0.4239,1.2013 -0.6715,1.9228 -0.4641,1.3861 -1.0492,2.9929 -1.465,4.7549 -0.4667,-0.27 -0.9727,-0.4572 -1.5015,-0.5554 -0.2258,-0.1492 -0.3933,-0.2882 -0.5128,-0.4578 -0.3732,-0.5303 -0.1144,-1.5528 -0.2319,-2.2768 h 1.294 c 0.5411,0 0.9767,-0.4355 0.9767,-0.9766 v -3.3206 c 0,-0.541 -0.4356,-0.9766 -0.9767,-0.9766 h -3.3144 c -0.541,0 -0.9766,0.4356 -0.9766,0.9766 v 3.3206 c 0,0.5411 0.4356,0.9766 0.9766,0.9766 h 1.7824 c -0.031,0.761 -0.5969,1.9324 -0.1099,2.6247 0,0.01 0.011,0.013 0.012,0.018 -0.033,2e-4 -0.065,0 -0.098,0 -1.9826,0.04 -3.102,-0.2684 -4.2483,-0.9827 0.173,-0.176 0.2807,-0.4222 0.2807,-0.6897 v -3.3145 c 0,-0.541 -0.4355,-0.9766 -0.9766,-0.9766 h -3.3205 c -0.5411,0 -0.9767,0.4356 -0.9767,0.9766 v 3.3145 c 0,0.541 0.4356,0.9766 0.9767,0.9766 h 3.3205 c 0.069,0 0.1421,0 0.2076,-0.018 1.0415,1.0034 2.5071,1.7618 4.5657,2.0326 1.2939,0.1702 2.0585,0.4366 2.5514,0.8118 -0.4308,2.6423 -0.3489,5.5748 1.0988,8.6249 0.2461,0.037 0.4886,0.084 0.7385,0.1098 0.5147,0.052 1.0341,0.079 1.5626,0.079 0.5284,0 1.0541,-0.027 1.5687,-0.079 0.1882,-0.019 0.7601,-0.1145 0.9462,-0.1404 -2.5027,-4.3693 -2.8823,-8.2818 -2.112,-11.9942 0.2805,-0.2798 0.6116,-0.4895 0.9949,-0.6653 0.9153,-0.4199 2.351,-0.7155 3.4182,-0.8118 2.097,-0.1618 4.2679,-0.8179 4.7305,-2.4721 0.175,0.1659 0.4164,0.2685 0.6776,0.2685 h 3.3144 c 0.541,0 0.9767,-0.4355 0.9767,-0.9766 v -3.3205 c 0,-0.5411 -0.4357,-0.9767 -0.9767,-0.9767 h -3.3144 c -0.541,0 -0.9767,0.4356 -0.9767,0.9767 v 3.3205 c 0,0.097 0.017,0.1864 0.043,0.2747 -0.2454,1.1389 -1.6881,1.4145 -3.0031,1.5138 0.4197,-0.4616 0.6416,-0.9158 0.8729,-1.4101 0.4563,-0.9753 0.2341,-2.2238 0.1343,-2.8017 -0.2381,-0.7672 -0.3993,-2.0213 -0.2198,-3.1679 h 1.3307 c 0.541,0 0.9766,-0.4356 0.9766,-0.9766 v -3.3205 c 0,-0.5411 -0.4356,-0.9767 -0.9766,-0.9767 h -3.3205 c -0.5412,0 -0.9767,0.4356 -0.9767,0.9767 v 3.3205 c 0,0.541 0.4355,0.9766 0.9767,0.9766 h 1.6907 c -0.3798,0.9798 -0.3363,2.1168 -0.1282,3.2778 0.087,0.5065 -0.027,1.537 -0.3724,2.2768 -0.3246,0.694 -0.6807,1.1519 -2.2217,1.9654 -0.9428,0.068 -2.0865,0.1556 -3.0642,0.5372 1.643,-5.2989 0.7822,-8.778 0.055,-10.8162 0.414,-0.1133 0.7204,-0.4891 0.7204,-0.94 v -3.3205 c 0,-0.541 -0.4357,-0.9766 -0.9767,-0.9766 z"
         style="color:#000000;font-style:normal;font-variant:normal;font-weight:normal;font-stretch:normal;font-size:medium;line-height:normal;font-family:Sans;-inkscape-font-specification:Sans;text-indent:0;text-align:start;text-decoration:none;text-decoration-line:none;letter-spacing:normal;word-spacing:normal;text-transform:none;writing-mode:lr-tb;direction:ltr;text-anchor:start;display:inline;overflow:visible;visibility:visible;fill:#000000;fill-opacity:1;stroke:none;stroke-width:4.26666689;marker:none;enable-background:accumulate" />
      <path
         inkscape:connector-curvature="0"
         style="color:#000000;font-style:normal;font-variant:normal;font-weight:normal;font-stretch:normal;font-size:medium;line-height:normal;font-family:Sans;-inkscape-font-specification:Sans;text-indent:0;text-align:start;text-decoration:none;text-decoration-line:none;letter-spacing:normal;word-spacing:normal;text-transform:none;writing-mode:lr-tb;direction:ltr;text-anchor:start;display:inline;overflow:visible;visibility:visible;fill:#000000;fill-opacity:1;stroke:none;stroke-width:19.11929131;marker:none;enable-background:accumulate"
         d="m 2074.0709,1027.7022 c 0.067,0.2242 0.1035,0.4588 0.1035,0.7019 v 0.9156 c 0.4601,-0.4478 1.0806,-0.7325 1.758,-0.7325 h 0.9155 c -0.8856,-0.3813 -1.8152,-0.6767 -2.7773,-0.885 z m -8.2891,0.5249 c -0.8359,0.2959 -1.6366,0.6619 -2.3989,1.0926 h 1.4406 c 0.3361,0 0.6558,0.071 0.9522,0.1953 v -1.1109 c 0,-0.06 0,-0.1184 0.011,-0.177 z m 16.0106,3.7783 v 2.4416 c 0,0.2462 -0.047,0.4812 -0.1159,0.708 h 2.4598 c -0.6454,-1.1497 -1.4336,-2.2082 -2.3439,-3.1496 z m -22.8287,1.0743 c -1.4924,1.8619 -2.5592,4.0766 -3.0458,6.5007 0.2775,-0.1068 0.5745,-0.1648 0.885,-0.1648 h 2.3622 c 0.2066,-0.7695 0.4843,-1.5096 0.8302,-2.2097 -0.6209,-0.4673 -1.0316,-1.2073 -1.0316,-2.0265 z m 27.1076,9.8151 c -0.4519,0.4069 -1.0432,0.6593 -1.6847,0.6593 h -1.4832 c -0.4248,5.3472 -4.2921,9.6967 -9.4001,10.8344 0.3209,0.8098 0.7207,1.6402 1.2147,2.5026 0.066,0.1161 0.1186,0.2432 0.1526,0.3724 6.3492,-1.7444 11.0588,-7.5093 11.2007,-14.3687 z m -29.5308,4.9015 c 1.6617,4.5387 5.4288,8.0715 10.108,9.4184 -0.4656,-1.2366 -0.7322,-2.4538 -0.8606,-3.638 -2.517,-1.1563 -4.5676,-3.1438 -5.7926,-5.6217 -0.064,-0.048 -0.1276,-0.097 -0.1892,-0.1465 h -3.0031 c -0.088,0 -0.1763,0 -0.2625,-0.012 z"
         id="path5538" />
      <circle
         id="path5540"
         style="fill:url(#radialGradient4293);fill-opacity:1;stroke:none;stroke-width:0.21775515"
         cx="2070.8494"
         cy="1042.5801"
         r="17.066668" />
    </g>
    <g
       id="g3541"
       inkscape:export-filename="C:\tuqueque\Imagenes\Svg\Logos\WinDirStat\Icons\Cyanish\Cyanish256.png"
       inkscape:export-xdpi="720.00275"
       inkscape:export-ydpi="720.00275"
       transform="translate(-1850.6117,-95.466144)">
      <circle
         id="path5544"
         style="fill:#37c8ab;stroke:none;stroke-width:0.21775515"
         cx="2175.3826"
         cy="957.2467"
         r="17.066668" />
      <path
         style="color:#000000;font-style:normal;font-variant:normal;font-weight:normal;font-stretch:normal;font-size:medium;line-height:normal;font-family:Sans;-inkscape-font-specification:Sans;text-indent:0;text-align:start;text-decoration:none;text-decoration-line:none;letter-spacing:normal;word-spacing:normal;text-transform:none;writing-mode:lr-tb;direction:ltr;text-anchor:start;display:inline;overflow:visible;visibility:visible;fill:#000000;fill-opacity:1;stroke:none;stroke-width:4.26666689;marker:none;enable-background:accumulate"
         d="m 2172.8483,942.09413 c -0.5411,0 -0.9766,0.43559 -0.9766,0.97665 v 3.32053 c 0,0.54106 0.4355,0.9766 0.9766,0.9766 h 2.8811 c 0.5013,2.53976 0.284,3.66143 -0.6531,6.35421 -0.7032,-0.8674 -1.6608,-1.45334 -2.7652,-1.88614 -0.9489,-0.37185 -1.7623,-0.91064 -2.0753,-1.57479 0.06,-0.12648 0.098,-0.26553 0.098,-0.41509 v -3.32052 c 0,-0.54103 -0.4357,-0.97661 -0.9767,-0.97661 h -3.3205 c -0.5411,0 -0.9766,0.43558 -0.9766,0.97661 v 3.32052 c 0,0.54107 0.4355,0.97665 0.9766,0.97665 h 3.3205 c 0.2674,0 0.5077,-0.10776 0.6837,-0.28078 0.1882,0.89302 0.9015,1.45208 2.0753,2.0387 1.0598,0.52972 1.8913,1.78156 2.3012,2.99703 -0.2067,0.58221 -0.4239,1.20123 -0.6715,1.92276 -0.4641,1.38615 -1.0491,2.99287 -1.4649,4.75495 -0.4668,-0.27007 -0.9727,-0.45722 -1.5016,-0.55546 -0.2258,-0.14913 -0.3933,-0.28815 -0.5127,-0.45777 -0.3733,-0.53035 -0.1145,-1.55286 -0.2319,-2.2768 h 1.294 c 0.5411,0 0.9766,-0.43555 0.9766,-0.97661 v -3.32057 c 0,-0.54102 -0.4355,-0.97661 -0.9766,-0.97661 h -3.3145 c -0.541,0 -0.9765,0.43559 -0.9765,0.97661 v 3.32057 c 0,0.54106 0.4355,0.97661 0.9765,0.97661 h 1.7824 c -0.031,0.76099 -0.5969,1.93237 -0.1099,2.62469 0,0.005 0.011,0.0127 0.012,0.0182 -0.033,1.3e-4 -0.065,0 -0.098,0 -1.9826,0.0398 -3.1019,-0.26846 -4.2483,-0.98275 0.173,-0.17602 0.2808,-0.42224 0.2808,-0.68973 v -3.31442 c 0,-0.54107 -0.4356,-0.97665 -0.9767,-0.97665 h -3.3205 c -0.541,0 -0.9767,0.43558 -0.9767,0.97665 v 3.31442 c 0,0.54107 0.4357,0.97665 0.9767,0.97665 h 3.3205 c 0.069,0 0.1421,-0.004 0.2076,-0.0182 1.0415,1.00341 2.5071,1.76187 4.5658,2.03261 1.2938,0.17017 2.0584,0.43664 2.5513,0.81181 -0.4308,2.64226 -0.3489,5.57483 1.0988,8.62487 0.2462,0.0372 0.4886,0.0845 0.7385,0.10988 0.5147,0.0523 1.0342,0.0794 1.5626,0.0794 0.5284,0 1.0541,-0.0271 1.5688,-0.0794 0.1881,-0.0191 0.7601,-0.11454 0.9461,-0.14042 -2.5026,-4.36928 -2.8823,-8.28184 -2.112,-11.99421 0.2805,-0.2798 0.6116,-0.48949 0.995,-0.66534 0.9153,-0.41988 2.3509,-0.71548 3.4181,-0.81181 2.0971,-0.16175 4.268,-0.81786 4.7306,-2.47208 0.1749,0.1659 0.4163,0.26853 0.6775,0.26853 h 3.3145 c 0.541,0 0.9766,-0.43554 0.9766,-0.9766 v -3.32052 c 0,-0.54107 -0.4356,-0.97665 -0.9766,-0.97665 h -3.3145 c -0.541,0 -0.9766,0.43558 -0.9766,0.97665 v 3.32052 c 0,0.097 0.017,0.18635 0.043,0.27468 -0.2454,1.13887 -1.6881,1.41452 -3.0031,1.51377 0.4198,-0.46154 0.6416,-0.9158 0.8729,-1.41003 0.4563,-0.97533 0.2341,-2.22383 0.1343,-2.80169 -0.2381,-0.76722 -0.3993,-2.0213 -0.2197,-3.16792 h 1.3306 c 0.541,0 0.9767,-0.43558 0.9767,-0.97665 v -3.32052 c 0,-0.54106 -0.4357,-0.97665 -0.9767,-0.97665 h -3.3205 c -0.5411,0 -0.9766,0.43559 -0.9766,0.97665 v 3.32052 c 0,0.54107 0.4355,0.97665 0.9766,0.97665 h 1.6908 c -0.3799,0.97975 -0.3364,2.11675 -0.1282,3.27781 0.087,0.50646 -0.027,1.53701 -0.3724,2.27675 -0.3247,0.69405 -0.6808,1.15191 -2.2218,1.96545 -0.9428,0.0677 -2.0865,0.15557 -3.0642,0.53717 1.643,-5.29888 0.7822,-8.77799 0.055,-10.81618 0.4139,-0.11332 0.7203,-0.48911 0.7203,-0.93998 v -3.32053 c 0,-0.54106 -0.4356,-0.97665 -0.9766,-0.97665 z"
         id="path5546"
         inkscape:connector-curvature="0" />
      <path
         id="path5548"
         d="m 2178.6043,942.36882 c 0.067,0.22429 0.1034,0.45883 0.1034,0.70196 v 0.9156 c 0.4601,-0.44783 1.0807,-0.7325 1.758,-0.7325 h 0.9155 c -0.8855,-0.3813 -1.8151,-0.6767 -2.7773,-0.88506 z m -8.2891,0.52493 c -0.8359,0.29589 -1.6367,0.66191 -2.3989,1.09263 h 1.4405 c 0.3361,0 0.6558,0.0712 0.9522,0.19528 v -1.11088 c 0,-0.0595 0,-0.11843 0.011,-0.17703 z m 16.0106,3.77834 v 2.44155 c 0,0.24623 -0.047,0.48124 -0.116,0.70807 h 2.4599 c -0.6455,-1.14971 -1.4336,-2.20821 -2.3439,-3.14962 z m -22.8287,1.07429 c -1.4925,1.86188 -2.5593,4.07656 -3.0459,6.50067 0.2775,-0.10674 0.5745,-0.1648 0.8851,-0.1648 h 2.3622 c 0.2066,-0.76946 0.4842,-1.50954 0.8301,-2.20964 -0.6209,-0.4673 -1.0315,-1.2073 -1.0315,-2.02651 z m 27.1075,9.8151 c -0.4519,0.40684 -1.0432,0.65925 -1.6847,0.65925 h -1.4832 c -0.4248,5.3472 -4.2921,9.69678 -9.4001,10.83447 0.3209,0.80977 0.7207,1.64017 1.2147,2.50261 0.066,0.11602 0.1186,0.24314 0.1526,0.37233 6.3493,-1.74437 11.0588,-7.5093 11.2007,-14.36866 z m -29.5308,4.90145 c 1.6618,4.53874 5.4288,8.07158 10.1081,9.41839 -0.4656,-1.23651 -0.7323,-2.45371 -0.8606,-3.63797 -2.517,-1.15627 -4.5677,-3.14378 -5.7927,-5.62172 -0.064,-0.0483 -0.1275,-0.0969 -0.1892,-0.14646 h -3.0031 c -0.088,0 -0.1763,-0.004 -0.2625,-0.0123 z"
         style="color:#000000;font-style:normal;font-variant:normal;font-weight:normal;font-stretch:normal;font-size:medium;line-height:normal;font-family:Sans;-inkscape-font-specification:Sans;text-indent:0;text-align:start;text-decoration:none;text-decoration-line:none;letter-spacing:normal;word-spacing:normal;text-transform:none;writing-mode:lr-tb;direction:ltr;text-anchor:start;display:inline;overflow:visible;visibility:visible;fill:#000000;fill-opacity:1;stroke:none;stroke-width:19.11929131;marker:none;enable-background:accumulate"
         inkscape:connector-curvature="0" />
      <circle
         style="fill:url(#radialGradient4291);fill-opacity:1;stroke:none;stroke-width:0.21775515"
         id="path5550"
         cx="2175.3826"
         cy="957.2467"
         r="17.066668" />
    </g>
    <g
       id="g3547"
       inkscape:export-filename="C:\tuqueque\Imagenes\Svg\Logos\WinDirStat\Icons\Cyan\Cyan48.png"
       inkscape:export-xdpi="135.00052"
       inkscape:export-ydpi="135.00052"
       transform="translate(-1850.6117,-95.466144)">
      <circle
         style="fill:#80b3ff;stroke:none;stroke-width:0.21775515"
         id="path5554"
         cx="2175.3826"
         cy="999.91339"
         r="17.066668" />
      <path
         inkscape:connector-curvature="0"
         id="path5556"
         d="m 2172.8483,984.7608 c -0.5411,0 -0.9766,0.43558 -0.9766,0.97665 v 3.32052 c 0,0.54107 0.4355,0.97661 0.9766,0.97661 h 2.8811 c 0.5013,2.53976 0.284,3.66143 -0.6531,6.35421 -0.7032,-0.8674 -1.6608,-1.45334 -2.7652,-1.88614 -0.9489,-0.37186 -1.7623,-0.91064 -2.0753,-1.57479 0.06,-0.12648 0.098,-0.26553 0.098,-0.41509 v -3.32052 c 0,-0.54103 -0.4357,-0.97661 -0.9767,-0.97661 h -3.3205 c -0.5411,0 -0.9766,0.43558 -0.9766,0.97661 v 3.32052 c 0,0.54106 0.4355,0.97665 0.9766,0.97665 h 3.3205 c 0.2674,0 0.5077,-0.10777 0.6837,-0.28078 0.1882,0.89301 0.9015,1.45207 2.0753,2.0387 1.0598,0.52972 1.8913,1.78156 2.3012,2.99702 -0.2067,0.58222 -0.4239,1.20124 -0.6715,1.92274 -0.4641,1.3862 -1.0491,2.9929 -1.4649,4.755 -0.4668,-0.2701 -0.9727,-0.4572 -1.5016,-0.5555 -0.2258,-0.1491 -0.3933,-0.2881 -0.5127,-0.4578 -0.3733,-0.5303 -0.1145,-1.5528 -0.2319,-2.2768 h 1.294 c 0.5411,0 0.9766,-0.4355 0.9766,-0.9766 v -3.32053 c 0,-0.54102 -0.4355,-0.97661 -0.9766,-0.97661 h -3.3145 c -0.541,0 -0.9765,0.43559 -0.9765,0.97661 v 3.32053 c 0,0.5411 0.4355,0.9766 0.9765,0.9766 h 1.7824 c -0.031,0.761 -0.5969,1.9324 -0.1099,2.6247 0,0.01 0.011,0.013 0.012,0.018 -0.033,10e-5 -0.065,0 -0.098,0 -1.9826,0.04 -3.1019,-0.2685 -4.2483,-0.9828 0.173,-0.176 0.2808,-0.4222 0.2808,-0.6897 v -3.31443 c 0,-0.54106 -0.4356,-0.97665 -0.9767,-0.97665 h -3.3205 c -0.541,0 -0.9767,0.43559 -0.9767,0.97665 v 3.31443 c 0,0.5411 0.4357,0.9766 0.9767,0.9766 h 3.3205 c 0.069,0 0.1421,0 0.2076,-0.018 1.0415,1.0034 2.5071,1.7619 4.5658,2.0326 1.2938,0.1702 2.0584,0.4367 2.5513,0.8118 -0.4308,2.6423 -0.3489,5.5749 1.0988,8.6249 0.2462,0.037 0.4886,0.084 0.7385,0.1099 0.5147,0.052 1.0342,0.079 1.5626,0.079 0.5284,0 1.0541,-0.027 1.5688,-0.079 0.1881,-0.019 0.7601,-0.1146 0.9461,-0.1404 -2.5026,-4.3693 -2.8823,-8.2819 -2.112,-11.9942 0.2805,-0.2799 0.6116,-0.4895 0.995,-0.6654 0.9153,-0.4199 2.3509,-0.7155 3.4181,-0.8118 2.0971,-0.1618 4.268,-0.8179 4.7306,-2.47209 0.1749,0.1659 0.4163,0.26854 0.6775,0.26854 h 3.3145 c 0.541,0 0.9766,-0.43554 0.9766,-0.9766 v -3.32052 c 0,-0.54107 -0.4356,-0.97665 -0.9766,-0.97665 h -3.3145 c -0.541,0 -0.9766,0.43558 -0.9766,0.97665 v 3.32052 c 0,0.097 0.017,0.18635 0.043,0.27468 -0.2454,1.13887 -1.6881,1.41447 -3.0031,1.51377 0.4198,-0.46154 0.6416,-0.9158 0.8729,-1.41003 0.4563,-0.97534 0.2341,-2.22383 0.1343,-2.8017 -0.2381,-0.76722 -0.3993,-2.0213 -0.2197,-3.16791 h 1.3306 c 0.541,0 0.9767,-0.43558 0.9767,-0.97665 v -3.32052 c 0,-0.54106 -0.4357,-0.97665 -0.9767,-0.97665 h -3.3205 c -0.5411,0 -0.9766,0.43559 -0.9766,0.97665 v 3.32052 c 0,0.54107 0.4355,0.97665 0.9766,0.97665 h 1.6908 c -0.3799,0.97974 -0.3364,2.11675 -0.1282,3.2778 0.087,0.50647 -0.027,1.53702 -0.3724,2.27676 -0.3247,0.69405 -0.6808,1.1519 -2.2218,1.96548 -0.9428,0.068 -2.0865,0.1555 -3.0642,0.5371 1.643,-5.29885 0.7822,-8.77795 0.055,-10.81615 0.4139,-0.11331 0.7203,-0.48911 0.7203,-0.93998 v -3.32052 c 0,-0.54107 -0.4356,-0.97665 -0.9766,-0.97665 z"
         style="color:#000000;font-style:normal;font-variant:normal;font-weight:normal;font-stretch:normal;font-size:medium;line-height:normal;font-family:Sans;-inkscape-font-specification:Sans;text-indent:0;text-align:start;text-decoration:none;text-decoration-line:none;letter-spacing:normal;word-spacing:normal;text-transform:none;writing-mode:lr-tb;direction:ltr;text-anchor:start;display:inline;overflow:visible;visibility:visible;fill:#000000;fill-opacity:1;stroke:none;stroke-width:4.26666689;marker:none;enable-background:accumulate" />
      <path
         inkscape:connector-curvature="0"
         style="color:#000000;font-style:normal;font-variant:normal;font-weight:normal;font-stretch:normal;font-size:medium;line-height:normal;font-family:Sans;-inkscape-font-specification:Sans;text-indent:0;text-align:start;text-decoration:none;text-decoration-line:none;letter-spacing:normal;word-spacing:normal;text-transform:none;writing-mode:lr-tb;direction:ltr;text-anchor:start;display:inline;overflow:visible;visibility:visible;fill:#000000;fill-opacity:1;stroke:none;stroke-width:19.11929131;marker:none;enable-background:accumulate"
         d="m 2178.6043,985.03549 c 0.067,0.22429 0.1034,0.45882 0.1034,0.70196 v 0.9156 c 0.4601,-0.44783 1.0807,-0.73251 1.758,-0.73251 h 0.9155 c -0.8855,-0.3813 -1.8151,-0.67669 -2.7773,-0.88505 z m -8.2891,0.52493 c -0.8359,0.29589 -1.6367,0.66191 -2.3989,1.09263 h 1.4405 c 0.3361,0 0.6558,0.0712 0.9522,0.19528 v -1.11088 c 0,-0.0595 0,-0.11843 0.011,-0.17703 z m 16.0106,3.77833 v 2.44156 c 0,0.24623 -0.047,0.48124 -0.116,0.70806 h 2.4599 c -0.6455,-1.1497 -1.4336,-2.2082 -2.3439,-3.14962 z m -22.8287,1.0743 c -1.4925,1.86187 -2.5593,4.07656 -3.0459,6.50067 0.2775,-0.10674 0.5745,-0.1648 0.8851,-0.1648 h 2.3622 c 0.2066,-0.76946 0.4842,-1.50954 0.8301,-2.20965 -0.6209,-0.46729 -1.0315,-1.20729 -1.0315,-2.0265 z m 27.1075,9.81505 c -0.4519,0.4069 -1.0432,0.6593 -1.6847,0.6593 h -1.4832 c -0.4248,5.3472 -4.2921,9.6968 -9.4001,10.8345 0.3209,0.8097 0.7207,1.6401 1.2147,2.5026 0.066,0.116 0.1186,0.2431 0.1526,0.3723 6.3493,-1.7444 11.0588,-7.5093 11.2007,-14.3687 z m -29.5308,4.9015 c 1.6618,4.5387 5.4288,8.0716 10.1081,9.4184 -0.4656,-1.2365 -0.7323,-2.4537 -0.8606,-3.638 -2.517,-1.1563 -4.5677,-3.1438 -5.7927,-5.6217 -0.064,-0.048 -0.1275,-0.097 -0.1892,-0.1465 h -3.0031 c -0.088,0 -0.1763,0 -0.2625,-0.012 z"
         id="path5558" />
      <circle
         id="path5560"
         style="fill:url(#radialGradient4289);fill-opacity:1;stroke:none;stroke-width:0.21775515"
         cx="2175.3826"
         cy="999.91339"
         r="17.066668" />
    </g>
    <g
       id="g3553"
       inkscape:export-filename="C:\tuqueque\Imagenes\Svg\Logos\WinDirStat\Icons\Purple\Purple256.png"
       inkscape:export-xdpi="720.00275"
       inkscape:export-ydpi="720.00275"
       transform="translate(-1850.6117,-95.466144)">
      <circle
         id="path5564"
         style="fill:#dd55ff;stroke:none;stroke-width:0.21775515"
         cx="2175.3826"
         cy="1042.5801"
         r="17.066668" />
      <path
         style="color:#000000;font-style:normal;font-variant:normal;font-weight:normal;font-stretch:normal;font-size:medium;line-height:normal;font-family:Sans;-inkscape-font-specification:Sans;text-indent:0;text-align:start;text-decoration:none;text-decoration-line:none;letter-spacing:normal;word-spacing:normal;text-transform:none;writing-mode:lr-tb;direction:ltr;text-anchor:start;display:inline;overflow:visible;visibility:visible;fill:#000000;fill-opacity:1;stroke:none;stroke-width:4.26666689;marker:none;enable-background:accumulate"
         d="m 2172.8483,1027.4275 c -0.5411,0 -0.9766,0.4356 -0.9766,0.9766 v 3.3205 c 0,0.5411 0.4355,0.9766 0.9766,0.9766 h 2.8811 c 0.5013,2.5398 0.284,3.6615 -0.6531,6.3543 -0.7032,-0.8674 -1.6608,-1.4534 -2.7652,-1.8862 -0.9489,-0.3718 -1.7623,-0.9106 -2.0753,-1.5748 0.06,-0.1265 0.098,-0.2655 0.098,-0.4151 v -3.3205 c 0,-0.541 -0.4357,-0.9766 -0.9767,-0.9766 h -3.3205 c -0.5411,0 -0.9766,0.4356 -0.9766,0.9766 v 3.3205 c 0,0.5411 0.4355,0.9767 0.9766,0.9767 h 3.3205 c 0.2674,0 0.5077,-0.1078 0.6837,-0.2808 0.1882,0.893 0.9015,1.4521 2.0753,2.0387 1.0598,0.5297 1.8913,1.7816 2.3012,2.997 -0.2067,0.5822 -0.4239,1.2013 -0.6715,1.9228 -0.4641,1.3861 -1.0491,2.9929 -1.4649,4.7549 -0.4668,-0.27 -0.9727,-0.4572 -1.5016,-0.5554 -0.2258,-0.1492 -0.3933,-0.2882 -0.5127,-0.4578 -0.3733,-0.5303 -0.1145,-1.5528 -0.2319,-2.2768 h 1.294 c 0.5411,0 0.9766,-0.4355 0.9766,-0.9766 v -3.3206 c 0,-0.541 -0.4355,-0.9766 -0.9766,-0.9766 h -3.3145 c -0.541,0 -0.9765,0.4356 -0.9765,0.9766 v 3.3206 c 0,0.5411 0.4355,0.9766 0.9765,0.9766 h 1.7824 c -0.031,0.761 -0.5969,1.9324 -0.1099,2.6247 0,0.01 0.011,0.013 0.012,0.018 -0.033,2e-4 -0.065,0 -0.098,0 -1.9826,0.04 -3.1019,-0.2684 -4.2483,-0.9827 0.173,-0.176 0.2808,-0.4222 0.2808,-0.6897 v -3.3145 c 0,-0.541 -0.4356,-0.9766 -0.9767,-0.9766 h -3.3205 c -0.541,0 -0.9767,0.4356 -0.9767,0.9766 v 3.3145 c 0,0.541 0.4357,0.9766 0.9767,0.9766 h 3.3205 c 0.069,0 0.1421,0 0.2076,-0.018 1.0415,1.0034 2.5071,1.7618 4.5658,2.0326 1.2938,0.1702 2.0584,0.4366 2.5513,0.8118 -0.4308,2.6423 -0.3489,5.5748 1.0988,8.6249 0.2462,0.037 0.4886,0.084 0.7385,0.1098 0.5147,0.052 1.0342,0.079 1.5626,0.079 0.5284,0 1.0541,-0.027 1.5688,-0.079 0.1881,-0.019 0.7601,-0.1145 0.9461,-0.1404 -2.5026,-4.3693 -2.8823,-8.2818 -2.112,-11.9942 0.2805,-0.2798 0.6116,-0.4895 0.995,-0.6653 0.9153,-0.4199 2.3509,-0.7155 3.4181,-0.8118 2.0971,-0.1618 4.268,-0.8179 4.7306,-2.4721 0.1749,0.1659 0.4163,0.2685 0.6775,0.2685 h 3.3145 c 0.541,0 0.9766,-0.4355 0.9766,-0.9766 v -3.3205 c 0,-0.5411 -0.4356,-0.9767 -0.9766,-0.9767 h -3.3145 c -0.541,0 -0.9766,0.4356 -0.9766,0.9767 v 3.3205 c 0,0.097 0.017,0.1864 0.043,0.2747 -0.2454,1.1389 -1.6881,1.4145 -3.0031,1.5138 0.4198,-0.4616 0.6416,-0.9158 0.8729,-1.4101 0.4563,-0.9753 0.2341,-2.2238 0.1343,-2.8017 -0.2381,-0.7672 -0.3993,-2.0213 -0.2197,-3.1679 h 1.3306 c 0.541,0 0.9767,-0.4356 0.9767,-0.9766 v -3.3205 c 0,-0.5411 -0.4357,-0.9767 -0.9767,-0.9767 h -3.3205 c -0.5411,0 -0.9766,0.4356 -0.9766,0.9767 v 3.3205 c 0,0.541 0.4355,0.9766 0.9766,0.9766 h 1.6908 c -0.3799,0.9798 -0.3364,2.1168 -0.1282,3.2778 0.087,0.5065 -0.027,1.537 -0.3724,2.2768 -0.3247,0.694 -0.6808,1.1519 -2.2218,1.9654 -0.9428,0.068 -2.0865,0.1556 -3.0642,0.5372 1.643,-5.2989 0.7822,-8.778 0.055,-10.8162 0.4139,-0.1133 0.7203,-0.4891 0.7203,-0.94 v -3.3205 c 0,-0.541 -0.4356,-0.9766 -0.9766,-0.9766 z"
         id="path5566"
         inkscape:connector-curvature="0" />
      <path
         id="path5568"
         d="m 2178.6043,1027.7022 c 0.067,0.2242 0.1034,0.4588 0.1034,0.7019 v 0.9156 c 0.4601,-0.4478 1.0807,-0.7325 1.758,-0.7325 h 0.9155 c -0.8855,-0.3813 -1.8151,-0.6767 -2.7773,-0.885 z m -8.2891,0.5249 c -0.8359,0.2959 -1.6367,0.6619 -2.3989,1.0926 h 1.4405 c 0.3361,0 0.6558,0.071 0.9522,0.1953 v -1.1109 c 0,-0.06 0,-0.1184 0.011,-0.177 z m 16.0106,3.7783 v 2.4416 c 0,0.2462 -0.047,0.4812 -0.116,0.708 h 2.4599 c -0.6455,-1.1497 -1.4336,-2.2082 -2.3439,-3.1496 z m -22.8287,1.0743 c -1.4925,1.8619 -2.5593,4.0766 -3.0459,6.5007 0.2775,-0.1068 0.5745,-0.1648 0.8851,-0.1648 h 2.3622 c 0.2066,-0.7695 0.4842,-1.5096 0.8301,-2.2097 -0.6209,-0.4673 -1.0315,-1.2073 -1.0315,-2.0265 z m 27.1075,9.8151 c -0.4519,0.4069 -1.0432,0.6593 -1.6847,0.6593 h -1.4832 c -0.4248,5.3472 -4.2921,9.6967 -9.4001,10.8344 0.3209,0.8098 0.7207,1.6402 1.2147,2.5026 0.066,0.1161 0.1186,0.2432 0.1526,0.3724 6.3493,-1.7444 11.0588,-7.5093 11.2007,-14.3687 z m -29.5308,4.9015 c 1.6618,4.5387 5.4288,8.0715 10.1081,9.4184 -0.4656,-1.2366 -0.7323,-2.4538 -0.8606,-3.638 -2.517,-1.1563 -4.5677,-3.1438 -5.7927,-5.6217 -0.064,-0.048 -0.1275,-0.097 -0.1892,-0.1465 h -3.0031 c -0.088,0 -0.1763,0 -0.2625,-0.012 z"
         style="color:#000000;font-style:normal;font-variant:normal;font-weight:normal;font-stretch:normal;font-size:medium;line-height:normal;font-family:Sans;-inkscape-font-specification:Sans;text-indent:0;text-align:start;text-decoration:none;text-decoration-line:none;letter-spacing:normal;word-spacing:normal;text-transform:none;writing-mode:lr-tb;direction:ltr;text-anchor:start;display:inline;overflow:visible;visibility:visible;fill:#000000;fill-opacity:1;stroke:none;stroke-width:19.11929131;marker:none;enable-background:accumulate"
         inkscape:connector-curvature="0" />
      <circle
         style="fill:url(#radialGradient4287);fill-opacity:1;stroke:none;stroke-width:0.21775515"
         id="path5570"
         cx="2175.3826"
         cy="1042.5801"
         r="17.066668" />
    </g>
    <g
       id="g4167"
       transform="matrix(0.63714179,0,0,0.63714179,1464.4486,427.30531)">
      <path
         sodipodi:nodetypes="cscsccccscsccscccccsccsccccccsc"
         inkscape:connector-curvature="0"
         id="path4294"
         d="m -1484.6734,-474.17046 c 0.3651,1.22488 0.5666,2.50572 0.5666,3.83333 v 5 c 2.5125,-2.44534 5.901,-4 9.6,-4 h 5 c -4.8362,-2.08235 -9.9126,-3.6954 -15.1666,-4.83333 z m -45.2667,2.86666 c -4.565,1.61591 -8.9378,3.61455 -13.1,5.96667 h 7.8667 c 1.8355,0 3.5813,0.3892 5.2,1.06667 v -6.06667 c 0,-0.32495 0.011,-0.6466 0.033,-0.96667 z m 87.4333,20.63334 v 13.33333 c 0,1.34446 -0.2592,2.62792 -0.6333,3.86667 h 13.4333 c -3.5245,-6.27844 -7.8289,-12.05889 -12.8,-17.2 z m -124.6666,5.86666 c -8.1505,10.16764 -13.9759,22.26192 -16.6333,35.5 1.5155,-0.58307 3.1375,-0.9 4.8333,-0.9 h 12.9 c 1.1282,-4.20203 2.6443,-8.24361 4.5333,-12.06666 -3.3909,-2.55209 -5.6333,-6.59305 -5.6333,-11.06667 z m -13.2333,80.36667 c 9.075,24.78567 29.6467,44.0784 55.2,51.43333 -2.5426,-6.75262 -3.9991,-13.39953 -4.7001,-19.86666 -13.745,-6.31435 -24.944,-17.16814 -31.6333,-30.7 -0.3473,-0.26383 -0.6964,-0.52905 -1.0333,-0.8 h -16.4 c -0.4821,0 -0.9625,-0.0162 -1.4333,-0.0667 z"
         style="color:#000000;font-style:normal;font-variant:normal;font-weight:normal;font-stretch:normal;font-size:medium;line-height:normal;font-family:Sans;-inkscape-font-specification:Sans;text-indent:0;text-align:start;text-decoration:none;text-decoration-line:none;letter-spacing:normal;word-spacing:normal;text-transform:none;writing-mode:lr-tb;direction:ltr;text-anchor:start;display:inline;overflow:visible;visibility:visible;fill:#808080;fill-opacity:1;stroke:none;stroke-width:19.11929131;marker:none;enable-background:accumulate" />
      <path
         inkscape:connector-curvature="0"
         id="path4296"
         d="m -1516.1068,-475.67046 c -2.9546,0 -5.3333,2.37866 -5.3333,5.33333 v 18.13333 c 0,2.95467 2.3787,5.33334 5.3333,5.33334 h 15.7334 c 2.7381,13.86933 1.5516,19.99484 -3.5667,34.7 -3.8395,-4.73691 -9.0695,-7.93663 -15.1,-10.3 -5.1821,-2.03085 -9.624,-4.97315 -11.3333,-8.6 0.3253,-0.69057 0.5333,-1.45004 0.5333,-2.26667 v -18.13333 c 0,-2.95467 -2.3787,-5.33334 -5.3333,-5.33334 h -18.1334 c -2.9546,0 -5.3333,2.37867 -5.3333,5.33334 v 18.13333 c 0,2.95467 2.3787,5.33333 5.3333,5.33333 h 18.1334 c 1.4607,0 2.772,-0.58846 3.7333,-1.53333 1.0282,4.87683 4.9233,7.92967 11.3333,11.13333 5.7879,2.89272 10.3281,9.72886 12.5667,16.36667 -1.1288,3.17941 -2.3149,6.55995 -3.6666,10.5 -2.5343,7.56981 -5.7297,16.34396 -8,25.96667 -2.5491,-1.47494 -5.3121,-2.49681 -8.2,-3.03334 -1.233,-0.8145 -2.148,-1.57347 -2.8,-2.5 -2.0383,-2.89606 -0.6253,-8.48009 -1.2667,-12.43333 h 7.0667 c 2.9546,0 5.3333,-2.37867 5.3333,-5.33333 v -18.13334 c 0,-2.95466 -2.3787,-5.33333 -5.3333,-5.33333 h -18.1001 c -2.9546,0 -5.3333,2.37867 -5.3333,5.33333 v 18.13334 c 0,2.95466 2.3787,5.33333 5.3333,5.33333 h 9.7334 c -0.1704,4.15564 -3.2599,10.55246 -0.6,14.33333 0.021,0.0309 0.045,0.0689 0.066,0.0999 -0.1796,8.4e-4 -0.3532,-0.003 -0.5333,0 -10.8271,0.21628 -16.9395,-1.46601 -23.2,-5.36667 0.9448,-0.96133 1.5333,-2.30598 1.5333,-3.76666 v -18.1 c 0,-2.95467 -2.3787,-5.33334 -5.3333,-5.33334 h -18.1334 c -2.9546,0 -5.3333,2.37867 -5.3333,5.33334 v 18.1 c 0,2.95466 2.3787,5.33333 5.3333,5.33333 h 18.1334 c 0.3805,0 0.7756,-0.025 1.1333,-0.1 5.688,5.47967 13.691,9.62142 24.9333,11.1 7.0663,0.92935 11.2414,2.38446 13.9334,4.43334 -2.353,14.42928 -1.9057,30.44384 6,47.1 1.3447,0.20347 2.6683,0.46138 4.0333,0.6 2.8104,0.2854 5.6476,0.43333 8.5334,0.43333 2.8856,0 5.7562,-0.14793 8.5666,-0.43333 1.0273,-0.10432 4.1507,-0.62549 5.1667,-0.76667 -13.6668,-23.86043 -15.7396,-45.22686 -11.5333,-65.5 1.5316,-1.52794 3.3401,-2.6731 5.4333,-3.63333 4.9985,-2.29309 12.8384,-3.90721 18.6666,-4.43334 11.4521,-0.88328 23.3071,-4.46626 25.8334,-13.5 0.9551,0.90602 2.2735,1.46667 3.7,1.46667 h 18.1 c 2.9547,0 5.3333,-2.37867 5.3333,-5.33333 v -18.13334 c 0,-2.95466 -2.3786,-5.33333 -5.3333,-5.33333 h -18.1 c -2.9547,0 -5.3334,2.37867 -5.3334,5.33333 v 18.13334 c 0,0.52971 0.091,1.01769 0.2334,1.5 -1.3405,6.21931 -9.2185,7.72461 -16.4,8.26666 2.2923,-2.52053 3.5039,-5.00117 4.7666,-7.7 2.4922,-5.32641 1.2785,-12.14442 0.7334,-15.3 -1.3003,-4.18985 -2.1804,-11.03831 -1.2,-17.3 h 7.2666 c 2.9547,0 5.3334,-2.37866 5.3334,-5.33333 v -18.13333 c 0,-2.95467 -2.3787,-5.33334 -5.3334,-5.33334 h -18.1333 c -2.9547,0 -5.3333,2.37867 -5.3333,5.33334 v 18.13333 c 0,2.95467 2.3786,5.33333 5.3333,5.33333 h 9.2334 c -2.0745,5.35033 -1.8363,11.55957 -0.7001,17.9 0.4779,2.76583 -0.1432,8.39373 -2.0333,12.43334 -1.7733,3.79012 -3.7177,6.29053 -12.1333,10.73333 -5.1487,0.36973 -11.3942,0.84951 -16.7333,2.93333 8.972,-28.93704 4.2712,-47.9363 0.2999,-59.06666 2.2605,-0.61901 3.9334,-2.67112 3.9334,-5.13334 v -18.13333 c 0,-2.95467 -2.3787,-5.33333 -5.3334,-5.33333 h -18.1333 z"
         style="color:#000000;font-style:normal;font-variant:normal;font-weight:normal;font-stretch:normal;font-size:medium;line-height:normal;font-family:Sans;-inkscape-font-specification:Sans;text-indent:0;text-align:start;text-decoration:none;text-decoration-line:none;letter-spacing:normal;word-spacing:normal;text-transform:none;writing-mode:lr-tb;direction:ltr;text-anchor:start;display:inline;overflow:visible;visibility:visible;fill:#000000;fill-opacity:1;stroke:none;stroke-width:4.26666689;marker:none;enable-background:accumulate" />
      <text
         transform="scale(0.99591644,1.0041003)"
         xml:space="preserve"
         style="font-style:normal;font-variant:normal;font-weight:normal;font-stretch:normal;font-size:72.24536896px;line-height:125%;font-family:'Arial Rounded MT Bold';-inkscape-font-specification:'Arial Rounded MT Bold,';text-align:start;letter-spacing:0;word-spacing:0;writing-mode:lr-tb;text-anchor:start;fill:#000000;stroke:none;stroke-width:1.06666672"
         x="-1492.1542"
         y="-320.66043"
         id="text4298"><tspan
           sodipodi:role="line"
           id="tspan4300"
           x="-1492.1542"
           y="-320.66043"
           style="stroke-width:1.06666672"><tspan
   id="tspan4302"
   style="fill:#000000;stroke:none;stroke-width:1.06666672">W</tspan>in<tspan
   id="tspan4304"
   style="fill:#000000;stroke:none;stroke-width:1.06666672">D</tspan>ir<tspan
   id="tspan4306"
   style="fill:#000000;stroke:none;stroke-width:1.06666672">S</tspan>tat</tspan></text>
    </g>
    <g
       transform="matrix(0.63714179,0,0,0.63714179,1087.1621,427.30531)"
       id="g4238"
       style="fill:#000000">
      <path
         style="color:#000000;font-style:normal;font-variant:normal;font-weight:normal;font-stretch:normal;font-size:medium;line-height:normal;font-family:Sans;-inkscape-font-specification:Sans;text-indent:0;text-align:start;text-decoration:none;text-decoration-line:none;letter-spacing:normal;word-spacing:normal;text-transform:none;writing-mode:lr-tb;direction:ltr;text-anchor:start;display:inline;overflow:visible;visibility:visible;fill:#000000;fill-opacity:1;stroke:none;stroke-width:19.11929131;marker:none;enable-background:accumulate"
         d="m -1484.6734,-474.17046 c 0.3651,1.22488 0.5666,2.50572 0.5666,3.83333 v 5 c 2.5125,-2.44534 5.901,-4 9.6,-4 h 5 c -4.8362,-2.08235 -9.9126,-3.6954 -15.1666,-4.83333 z m -45.2667,2.86666 c -4.565,1.61591 -8.9378,3.61455 -13.1,5.96667 h 7.8667 c 1.8355,0 3.5813,0.3892 5.2,1.06667 v -6.06667 c 0,-0.32495 0.011,-0.6466 0.033,-0.96667 z m 87.4333,20.63334 v 13.33333 c 0,1.34446 -0.2592,2.62792 -0.6333,3.86667 h 13.4333 c -3.5245,-6.27844 -7.8289,-12.05889 -12.8,-17.2 z m -124.6666,5.86666 c -8.1505,10.16764 -13.9759,22.26192 -16.6333,35.5 1.5155,-0.58307 3.1375,-0.9 4.8333,-0.9 h 12.9 c 1.1282,-4.20203 2.6443,-8.24361 4.5333,-12.06666 -3.3909,-2.55209 -5.6333,-6.59305 -5.6333,-11.06667 z m -13.2333,80.36667 c 9.075,24.78567 29.6467,44.0784 55.2,51.43333 -2.5426,-6.75262 -3.9991,-13.39953 -4.7001,-19.86666 -13.745,-6.31435 -24.944,-17.16814 -31.6333,-30.7 -0.3473,-0.26383 -0.6964,-0.52905 -1.0333,-0.8 h -16.4 c -0.4821,0 -0.9625,-0.0162 -1.4333,-0.0667 z"
         id="path4240"
         inkscape:connector-curvature="0"
         sodipodi:nodetypes="cscsccccscsccscccccsccsccccccsc" />
      <path
         style="color:#000000;font-style:normal;font-variant:normal;font-weight:normal;font-stretch:normal;font-size:medium;line-height:normal;font-family:Sans;-inkscape-font-specification:Sans;text-indent:0;text-align:start;text-decoration:none;text-decoration-line:none;letter-spacing:normal;word-spacing:normal;text-transform:none;writing-mode:lr-tb;direction:ltr;text-anchor:start;display:inline;overflow:visible;visibility:visible;fill:#000000;fill-opacity:1;stroke:none;stroke-width:4.26666689;marker:none;enable-background:accumulate"
         d="m -1516.1068,-475.67046 c -2.9546,0 -5.3333,2.37866 -5.3333,5.33333 v 18.13333 c 0,2.95467 2.3787,5.33334 5.3333,5.33334 h 15.7334 c 2.7381,13.86933 1.5516,19.99484 -3.5667,34.7 -3.8395,-4.73691 -9.0695,-7.93663 -15.1,-10.3 -5.1821,-2.03085 -9.624,-4.97315 -11.3333,-8.6 0.3253,-0.69057 0.5333,-1.45004 0.5333,-2.26667 v -18.13333 c 0,-2.95467 -2.3787,-5.33334 -5.3333,-5.33334 h -18.1334 c -2.9546,0 -5.3333,2.37867 -5.3333,5.33334 v 18.13333 c 0,2.95467 2.3787,5.33333 5.3333,5.33333 h 18.1334 c 1.4607,0 2.772,-0.58846 3.7333,-1.53333 1.0282,4.87683 4.9233,7.92967 11.3333,11.13333 5.7879,2.89272 10.3281,9.72886 12.5667,16.36667 -1.1288,3.17941 -2.3149,6.55995 -3.6666,10.5 -2.5343,7.56981 -5.7297,16.34396 -8,25.96667 -2.5491,-1.47494 -5.3121,-2.49681 -8.2,-3.03334 -1.233,-0.8145 -2.148,-1.57347 -2.8,-2.5 -2.0383,-2.89606 -0.6253,-8.48009 -1.2667,-12.43333 h 7.0667 c 2.9546,0 5.3333,-2.37867 5.3333,-5.33333 v -18.13334 c 0,-2.95466 -2.3787,-5.33333 -5.3333,-5.33333 h -18.1001 c -2.9546,0 -5.3333,2.37867 -5.3333,5.33333 v 18.13334 c 0,2.95466 2.3787,5.33333 5.3333,5.33333 h 9.7334 c -0.1704,4.15564 -3.2599,10.55246 -0.6,14.33333 0.021,0.0309 0.045,0.0689 0.066,0.0999 -0.1796,8.4e-4 -0.3532,-0.003 -0.5333,0 -10.8271,0.21628 -16.9395,-1.46601 -23.2,-5.36667 0.9448,-0.96133 1.5333,-2.30598 1.5333,-3.76666 v -18.1 c 0,-2.95467 -2.3787,-5.33334 -5.3333,-5.33334 h -18.1334 c -2.9546,0 -5.3333,2.37867 -5.3333,5.33334 v 18.1 c 0,2.95466 2.3787,5.33333 5.3333,5.33333 h 18.1334 c 0.3805,0 0.7756,-0.025 1.1333,-0.1 5.688,5.47967 13.691,9.62142 24.9333,11.1 7.0663,0.92935 11.2414,2.38446 13.9334,4.43334 -2.353,14.42928 -1.9057,30.44384 6,47.1 1.3447,0.20347 2.6683,0.46138 4.0333,0.6 2.8104,0.2854 5.6476,0.43333 8.5334,0.43333 2.8856,0 5.7562,-0.14793 8.5666,-0.43333 1.0273,-0.10432 4.1507,-0.62549 5.1667,-0.76667 -13.6668,-23.86043 -15.7396,-45.22686 -11.5333,-65.5 1.5316,-1.52794 3.3401,-2.6731 5.4333,-3.63333 4.9985,-2.29309 12.8384,-3.90721 18.6666,-4.43334 11.4521,-0.88328 23.3071,-4.46626 25.8334,-13.5 0.9551,0.90602 2.2735,1.46667 3.7,1.46667 h 18.1 c 2.9547,0 5.3333,-2.37867 5.3333,-5.33333 v -18.13334 c 0,-2.95466 -2.3786,-5.33333 -5.3333,-5.33333 h -18.1 c -2.9547,0 -5.3334,2.37867 -5.3334,5.33333 v 18.13334 c 0,0.52971 0.091,1.01769 0.2334,1.5 -1.3405,6.21931 -9.2185,7.72461 -16.4,8.26666 2.2923,-2.52053 3.5039,-5.00117 4.7666,-7.7 2.4922,-5.32641 1.2785,-12.14442 0.7334,-15.3 -1.3003,-4.18985 -2.1804,-11.03831 -1.2,-17.3 h 7.2666 c 2.9547,0 5.3334,-2.37866 5.3334,-5.33333 v -18.13333 c 0,-2.95467 -2.3787,-5.33334 -5.3334,-5.33334 h -18.1333 c -2.9547,0 -5.3333,2.37867 -5.3333,5.33334 v 18.13333 c 0,2.95467 2.3786,5.33333 5.3333,5.33333 h 9.2334 c -2.0745,5.35033 -1.8363,11.55957 -0.7001,17.9 0.4779,2.76583 -0.1432,8.39373 -2.0333,12.43334 -1.7733,3.79012 -3.7177,6.29053 -12.1333,10.73333 -5.1487,0.36973 -11.3942,0.84951 -16.7333,2.93333 8.972,-28.93704 4.2712,-47.9363 0.2999,-59.06666 2.2605,-0.61901 3.9334,-2.67112 3.9334,-5.13334 v -18.13333 c 0,-2.95467 -2.3787,-5.33333 -5.3334,-5.33333 h -18.1333 z"
         id="path4242"
         inkscape:connector-curvature="0" />
      <text
         id="text4244"
         y="-320.66043"
         x="-1492.1542"
         style="font-style:normal;font-variant:normal;font-weight:normal;font-stretch:normal;font-size:72.24536896px;line-height:125%;font-family:'Arial Rounded MT Bold';-inkscape-font-specification:'Arial Rounded MT Bold,';text-align:start;letter-spacing:0;word-spacing:0;writing-mode:lr-tb;text-anchor:start;fill:#000000;stroke:none;stroke-width:1.06666672"
         xml:space="preserve"
         transform="scale(0.99591644,1.0041003)"><tspan
           y="-320.66043"
           x="-1492.1542"
           id="tspan4246"
           sodipodi:role="line"
           style="stroke-width:1.06666672"><tspan
   style="fill:#000000;stroke:none;stroke-width:1.06666672"
   id="tspan4248">W</tspan>in<tspan
   style="fill:#000000;stroke:none;stroke-width:1.06666672"
   id="tspan4250">D</tspan>ir<tspan
   style="fill:#000000;stroke:none;stroke-width:1.06666672"
   id="tspan4252">S</tspan>tat</tspan></text>
    </g>
    <g
       id="g4271"
       transform="matrix(0.63714179,0,0,0.63714179,1086.7596,437.03967)"
       style="fill:#ffffff">
      <path
         sodipodi:nodetypes="cscsccccscsccscccccsccsccccccsc"
         inkscape:connector-curvature="0"
         id="path4273"
         d="m -1486.1153,-203.34727 c 0.3651,1.22488 0.5666,2.50572 0.5666,3.83333 v 5 c 2.5124,-2.44535 5.9011,-4 9.6,-4 h 5 c -4.8363,-2.08235 -9.9126,-3.6954 -15.1666,-4.83333 z m -45.2667,2.86666 c -4.565,1.61591 -8.9377,3.61455 -13.1,5.96667 h 7.8666 c 1.8357,0 3.5814,0.3892 5.2,1.06667 v -6.06667 c 0,-0.32495 0.011,-0.6466 0.033,-0.96667 z m 87.4333,20.63334 v 13.33333 c 0,1.34446 -0.2592,2.62792 -0.6333,3.86667 h 13.4333 c -3.5245,-6.27844 -7.8289,-12.0589 -12.8,-17.2 z m -124.6667,5.86666 c -8.1505,10.16764 -13.9759,22.26192 -16.6332,35.5 1.5155,-0.58307 3.1375,-0.9 4.8332,-0.9 h 12.9001 c 1.1282,-4.20204 2.6444,-8.24361 4.5333,-12.06666 -3.3909,-2.55209 -5.6334,-6.59305 -5.6334,-11.06667 z m -13.2332,80.366669 c 9.0751,24.785674 29.6468,44.0784 55.2,51.433333 -2.5427,-6.752619 -3.999,-13.399531 -4.7001,-19.866667 -13.7451,-6.314346 -24.944,-17.168138 -31.6333,-30.7 -0.3473,-0.263829 -0.6964,-0.529045 -1.0334,-0.8 h -16.4 c -0.482,0 -0.9624,-0.01621 -1.4332,-0.06667 z"
         style="color:#000000;font-style:normal;font-variant:normal;font-weight:normal;font-stretch:normal;font-size:medium;line-height:normal;font-family:Sans;-inkscape-font-specification:Sans;text-indent:0;text-align:start;text-decoration:none;text-decoration-line:none;letter-spacing:normal;word-spacing:normal;text-transform:none;writing-mode:lr-tb;direction:ltr;text-anchor:start;display:inline;overflow:visible;visibility:visible;fill:#ffffff;fill-opacity:1;stroke:none;stroke-width:19.11929131;marker:none;enable-background:accumulate" />
      <path
         inkscape:connector-curvature="0"
         id="path4275"
         d="m -1517.5487,-204.84727 c -2.9547,0 -5.3333,2.37866 -5.3333,5.33333 v 18.13333 c 0,2.95467 2.3786,5.33334 5.3333,5.33334 h 15.7333 c 2.7382,13.86933 1.5518,19.99484 -3.5666,34.7 -3.8395,-4.73691 -9.0694,-7.93663 -15.1,-10.3 -5.182,-2.03085 -9.624,-4.97315 -11.3334,-8.6 0.3255,-0.69058 0.5334,-1.45004 0.5334,-2.26667 v -18.13333 c 0,-2.95467 -2.3787,-5.33334 -5.3334,-5.33334 h -18.1333 c -2.9547,0 -5.3333,2.37867 -5.3333,5.33334 v 18.13333 c 0,2.95467 2.3786,5.33333 5.3333,5.33333 h 18.1333 c 1.4607,0 2.7721,-0.58846 3.7334,-1.53333 1.0281,4.87683 4.9233,7.92967 11.3333,11.13333 5.788,2.89272 10.3282,9.72886 12.5667,16.36667 -1.1288,3.17941 -2.315,6.55995 -3.6666,10.5 -2.5342,7.56981 -5.7297,16.34396 -8,25.966665 -2.5491,-1.474933 -5.312,-2.49681 -8.2,-3.033333 -1.2329,-0.814507 -2.148,-1.573472 -2.8,-2.500002 -2.0383,-2.89606 -0.6253,-8.48009 -1.2667,-12.43333 h 7.0667 c 2.9546,0 5.3333,-2.37867 5.3333,-5.33333 v -18.13334 c 0,-2.95466 -2.3787,-5.33333 -5.3333,-5.33333 h -18.1001 c -2.9547,0 -5.3333,2.37867 -5.3333,5.33333 v 18.13334 c 0,2.95466 2.3786,5.33333 5.3333,5.33333 h 9.7333 c -0.1702,4.15564 -3.2598,10.55246 -0.6,14.333332 0.021,0.03093 0.045,0.06891 0.066,0.09995 -0.1797,8.42e-4 -0.3532,-0.0032 -0.5334,0 -10.8271,0.216277 -16.9393,-1.466006 -23.2,-5.366672 0.945,-0.96133 1.5334,-2.30598 1.5334,-3.76666 v -18.1 c 0,-2.95467 -2.3787,-5.33334 -5.3334,-5.33334 h -18.1333 c -2.9547,0 -5.3333,2.37867 -5.3333,5.33334 v 18.1 c 0,2.95466 2.3786,5.33333 5.3333,5.33333 h 18.1333 c 0.3807,0 0.7757,-0.025 1.1334,-0.1 5.688,5.479674 13.6911,9.621424 24.9333,11.100005 7.0664,0.929344 11.2414,2.384459 13.9333,4.433333 -2.3528,14.42928 -1.9056,30.44384 6,47.1 1.3448,0.203478 2.6685,0.461387 4.0334,0.6 2.8104,0.285408 5.6476,0.433334 8.5334,0.433334 2.8856,0 5.7562,-0.147926 8.5666,-0.433334 1.0273,-0.10432 4.1507,-0.625482 5.1667,-0.766666 -13.6668,-23.860427 -15.7395,-45.226859 -11.5333,-65.500002 1.5317,-1.52794 3.3401,-2.6731 5.4332,-3.63333 4.9987,-2.29309 12.8385,-3.90722 18.6667,-4.43334 11.4521,-0.88328 23.3072,-4.46626 25.8334,-13.5 0.9551,0.90602 2.2735,1.46667 3.6999,1.46667 h 18.1001 c 2.9547,0 5.3333,-2.37867 5.3333,-5.33333 v -18.13334 c 0,-2.95466 -2.3786,-5.33333 -5.3333,-5.33333 h -18.1001 c -2.9546,0 -5.3333,2.37867 -5.3333,5.33333 v 18.13334 c 0,0.52971 0.091,1.01769 0.2334,1.5 -1.3405,6.21931 -9.2186,7.72461 -16.4,8.26666 2.2924,-2.52053 3.5039,-5.00117 4.7666,-7.7 2.4922,-5.32641 1.2786,-12.14442 0.7333,-15.3 -1.3001,-4.18985 -2.1803,-11.03831 -1.2,-17.3 h 7.2667 c 2.9547,0 5.3333,-2.37866 5.3333,-5.33333 v -18.13333 c 0,-2.95467 -2.3786,-5.33334 -5.3333,-5.33334 h -18.1333 c -2.9547,0 -5.3334,2.37867 -5.3334,5.33334 v 18.13333 c 0,2.95467 2.3787,5.33333 5.3334,5.33333 h 9.2334 c -2.0744,5.35033 -1.8362,11.55956 -0.7001,17.9 0.4779,2.76583 -0.1432,8.39373 -2.0333,12.43334 -1.7733,3.79012 -3.7177,6.29053 -12.1333,10.73333 -5.1487,0.36973 -11.3942,0.84951 -16.7333,2.93333 8.9721,-28.93704 4.2713,-47.9363 0.2999,-59.06666 2.2606,-0.61901 3.9333,-2.67112 3.9333,-5.13334 v -18.13333 c 0,-2.95467 -2.3786,-5.33333 -5.3333,-5.33333 h -18.1333 z"
         style="color:#000000;font-style:normal;font-variant:normal;font-weight:normal;font-stretch:normal;font-size:medium;line-height:normal;font-family:Sans;-inkscape-font-specification:Sans;text-indent:0;text-align:start;text-decoration:none;text-decoration-line:none;letter-spacing:normal;word-spacing:normal;text-transform:none;writing-mode:lr-tb;direction:ltr;text-anchor:start;display:inline;overflow:visible;visibility:visible;fill:#ffffff;fill-opacity:1;stroke:none;stroke-width:4.26666689;marker:none;enable-background:accumulate" />
      <text
         transform="scale(0.99591644,1.0041003)"
         xml:space="preserve"
         style="font-style:normal;font-variant:normal;font-weight:normal;font-stretch:normal;font-size:72.24536896px;line-height:125%;font-family:'Arial Rounded MT Bold';-inkscape-font-specification:'Arial Rounded MT Bold,';text-align:start;letter-spacing:0;word-spacing:0;writing-mode:lr-tb;text-anchor:start;fill:#ffffff;stroke:none;stroke-width:1.06666672"
         x="-1493.6021"
         y="-50.943245"
         id="text4277"><tspan
           sodipodi:role="line"
           id="tspan4279"
           x="-1493.6021"
           y="-50.943245"
           style="stroke-width:1.06666672"><tspan
   id="tspan4281"
   style="fill:#ffffff;stroke:none;stroke-width:1.06666672">W</tspan>in<tspan
   id="tspan4283"
   style="fill:#ffffff;stroke:none;stroke-width:1.06666672">D</tspan>ir<tspan
   id="tspan4285"
   style="fill:#ffffff;stroke:none;stroke-width:1.06666672">S</tspan>tat</tspan></text>
    </g>
    <g
       id="g3396">
      <path
         inkscape:connector-curvature="0"
         id="path4330"
         d="m 304.89331,515.99744 c -1.88254,0 -3.39809,1.51554 -3.39809,3.39809 v 11.5535 c 0,1.88254 1.51555,3.3981 3.39809,3.3981 h 10.02436 c 1.74459,8.83672 0.98864,12.73955 -2.27243,22.10881 -2.44635,-3.01808 -5.77858,-5.05676 -9.62088,-6.56256 -3.30171,-1.29393 -6.13185,-3.1686 -7.22094,-5.47942 0.20729,-0.43999 0.33981,-0.92388 0.33981,-1.44419 v -11.5535 c 0,-1.88254 -1.51555,-3.39809 -3.39809,-3.39809 h -11.5535 c -1.88254,0 -3.39809,1.51555 -3.39809,3.39809 v 11.5535 c 0,1.88254 1.51555,3.39809 3.39809,3.39809 h 11.5535 c 0.93067,0 1.7662,-0.37493 2.37867,-0.97695 0.65508,3.10723 3.13684,5.05233 7.22094,7.09352 3.68767,1.84306 6.58047,6.19865 8.00678,10.42788 -0.71924,2.02574 -1.47498,4.17962 -2.33619,6.68999 -1.6147,4.82304 -3.65064,10.41342 -5.09713,16.54445 -1.62415,-0.93974 -3.38457,-1.59082 -5.22457,-1.93267 -0.78557,-0.51895 -1.36854,-1.00252 -1.78399,-1.59285 -1.29868,-1.84521 -0.3984,-5.40302 -0.80705,-7.9218 h 4.50247 c 1.88247,0 3.39809,-1.51555 3.39809,-3.39809 v -11.5535 c 0,-1.88254 -1.51562,-3.39809 -3.39809,-3.39809 h -11.5323 c -1.88254,0 -3.39809,1.51555 -3.39809,3.39809 v 11.5535 c 0,1.88254 1.51555,3.39809 3.39809,3.39809 h 6.20151 c -0.10853,2.64774 -2.07698,6.72342 -0.38228,9.13237 0.0136,0.0197 0.0286,0.0439 0.0421,0.0637 -0.11444,5.4e-4 -0.22502,-0.002 -0.3398,0 -6.89839,0.1378 -10.79282,-0.93405 -14.78169,-3.41933 0.60201,-0.6125 0.97695,-1.46924 0.97695,-2.39989 v -11.53227 c 0,-1.88255 -1.51555,-3.39809 -3.39809,-3.39809 h -11.55351 c -1.88253,0 -3.39809,1.51554 -3.39809,3.39809 v 11.53227 c 0,1.88253 1.51556,3.39808 3.39809,3.39808 h 11.55351 c 0.24248,0 0.49422,-0.0159 0.72209,-0.0637 3.62406,3.49132 8.7231,6.1302 15.88607,7.07227 4.5022,0.59213 7.16236,1.51925 8.87751,2.82466 -1.49916,9.19351 -1.2142,19.39705 3.82285,30.00938 0.85679,0.12964 1.70013,0.29397 2.56977,0.38229 1.79066,0.18185 3.59837,0.27609 5.43694,0.27609 1.83865,0 3.66756,-0.0942 5.45822,-0.27609 0.65454,-0.0665 2.6446,-0.39852 3.29186,-0.48848 -8.7076,-15.20247 -10.0283,-28.81592 -7.34836,-41.73279 0.97592,-0.97351 2.12822,-1.70313 3.46183,-2.31494 3.18476,-1.46102 8.17989,-2.48945 11.89331,-2.82466 7.29659,-0.56278 14.84994,-2.84564 16.45947,-8.60142 0.6086,0.57726 1.44861,0.93448 2.35746,0.93448 h 11.53223 c 1.88255,0 3.39809,-1.51555 3.39809,-3.3981 v -11.5535 c 0,-1.88254 -1.51554,-3.39809 -3.39809,-3.39809 h -11.53223 c -1.88255,0 -3.39809,1.51555 -3.39809,3.39809 v 11.5535 c 0,0.33751 0.0577,0.64842 0.14863,0.95572 -0.854,3.96259 -5.87346,4.92168 -10.44913,5.26704 1.46058,-1.60593 2.23256,-3.18646 3.03708,-4.906 1.5878,-3.39367 0.81459,-7.73772 0.46724,-9.74826 -0.82846,-2.66953 -1.38928,-7.03298 -0.76458,-11.02255 h 4.6299 c 1.88255,0 3.39809,-1.51556 3.39809,-3.39809 V 528.8677 c 0,-1.88254 -1.51554,-3.39809 -3.39809,-3.39809 h -11.5535 c -1.88254,0 -3.39809,1.51555 -3.39809,3.39809 v 11.55351 c 0,1.88253 1.51555,3.39809 3.39809,3.39809 h 5.88291 c -1.32165,3.40891 -1.1699,7.36507 -0.44596,11.40483 0.30447,1.76223 -0.0913,5.348 -1.29556,7.9218 -1.1298,2.41485 -2.36868,4.00797 -7.73065,6.83866 -3.28038,0.23556 -7.25968,0.54126 -10.66151,1.86895 5.71654,-18.43701 2.72146,-30.54222 0.19117,-37.63385 1.44025,-0.39439 2.5061,-1.70188 2.5061,-3.27066 v -11.5535 c 0,-1.88255 -1.51555,-3.39809 -3.3981,-3.39809 h -11.5535 z"
         style="color:#000000;font-style:normal;font-variant:normal;font-weight:normal;font-stretch:normal;font-size:medium;line-height:normal;font-family:Sans;-inkscape-font-specification:Sans;text-indent:0;text-align:start;text-decoration:none;text-decoration-line:none;letter-spacing:normal;word-spacing:normal;text-transform:none;writing-mode:lr-tb;direction:ltr;text-anchor:start;display:inline;overflow:visible;visibility:visible;fill:#000000;fill-opacity:1;stroke:none;stroke-width:4.26666689;marker:none;enable-background:accumulate" />
      <path
         inkscape:connector-curvature="0"
         style="color:#000000;font-style:normal;font-variant:normal;font-weight:normal;font-stretch:normal;font-size:medium;line-height:normal;font-family:Sans;-inkscape-font-specification:Sans;text-indent:0;text-align:start;text-decoration:none;text-decoration-line:none;letter-spacing:normal;word-spacing:normal;text-transform:none;writing-mode:lr-tb;direction:ltr;text-anchor:start;display:inline;overflow:visible;visibility:visible;fill:#808080;fill-opacity:1;stroke:none;stroke-width:19.11929131;marker:none;enable-background:accumulate"
         d="m 324.92084,516.95315 c 0.23263,0.78043 0.36102,1.5965 0.36102,2.44238 v 3.18571 c 1.60076,-1.55804 3.75977,-2.54857 6.11655,-2.54857 h 3.18571 c -3.08139,-1.32675 -6.31576,-2.35449 -9.66328,-3.07952 z m -28.84129,1.82648 c -2.90856,1.02955 -5.69465,2.30297 -8.34659,3.80161 h 5.01218 c 1.16949,0 2.28183,0.24798 3.31314,0.67961 v -3.86532 c 0,-0.20704 0.006,-0.41198 0.021,-0.6159 z m 55.70739,13.14635 v 8.49523 c 0,0.8566 -0.16514,1.67435 -0.40348,2.46361 h 8.55891 c -2.2456,-4.00025 -4.98813,-7.68322 -8.15543,-10.95884 z m -79.43033,3.7379 c -5.19304,6.47823 -8.90463,14.184 -10.59776,22.61853 0.9656,-0.3715 1.99903,-0.57343 3.07949,-0.57343 h 8.21915 c 0.71884,-2.67729 1.68478,-5.25235 2.88839,-7.68817 -2.16051,-1.62604 -3.58927,-4.2007 -3.58927,-7.05104 z m 94.31825,34.1508 c -1.57223,1.41552 -3.62997,2.29371 -5.8617,2.29371 h -5.16088 c -1.47762,18.60506 -14.93392,33.7392 -32.70662,37.69755 1.11661,2.81746 2.50759,5.70686 4.22641,8.70761 0.23155,0.40373 0.41273,0.84609 0.53092,1.29553 22.09166,-6.06945 38.47813,-26.1279 38.97187,-49.9944 z m -102.74973,17.05416 c 5.78205,15.79199 18.88916,28.08419 35.17023,32.77033 -1.62001,-4.30238 -2.54796,-8.5374 -2.9946,-12.65789 -8.75756,-4.02313 -15.89287,-10.93854 -20.15488,-19.56025 -0.22129,-0.16809 -0.4438,-0.33707 -0.65842,-0.50971 h -10.44912 c -0.30713,0 -0.61323,-0.0107 -0.91321,-0.0425 z"
         id="path4332" />
    </g>
    <g
       id="g4349"
       transform="translate(170.66667,10.666667)">
      <path
         style="color:#000000;font-style:normal;font-variant:normal;font-weight:normal;font-stretch:normal;font-size:medium;line-height:normal;font-family:Sans;-inkscape-font-specification:Sans;text-indent:0;text-align:start;text-decoration:none;text-decoration-line:none;letter-spacing:normal;word-spacing:normal;text-transform:none;writing-mode:lr-tb;direction:ltr;text-anchor:start;display:inline;overflow:visible;visibility:visible;fill:#ffffff;fill-opacity:1;stroke:none;stroke-width:4.26666689;marker:none;enable-background:accumulate"
         d="m 507.55998,505.33077 c -1.88254,0 -3.39809,1.51554 -3.39809,3.39809 v 11.55351 c 0,1.88254 1.51555,3.39809 3.39809,3.39809 h 10.02436 c 1.74459,8.83672 0.98864,12.73955 -2.27244,22.10881 -2.44634,-3.01808 -5.77858,-5.05676 -9.62087,-6.56256 -3.30172,-1.29393 -6.13185,-3.1686 -7.22094,-5.47941 0.20729,-0.43999 0.33981,-0.92389 0.33981,-1.4442 v -11.5535 c 0,-1.88254 -1.51555,-3.39809 -3.39809,-3.39809 H 483.8583 c -1.88253,0 -3.39809,1.51555 -3.39809,3.39809 v 11.5535 c 0,1.88254 1.51556,3.39809 3.39809,3.39809 h 11.55351 c 0.93066,0 1.7662,-0.37493 2.37866,-0.97694 0.65509,3.10723 3.13685,5.05233 7.22094,7.09351 3.68767,1.84306 6.58047,6.19866 8.00679,10.42788 -0.71925,2.02574 -1.47498,4.17962 -2.33619,6.69 -1.6147,4.82304 -3.65064,10.41342 -5.09714,16.54445 -1.62414,-0.93975 -3.38456,-1.59083 -5.22456,-1.93268 -0.78557,-0.51895 -1.36854,-1.00251 -1.78399,-1.59285 -1.29869,-1.84521 -0.3984,-5.40302 -0.80705,-7.92179 h 4.50246 c 1.88248,0 3.39809,-1.51555 3.39809,-3.39809 v -11.55351 c 0,-1.88254 -1.51561,-3.39809 -3.39809,-3.39809 h -11.5323 c -1.88253,0 -3.39809,1.51555 -3.39809,3.39809 v 11.55351 c 0,1.88254 1.51556,3.39809 3.39809,3.39809 h 6.20152 c -0.10853,2.64773 -2.07698,6.72341 -0.38228,9.13236 0.0135,0.0197 0.0286,0.0439 0.0421,0.0637 -0.11444,5.4e-4 -0.22502,-0.002 -0.33981,0 -6.89839,0.1378 -10.79281,-0.93405 -14.78168,-3.41933 0.602,-0.6125 0.97695,-1.46923 0.97695,-2.39989 v -11.53227 c 0,-1.88255 -1.51556,-3.39809 -3.39809,-3.39809 h -11.55351 c -1.88254,0 -3.39809,1.51554 -3.39809,3.39809 v 11.53227 c 0,1.88254 1.51555,3.39808 3.39809,3.39808 h 11.55351 c 0.24248,0 0.49421,-0.0159 0.72209,-0.0637 3.62406,3.49133 8.7231,6.13021 15.88607,7.07228 4.50219,0.59212 7.16235,1.51924 8.87751,2.82466 -1.49917,9.1935 -1.21421,19.39704 3.82285,30.00937 0.85679,0.12965 1.70013,0.29398 2.56977,0.3823 1.79065,0.18184 3.59837,0.27608 5.43694,0.27608 1.83864,0 3.66756,-0.0942 5.45822,-0.27608 0.65453,-0.0665 2.64459,-0.39853 3.29186,-0.48848 -8.70761,-15.20248 -10.0283,-28.81593 -7.34837,-41.73279 0.97593,-0.97352 2.12823,-1.70314 3.46184,-2.31495 3.18476,-1.46102 8.17988,-2.48945 11.89331,-2.82466 7.29659,-0.56278 14.84993,-2.84564 16.45947,-8.60142 0.6086,0.57726 1.44861,0.93448 2.35746,0.93448 h 11.53222 c 1.88255,0 3.39809,-1.51554 3.39809,-3.39809 v -11.55351 c 0,-1.88253 -1.51554,-3.39809 -3.39809,-3.39809 h -11.53222 c -1.88255,0 -3.39809,1.51556 -3.39809,3.39809 v 11.55351 c 0,0.3375 0.0577,0.64841 0.14863,0.95571 -0.85401,3.96259 -5.87346,4.92169 -10.44913,5.26704 1.46057,-1.60593 2.23255,-3.18645 3.03707,-4.90599 1.5878,-3.39368 0.8146,-7.73772 0.46725,-9.74827 -0.82846,-2.66953 -1.38928,-7.03297 -0.76458,-11.02255 h 4.6299 c 1.88255,0 3.39809,-1.51555 3.39809,-3.39809 v -11.55351 c 0,-1.88253 -1.51554,-3.39809 -3.39809,-3.39809 h -11.5535 c -1.88254,0 -3.39809,1.51556 -3.39809,3.39809 v 11.55351 c 0,1.88254 1.51555,3.39809 3.39809,3.39809 h 5.88291 c -1.32166,3.40892 -1.1699,7.36508 -0.44596,11.40483 0.30446,1.76223 -0.0913,5.348 -1.29557,7.9218 -1.12979,2.41485 -2.36867,4.00797 -7.73064,6.83866 -3.28039,0.23556 -7.25968,0.54126 -10.66152,1.86895 5.71655,-18.437 2.72146,-30.54222 0.19118,-37.63385 1.44025,-0.39439 2.50609,-1.70187 2.50609,-3.27065 v -11.55351 c 0,-1.88255 -1.51554,-3.39809 -3.39809,-3.39809 h -11.5535 z"
         id="path4337"
         inkscape:connector-curvature="0" />
      <path
         id="path4339"
         d="m 527.58751,506.28649 c 0.23263,0.78042 0.36101,1.5965 0.36101,2.44237 v 3.18571 c 1.60077,-1.55804 3.75978,-2.54856 6.11656,-2.54856 h 3.1857 c -3.08138,-1.32676 -6.31575,-2.3545 -9.66327,-3.07952 z m -28.84129,1.82647 c -2.90857,1.02956 -5.69466,2.30298 -8.34659,3.80161 h 5.01218 c 1.16949,0 2.28182,0.24798 3.31314,0.67962 v -3.86533 c 0,-0.20704 0.006,-0.41197 0.021,-0.6159 z m 55.70739,13.14636 v 8.49522 c 0,0.85661 -0.16514,1.67436 -0.40349,2.46361 h 8.55891 c -2.2456,-4.00025 -4.98812,-7.68322 -8.15542,-10.95883 z m -79.43034,3.7379 c -5.19303,6.47823 -8.90462,14.184 -10.59776,22.61852 0.9656,-0.37149 1.99903,-0.57343 3.07949,-0.57343 h 8.21916 c 0.71884,-2.67729 1.68478,-5.25235 2.88838,-7.68817 -2.16051,-1.62603 -3.58927,-4.2007 -3.58927,-7.05104 z m 94.31826,34.15079 c -1.57223,1.41552 -3.62998,2.29372 -5.8617,2.29372 h -5.16089 c -1.47762,18.60505 -14.93392,33.7392 -32.70661,37.69754 1.11661,2.81747 2.50758,5.70686 4.22641,8.70761 0.23154,0.40373 0.41273,0.84609 0.53091,1.29553 22.09166,-6.06945 38.47814,-26.12789 38.97188,-49.9944 z M 466.5918,576.20218 c 5.78205,15.79199 18.88916,28.08419 35.17023,32.77032 -1.62001,-4.30238 -2.54796,-8.5374 -2.99461,-12.65789 -8.75755,-4.02312 -15.89286,-10.93854 -20.15488,-19.56024 -0.22129,-0.1681 -0.44379,-0.33708 -0.65842,-0.50972 H 467.505 c -0.30712,0 -0.61322,-0.0107 -0.9132,-0.0425 z"
         style="color:#000000;font-style:normal;font-variant:normal;font-weight:normal;font-stretch:normal;font-size:medium;line-height:normal;font-family:Sans;-inkscape-font-specification:Sans;text-indent:0;text-align:start;text-decoration:none;text-decoration-line:none;letter-spacing:normal;word-spacing:normal;text-transform:none;writing-mode:lr-tb;direction:ltr;text-anchor:start;display:inline;overflow:visible;visibility:visible;fill:#808080;fill-opacity:1;stroke:none;stroke-width:19.11929131;marker:none;enable-background:accumulate"
         inkscape:connector-curvature="0" />
    </g>
    <g
       id="g4345"
       transform="translate(-180.26667,10.666667)">
      <path
         inkscape:connector-curvature="0"
         id="path4341"
         d="m 678.22665,505.33077 c -1.88254,0 -3.3981,1.51554 -3.3981,3.39809 v 11.55351 c 0,1.88254 1.51556,3.39809 3.3981,3.39809 h 10.02436 c 1.74458,8.83672 0.98864,12.73955 -2.27244,22.10881 -2.44635,-3.01808 -5.77858,-5.05676 -9.62087,-6.56256 -3.30172,-1.29393 -6.13185,-3.1686 -7.22094,-5.47941 0.20728,-0.43999 0.33981,-0.92389 0.33981,-1.4442 v -11.5535 c 0,-1.88254 -1.51556,-3.39809 -3.3981,-3.39809 h -11.5535 c -1.88254,0 -3.39809,1.51555 -3.39809,3.39809 v 11.5535 c 0,1.88254 1.51555,3.39809 3.39809,3.39809 h 11.5535 c 0.93067,0 1.7662,-0.37493 2.37867,-0.97694 0.65508,3.10723 3.13684,5.05233 7.22094,7.09351 3.68767,1.84306 6.58047,6.19866 8.00678,10.42788 -0.71924,2.02574 -1.47497,4.17962 -2.33619,6.69 -1.6147,4.82304 -3.65063,10.41342 -5.09713,16.54445 -1.62415,-0.93975 -3.38456,-1.59083 -5.22456,-1.93268 -0.78557,-0.51895 -1.36855,-1.00251 -1.78399,-1.59285 -1.29869,-1.84521 -0.3984,-5.40302 -0.80705,-7.92179 h 4.50246 c 1.88247,0 3.39809,-1.51555 3.39809,-3.39809 v -11.55351 c 0,-1.88254 -1.51562,-3.39809 -3.39809,-3.39809 h -11.5323 c -1.88254,0 -3.39809,1.51555 -3.39809,3.39809 v 11.55351 c 0,1.88254 1.51555,3.39809 3.39809,3.39809 h 6.20152 c -0.10854,2.64773 -2.07699,6.72341 -0.38229,9.13236 0.0136,0.0197 0.0286,0.0439 0.0421,0.0637 -0.11445,5.4e-4 -0.22503,-0.002 -0.33981,0 -6.89839,0.1378 -10.79281,-0.93405 -14.78169,-3.41933 0.60201,-0.6125 0.97695,-1.46923 0.97695,-2.39989 v -11.53227 c 0,-1.88255 -1.51555,-3.39809 -3.39809,-3.39809 h -11.5535 c -1.88254,0 -3.39809,1.51554 -3.39809,3.39809 v 11.53227 c 0,1.88254 1.51555,3.39808 3.39809,3.39808 h 11.5535 c 0.24249,0 0.49422,-0.0159 0.72209,-0.0637 3.62407,3.49133 8.72311,6.13021 15.88607,7.07228 4.5022,0.59212 7.16236,1.51924 8.87752,2.82466 -1.49917,9.1935 -1.21421,19.39704 3.82284,30.00937 0.85679,0.12965 1.70013,0.29398 2.56978,0.3823 1.79065,0.18184 3.59836,0.27608 5.43693,0.27608 1.83865,0 3.66757,-0.0942 5.45822,-0.27608 0.65454,-0.0665 2.6446,-0.39853 3.29186,-0.48848 -8.7076,-15.20248 -10.02829,-28.81593 -7.34836,-41.73279 0.97593,-0.97352 2.12823,-1.70314 3.46184,-2.31495 3.18475,-1.46102 8.17988,-2.48945 11.89331,-2.82466 7.29658,-0.56278 14.84993,-2.84564 16.45946,-8.60142 0.6086,0.57726 1.44861,0.93448 2.35747,0.93448 h 11.53222 c 1.88255,0 3.39809,-1.51554 3.39809,-3.39809 v -11.55351 c 0,-1.88253 -1.51554,-3.39809 -3.39809,-3.39809 h -11.53222 c -1.88255,0 -3.39809,1.51556 -3.39809,3.39809 v 11.55351 c 0,0.3375 0.0577,0.64841 0.14862,0.95571 -0.854,3.96259 -5.87346,4.92169 -10.44913,5.26704 1.46058,-1.60593 2.23256,-3.18645 3.03708,-4.90599 1.5878,-3.39368 0.81459,-7.73772 0.46724,-9.74827 -0.82845,-2.66953 -1.38928,-7.03297 -0.76457,-11.02255 h 4.6299 c 1.88255,0 3.39809,-1.51555 3.39809,-3.39809 v -11.55351 c 0,-1.88253 -1.51554,-3.39809 -3.39809,-3.39809 H 704.7314 c -1.88254,0 -3.39809,1.51556 -3.39809,3.39809 v 11.55351 c 0,1.88254 1.51555,3.39809 3.39809,3.39809 h 5.88291 c -1.32165,3.40892 -1.16989,7.36508 -0.44596,11.40483 0.30447,1.76223 -0.0913,5.348 -1.29556,7.9218 -1.12979,2.41485 -2.36867,4.00797 -7.73065,6.83866 -3.28038,0.23556 -7.25968,0.54126 -10.66151,1.86895 5.71654,-18.437 2.72146,-30.54222 0.19118,-37.63385 1.44024,-0.39439 2.50609,-1.70187 2.50609,-3.27065 v -11.55351 c 0,-1.88255 -1.51554,-3.39809 -3.39809,-3.39809 H 678.2263 Z"
         style="color:#000000;font-style:normal;font-variant:normal;font-weight:normal;font-stretch:normal;font-size:medium;line-height:normal;font-family:Sans;-inkscape-font-specification:Sans;text-indent:0;text-align:start;text-decoration:none;text-decoration-line:none;letter-spacing:normal;word-spacing:normal;text-transform:none;writing-mode:lr-tb;direction:ltr;text-anchor:start;display:inline;overflow:visible;visibility:visible;fill:#ffffff;fill-opacity:1;stroke:none;stroke-width:4.26666689;marker:none;enable-background:accumulate" />
      <path
         inkscape:connector-curvature="0"
         style="color:#000000;font-style:normal;font-variant:normal;font-weight:normal;font-stretch:normal;font-size:medium;line-height:normal;font-family:Sans;-inkscape-font-specification:Sans;text-indent:0;text-align:start;text-decoration:none;text-decoration-line:none;letter-spacing:normal;word-spacing:normal;text-transform:none;writing-mode:lr-tb;direction:ltr;text-anchor:start;display:inline;overflow:visible;visibility:visible;fill:#ffffff;fill-opacity:1;stroke:none;stroke-width:19.11929131;marker:none;enable-background:accumulate"
         d="m 698.25418,506.28649 c 0.23263,0.78042 0.36101,1.5965 0.36101,2.44237 v 3.18571 c 1.60077,-1.55804 3.75978,-2.54856 6.11655,-2.54856 h 3.18571 c -3.08139,-1.32676 -6.31575,-2.3545 -9.66327,-3.07952 z m -28.84129,1.82647 c -2.90857,1.02956 -5.69466,2.30298 -8.3466,3.80161 h 5.01218 c 1.1695,0 2.28183,0.24798 3.31315,0.67962 v -3.86533 c 0,-0.20704 0.006,-0.41197 0.021,-0.6159 z m 55.70739,13.14636 v 8.49522 c 0,0.85661 -0.16514,1.67436 -0.40349,2.46361 h 8.55891 c -2.2456,-4.00025 -4.98813,-7.68322 -8.15542,-10.95883 z m -79.43034,3.7379 c -5.19303,6.47823 -8.90463,14.184 -10.59776,22.61852 0.9656,-0.37149 1.99903,-0.57343 3.07949,-0.57343 h 8.21916 c 0.71883,-2.67729 1.68478,-5.25235 2.88838,-7.68817 -2.16051,-1.62603 -3.58927,-4.2007 -3.58927,-7.05104 z m 94.31825,34.15079 c -1.57222,1.41552 -3.62997,2.29372 -5.86169,2.29372 h -5.16089 c -1.47762,18.60505 -14.93392,33.7392 -32.70661,37.69754 1.11661,2.81747 2.50758,5.70686 4.22641,8.70761 0.23154,0.40373 0.41272,0.84609 0.53091,1.29553 22.09166,-6.06945 38.47813,-26.12789 38.97187,-49.9944 z m -102.74973,17.05417 c 5.78205,15.79199 18.88917,28.08419 35.17023,32.77032 -1.62001,-4.30238 -2.54795,-8.5374 -2.9946,-12.65789 -8.75756,-4.02312 -15.89286,-10.93854 -20.15488,-19.56024 -0.22129,-0.1681 -0.4438,-0.33708 -0.65842,-0.50972 h -10.44912 c -0.30713,0 -0.61323,-0.0107 -0.91321,-0.0425 z"
         id="path4343" />
    </g>
  </g>
</svg>
