<?xml version="1.0" encoding="UTF-8" standalone="no"?>
<!-- Created with Inkscape (http://www.inkscape.org/) -->

<svg
   xmlns:dc="http://purl.org/dc/elements/1.1/"
   xmlns:cc="http://creativecommons.org/ns#"
   xmlns:rdf="http://www.w3.org/1999/02/22-rdf-syntax-ns#"
   xmlns:svg="http://www.w3.org/2000/svg"
   xmlns="http://www.w3.org/2000/svg"
   xmlns:sodipodi="http://sodipodi.sourceforge.net/DTD/sodipodi-0.dtd"
   xmlns:inkscape="http://www.inkscape.org/namespaces/inkscape"
   width="27.843416mm"
   height="28.039988mm"
   viewBox="0 0 27.843416 28.039988"
   version="1.1"
   id="svg340"
   inkscape:version="0.92.0 r15299"
   sodipodi:docname="logo_black_for_dark_bg.svg">
  <defs
     id="defs334" />
  <sodipodi:namedview
     id="base"
     pagecolor="#ffffff"
     bordercolor="#666666"
     borderopacity="1.0"
     inkscape:pageopacity="0.0"
     inkscape:pageshadow="2"
     inkscape:zoom="0.35"
     inkscape:cx="98.331761"
     inkscape:cy="-189.86819"
     inkscape:document-units="mm"
     inkscape:current-layer="layer1"
     showgrid="false"
     inkscape:window-width="1920"
     inkscape:window-height="996"
     inkscape:window-x="1912"
     inkscape:window-y="-8"
     inkscape:window-maximized="1" />
  <metadata
     id="metadata337">
    <rdf:RDF>
      <cc:Work
         rdf:about="">
        <dc:format>image/svg+xml</dc:format>
        <dc:type
           rdf:resource="http://purl.org/dc/dcmitype/StillImage" />
        <dc:title></dc:title>
      </cc:Work>
    </rdf:RDF>
  </metadata>
  <g
     inkscape:label="Layer 1"
     inkscape:groupmode="layer"
     id="layer1"
     transform="translate(-79.816388,-70.557387)">
    <g
       transform="matrix(0.26458333,0,0,0.26458333,58.621525,-65.966934)"
       id="g3392">
      <path
         style="color:#000000;font-style:normal;font-variant:normal;font-weight:normal;font-stretch:normal;font-size:medium;line-height:normal;font-family:Sans;-inkscape-font-specification:Sans;text-indent:0;text-align:start;text-decoration:none;text-decoration-line:none;letter-spacing:normal;word-spacing:normal;text-transform:none;writing-mode:lr-tb;direction:ltr;text-anchor:start;display:inline;overflow:visible;visibility:visible;fill:#000000;fill-opacity:1;stroke:none;stroke-width:4.26666689;marker:none;enable-background:accumulate"
         d="m 123.55998,515.99744 c -1.88254,0 -3.39809,1.51554 -3.39809,3.39809 v 11.5535 c 0,1.88254 1.51555,3.3981 3.39809,3.3981 h 10.02436 c 1.74459,8.83672 0.98864,12.73955 -2.27244,22.10881 -2.44634,-3.01808 -5.77858,-5.05676 -9.62087,-6.56256 -3.30172,-1.29393 -6.13185,-3.1686 -7.22094,-5.47942 0.20729,-0.43999 0.33981,-0.92388 0.33981,-1.44419 v -11.5535 c 0,-1.88254 -1.51555,-3.39809 -3.39809,-3.39809 H 99.858304 c -1.882539,0 -3.398091,1.51555 -3.398091,3.39809 v 11.5535 c 0,1.88254 1.515552,3.39809 3.398091,3.39809 h 11.553506 c 0.93066,0 1.7662,-0.37493 2.37866,-0.97695 0.65509,3.10723 3.13685,5.05233 7.22094,7.09352 3.68767,1.84306 6.58047,6.19865 8.00679,10.42788 -0.71925,2.02574 -1.47498,4.17962 -2.33619,6.68999 -1.6147,4.82304 -3.65064,10.41342 -5.09714,16.54445 -1.62414,-0.93974 -3.38456,-1.59082 -5.22456,-1.93267 -0.78557,-0.51895 -1.36854,-1.00252 -1.78399,-1.59285 -1.29869,-1.84521 -0.3984,-5.40302 -0.80705,-7.9218 h 4.50246 c 1.88248,0 3.39809,-1.51555 3.39809,-3.39809 v -11.5535 c 0,-1.88254 -1.51561,-3.39809 -3.39809,-3.39809 h -11.5323 c -1.88253,0 -3.39809,1.51555 -3.39809,3.39809 v 11.5535 c 0,1.88254 1.51556,3.39809 3.39809,3.39809 h 6.20152 c -0.10853,2.64774 -2.07698,6.72342 -0.38228,9.13237 0.0135,0.0197 0.0286,0.0439 0.0421,0.0637 -0.11444,5.4e-4 -0.22502,-0.002 -0.33981,0 -6.89839,0.1378 -10.79281,-0.93405 -14.781683,-3.41933 0.602005,-0.6125 0.976949,-1.46924 0.976949,-2.39989 v -11.53227 c 0,-1.88255 -1.515552,-3.39809 -3.398091,-3.39809 H 83.50466 c -1.882542,0 -3.398089,1.51554 -3.398089,3.39809 v 11.53227 c 0,1.88253 1.515547,3.39808 3.398089,3.39808 h 11.553505 c 0.242486,0 0.494219,-0.0159 0.722091,-0.0637 3.624064,3.49132 8.723104,6.1302 15.886074,7.07227 4.50219,0.59213 7.16235,1.51925 8.87751,2.82466 -1.49917,9.19351 -1.21421,19.39705 3.82285,30.00938 0.85679,0.12964 1.70013,0.29397 2.56977,0.38229 1.79065,0.18185 3.59837,0.27609 5.43694,0.27609 1.83864,0 3.66756,-0.0942 5.45822,-0.27609 0.65453,-0.0665 2.64459,-0.39852 3.29186,-0.48848 -8.70761,-15.20247 -10.0283,-28.81592 -7.34837,-41.73279 0.97593,-0.97351 2.12823,-1.70313 3.46184,-2.31494 3.18476,-1.46102 8.17988,-2.48945 11.89331,-2.82466 7.29659,-0.56278 14.84993,-2.84564 16.45947,-8.60142 0.6086,0.57726 1.44861,0.93448 2.35746,0.93448 h 11.53222 c 1.88255,0 3.39809,-1.51555 3.39809,-3.3981 v -11.5535 c 0,-1.88254 -1.51554,-3.39809 -3.39809,-3.39809 h -11.53222 c -1.88255,0 -3.39809,1.51555 -3.39809,3.39809 v 11.5535 c 0,0.33751 0.0577,0.64842 0.14863,0.95572 -0.85401,3.96259 -5.87346,4.92168 -10.44913,5.26704 1.46057,-1.60593 2.23255,-3.18646 3.03707,-4.906 1.5878,-3.39367 0.8146,-7.73772 0.46725,-9.74826 -0.82846,-2.66953 -1.38928,-7.03298 -0.76458,-11.02255 h 4.6299 c 1.88255,0 3.39809,-1.51556 3.39809,-3.39809 V 528.8677 c 0,-1.88254 -1.51554,-3.39809 -3.39809,-3.39809 h -11.5535 c -1.88254,0 -3.39809,1.51555 -3.39809,3.39809 v 11.55351 c 0,1.88253 1.51555,3.39809 3.39809,3.39809 h 5.88291 c -1.32166,3.40891 -1.1699,7.36507 -0.44596,11.40483 0.30446,1.76223 -0.0913,5.348 -1.29557,7.9218 -1.12979,2.41485 -2.36867,4.00797 -7.73064,6.83866 -3.28039,0.23556 -7.25968,0.54126 -10.66152,1.86895 5.71655,-18.43701 2.72146,-30.54222 0.19118,-37.63385 1.44025,-0.39439 2.50609,-1.70188 2.50609,-3.27066 v -11.5535 c 0,-1.88255 -1.51554,-3.39809 -3.39809,-3.39809 h -11.5535 z"
         id="path4623"
         inkscape:connector-curvature="0" />
      <path
         id="path4627"
         d="m 143.58751,516.95315 c 0.23263,0.78043 0.36101,1.5965 0.36101,2.44238 v 3.18571 c 1.60077,-1.55804 3.75978,-2.54857 6.11656,-2.54857 h 3.1857 c -3.08138,-1.32675 -6.31575,-2.35449 -9.66327,-3.07952 z m -28.84129,1.82648 c -2.90857,1.02955 -5.69466,2.30297 -8.34659,3.80161 h 5.01218 c 1.16949,0 2.28182,0.24798 3.31314,0.67961 v -3.86532 c 0,-0.20704 0.006,-0.41198 0.021,-0.6159 z m 55.70739,13.14635 v 8.49523 c 0,0.8566 -0.16514,1.67435 -0.40349,2.46361 h 8.55891 c -2.2456,-4.00025 -4.98812,-7.68322 -8.15542,-10.95884 z m -79.430335,3.7379 c -5.193035,6.47823 -8.904628,14.184 -10.59776,22.61853 0.965601,-0.3715 1.999028,-0.57343 3.079484,-0.57343 h 8.219161 c 0.718837,-2.67729 1.684779,-5.25235 2.888384,-7.68817 -2.160512,-1.62604 -3.589269,-4.2007 -3.589269,-7.05104 z m 94.318255,34.1508 c -1.57223,1.41552 -3.62998,2.29371 -5.8617,2.29371 h -5.16089 c -1.47762,18.60506 -14.93392,33.7392 -32.70661,37.69755 1.11661,2.81746 2.50758,5.70686 4.22641,8.70761 0.23154,0.40373 0.41273,0.84609 0.53091,1.29553 22.09166,-6.06945 38.47814,-26.1279 38.97188,-49.9944 z M 82.591797,586.86884 c 5.782048,15.79199 18.889163,28.08419 35.170233,32.77033 -1.62001,-4.30238 -2.54796,-8.5374 -2.99461,-12.65789 -8.75755,-4.02313 -15.89286,-10.93854 -20.154876,-19.56025 -0.221291,-0.16809 -0.443797,-0.33707 -0.658421,-0.50971 H 83.504999 c -0.307118,0 -0.613219,-0.0107 -0.913202,-0.0425 z"
         style="color:#000000;font-style:normal;font-variant:normal;font-weight:normal;font-stretch:normal;font-size:medium;line-height:normal;font-family:Sans;-inkscape-font-specification:Sans;text-indent:0;text-align:start;text-decoration:none;text-decoration-line:none;letter-spacing:normal;word-spacing:normal;text-transform:none;writing-mode:lr-tb;direction:ltr;text-anchor:start;display:inline;overflow:visible;visibility:visible;fill:#000000;fill-opacity:1;stroke:none;stroke-width:19.11929131;marker:none;enable-background:accumulate"
         inkscape:connector-curvature="0" />
    </g>
  </g>
</svg>
