<?xml version="1.0" encoding="UTF-8" standalone="no"?>
<!-- Created with Inkscape (http://www.inkscape.org/) -->

<svg
   xmlns:dc="http://purl.org/dc/elements/1.1/"
   xmlns:cc="http://creativecommons.org/ns#"
   xmlns:rdf="http://www.w3.org/1999/02/22-rdf-syntax-ns#"
   xmlns:svg="http://www.w3.org/2000/svg"
   xmlns="http://www.w3.org/2000/svg"
   xmlns:sodipodi="http://sodipodi.sourceforge.net/DTD/sodipodi-0.dtd"
   xmlns:inkscape="http://www.inkscape.org/namespaces/inkscape"
   width="27.843424mm"
   height="28.039988mm"
   viewBox="0 0 27.843424 28.039988"
   version="1.1"
   id="svg427"
   inkscape:version="0.92.0 r15299"
   sodipodi:docname="logo_gray_for_dark_bg.svg">
  <defs
     id="defs421" />
  <sodipodi:namedview
     id="base"
     pagecolor="#ffffff"
     bordercolor="#666666"
     borderopacity="1.0"
     inkscape:pageopacity="0.0"
     inkscape:pageshadow="2"
     inkscape:zoom="0.35"
     inkscape:cx="89.760338"
     inkscape:cy="15.846097"
     inkscape:document-units="mm"
     inkscape:current-layer="layer1"
     showgrid="false"
     inkscape:window-width="1920"
     inkscape:window-height="996"
     inkscape:window-x="1912"
     inkscape:window-y="-8"
     inkscape:window-maximized="1" />
  <metadata
     id="metadata424">
    <rdf:RDF>
      <cc:Work
         rdf:about="">
        <dc:format>image/svg+xml</dc:format>
        <dc:type
           rdf:resource="http://purl.org/dc/dcmitype/StillImage" />
        <dc:title></dc:title>
      </cc:Work>
    </rdf:RDF>
  </metadata>
  <g
     inkscape:label="Layer 1"
     inkscape:groupmode="layer"
     id="layer1"
     transform="translate(-82.084244,-124.98596)">
    <g
       id="g4349"
       transform="matrix(0.26458333,0,0,0.26458333,-40.71061,-8.7161397)">
      <path
         style="color:#000000;font-style:normal;font-variant:normal;font-weight:normal;font-stretch:normal;font-size:medium;line-height:normal;font-family:Sans;-inkscape-font-specification:Sans;text-indent:0;text-align:start;text-decoration:none;text-decoration-line:none;letter-spacing:normal;word-spacing:normal;text-transform:none;writing-mode:lr-tb;direction:ltr;text-anchor:start;display:inline;overflow:visible;visibility:visible;fill:#ffffff;fill-opacity:1;stroke:none;stroke-width:4.26666689;marker:none;enable-background:accumulate"
         d="m 507.55998,505.33077 c -1.88254,0 -3.39809,1.51554 -3.39809,3.39809 v 11.55351 c 0,1.88254 1.51555,3.39809 3.39809,3.39809 h 10.02436 c 1.74459,8.83672 0.98864,12.73955 -2.27244,22.10881 -2.44634,-3.01808 -5.77858,-5.05676 -9.62087,-6.56256 -3.30172,-1.29393 -6.13185,-3.1686 -7.22094,-5.47941 0.20729,-0.43999 0.33981,-0.92389 0.33981,-1.4442 v -11.5535 c 0,-1.88254 -1.51555,-3.39809 -3.39809,-3.39809 H 483.8583 c -1.88253,0 -3.39809,1.51555 -3.39809,3.39809 v 11.5535 c 0,1.88254 1.51556,3.39809 3.39809,3.39809 h 11.55351 c 0.93066,0 1.7662,-0.37493 2.37866,-0.97694 0.65509,3.10723 3.13685,5.05233 7.22094,7.09351 3.68767,1.84306 6.58047,6.19866 8.00679,10.42788 -0.71925,2.02574 -1.47498,4.17962 -2.33619,6.69 -1.6147,4.82304 -3.65064,10.41342 -5.09714,16.54445 -1.62414,-0.93975 -3.38456,-1.59083 -5.22456,-1.93268 -0.78557,-0.51895 -1.36854,-1.00251 -1.78399,-1.59285 -1.29869,-1.84521 -0.3984,-5.40302 -0.80705,-7.92179 h 4.50246 c 1.88248,0 3.39809,-1.51555 3.39809,-3.39809 v -11.55351 c 0,-1.88254 -1.51561,-3.39809 -3.39809,-3.39809 h -11.5323 c -1.88253,0 -3.39809,1.51555 -3.39809,3.39809 v 11.55351 c 0,1.88254 1.51556,3.39809 3.39809,3.39809 h 6.20152 c -0.10853,2.64773 -2.07698,6.72341 -0.38228,9.13236 0.0135,0.0197 0.0286,0.0439 0.0421,0.0637 -0.11444,5.4e-4 -0.22502,-0.002 -0.33981,0 -6.89839,0.1378 -10.79281,-0.93405 -14.78168,-3.41933 0.602,-0.6125 0.97695,-1.46923 0.97695,-2.39989 v -11.53227 c 0,-1.88255 -1.51556,-3.39809 -3.39809,-3.39809 h -11.55351 c -1.88254,0 -3.39809,1.51554 -3.39809,3.39809 v 11.53227 c 0,1.88254 1.51555,3.39808 3.39809,3.39808 h 11.55351 c 0.24248,0 0.49421,-0.0159 0.72209,-0.0637 3.62406,3.49133 8.7231,6.13021 15.88607,7.07228 4.50219,0.59212 7.16235,1.51924 8.87751,2.82466 -1.49917,9.1935 -1.21421,19.39704 3.82285,30.00937 0.85679,0.12965 1.70013,0.29398 2.56977,0.3823 1.79065,0.18184 3.59837,0.27608 5.43694,0.27608 1.83864,0 3.66756,-0.0942 5.45822,-0.27608 0.65453,-0.0665 2.64459,-0.39853 3.29186,-0.48848 -8.70761,-15.20248 -10.0283,-28.81593 -7.34837,-41.73279 0.97593,-0.97352 2.12823,-1.70314 3.46184,-2.31495 3.18476,-1.46102 8.17988,-2.48945 11.89331,-2.82466 7.29659,-0.56278 14.84993,-2.84564 16.45947,-8.60142 0.6086,0.57726 1.44861,0.93448 2.35746,0.93448 h 11.53222 c 1.88255,0 3.39809,-1.51554 3.39809,-3.39809 v -11.55351 c 0,-1.88253 -1.51554,-3.39809 -3.39809,-3.39809 h -11.53222 c -1.88255,0 -3.39809,1.51556 -3.39809,3.39809 v 11.55351 c 0,0.3375 0.0577,0.64841 0.14863,0.95571 -0.85401,3.96259 -5.87346,4.92169 -10.44913,5.26704 1.46057,-1.60593 2.23255,-3.18645 3.03707,-4.90599 1.5878,-3.39368 0.8146,-7.73772 0.46725,-9.74827 -0.82846,-2.66953 -1.38928,-7.03297 -0.76458,-11.02255 h 4.6299 c 1.88255,0 3.39809,-1.51555 3.39809,-3.39809 v -11.55351 c 0,-1.88253 -1.51554,-3.39809 -3.39809,-3.39809 h -11.5535 c -1.88254,0 -3.39809,1.51556 -3.39809,3.39809 v 11.55351 c 0,1.88254 1.51555,3.39809 3.39809,3.39809 h 5.88291 c -1.32166,3.40892 -1.1699,7.36508 -0.44596,11.40483 0.30446,1.76223 -0.0913,5.348 -1.29557,7.9218 -1.12979,2.41485 -2.36867,4.00797 -7.73064,6.83866 -3.28039,0.23556 -7.25968,0.54126 -10.66152,1.86895 5.71655,-18.437 2.72146,-30.54222 0.19118,-37.63385 1.44025,-0.39439 2.50609,-1.70187 2.50609,-3.27065 v -11.55351 c 0,-1.88255 -1.51554,-3.39809 -3.39809,-3.39809 h -11.5535 z"
         id="path4337"
         inkscape:connector-curvature="0" />
      <path
         id="path4339"
         d="m 527.58751,506.28649 c 0.23263,0.78042 0.36101,1.5965 0.36101,2.44237 v 3.18571 c 1.60077,-1.55804 3.75978,-2.54856 6.11656,-2.54856 h 3.1857 c -3.08138,-1.32676 -6.31575,-2.3545 -9.66327,-3.07952 z m -28.84129,1.82647 c -2.90857,1.02956 -5.69466,2.30298 -8.34659,3.80161 h 5.01218 c 1.16949,0 2.28182,0.24798 3.31314,0.67962 v -3.86533 c 0,-0.20704 0.006,-0.41197 0.021,-0.6159 z m 55.70739,13.14636 v 8.49522 c 0,0.85661 -0.16514,1.67436 -0.40349,2.46361 h 8.55891 c -2.2456,-4.00025 -4.98812,-7.68322 -8.15542,-10.95883 z m -79.43034,3.7379 c -5.19303,6.47823 -8.90462,14.184 -10.59776,22.61852 0.9656,-0.37149 1.99903,-0.57343 3.07949,-0.57343 h 8.21916 c 0.71884,-2.67729 1.68478,-5.25235 2.88838,-7.68817 -2.16051,-1.62603 -3.58927,-4.2007 -3.58927,-7.05104 z m 94.31826,34.15079 c -1.57223,1.41552 -3.62998,2.29372 -5.8617,2.29372 h -5.16089 c -1.47762,18.60505 -14.93392,33.7392 -32.70661,37.69754 1.11661,2.81747 2.50758,5.70686 4.22641,8.70761 0.23154,0.40373 0.41273,0.84609 0.53091,1.29553 22.09166,-6.06945 38.47814,-26.12789 38.97188,-49.9944 z M 466.5918,576.20218 c 5.78205,15.79199 18.88916,28.08419 35.17023,32.77032 -1.62001,-4.30238 -2.54796,-8.5374 -2.99461,-12.65789 -8.75755,-4.02312 -15.89286,-10.93854 -20.15488,-19.56024 -0.22129,-0.1681 -0.44379,-0.33708 -0.65842,-0.50972 H 467.505 c -0.30712,0 -0.61322,-0.0107 -0.9132,-0.0425 z"
         style="color:#000000;font-style:normal;font-variant:normal;font-weight:normal;font-stretch:normal;font-size:medium;line-height:normal;font-family:Sans;-inkscape-font-specification:Sans;text-indent:0;text-align:start;text-decoration:none;text-decoration-line:none;letter-spacing:normal;word-spacing:normal;text-transform:none;writing-mode:lr-tb;direction:ltr;text-anchor:start;display:inline;overflow:visible;visibility:visible;fill:#808080;fill-opacity:1;stroke:none;stroke-width:19.11929131;marker:none;enable-background:accumulate"
         inkscape:connector-curvature="0" />
    </g>
  </g>
</svg>
