<?xml version="1.0" encoding="UTF-8" standalone="no"?>
<!-- Created with Inkscape (http://www.inkscape.org/) -->

<svg
   xmlns:dc="http://purl.org/dc/elements/1.1/"
   xmlns:cc="http://creativecommons.org/ns#"
   xmlns:rdf="http://www.w3.org/1999/02/22-rdf-syntax-ns#"
   xmlns:svg="http://www.w3.org/2000/svg"
   xmlns="http://www.w3.org/2000/svg"
   xmlns:sodipodi="http://sodipodi.sourceforge.net/DTD/sodipodi-0.dtd"
   xmlns:inkscape="http://www.inkscape.org/namespaces/inkscape"
   width="27.843424mm"
   height="28.039988mm"
   viewBox="0 0 27.843424 28.039988"
   version="1.1"
   id="svg358"
   inkscape:version="0.92.0 r15299"
   sodipodi:docname="logo_gray_for_dark_bg.svg">
  <defs
     id="defs352" />
  <sodipodi:namedview
     id="base"
     pagecolor="#ffffff"
     bordercolor="#666666"
     borderopacity="1.0"
     inkscape:pageopacity="0.0"
     inkscape:pageshadow="2"
     inkscape:zoom="0.35"
     inkscape:cx="92.617493"
     inkscape:cy="35.846097"
     inkscape:document-units="mm"
     inkscape:current-layer="layer1"
     showgrid="false"
     inkscape:window-width="1920"
     inkscape:window-height="996"
     inkscape:window-x="1912"
     inkscape:window-y="-8"
     inkscape:window-maximized="1" />
  <metadata
     id="metadata355">
    <rdf:RDF>
      <cc:Work
         rdf:about="">
        <dc:format>image/svg+xml</dc:format>
        <dc:type
           rdf:resource="http://purl.org/dc/dcmitype/StillImage" />
        <dc:title></dc:title>
      </cc:Work>
    </rdf:RDF>
  </metadata>
  <g
     inkscape:label="Layer 1"
     inkscape:groupmode="layer"
     id="layer1"
     transform="translate(-81.328288,-130.27762)">
    <g
       transform="matrix(0.26458333,0,0,0.26458333,12.155657,-6.2466961)"
       id="g3396">
      <path
         inkscape:connector-curvature="0"
         id="path4330"
         d="m 304.89331,515.99744 c -1.88254,0 -3.39809,1.51554 -3.39809,3.39809 v 11.5535 c 0,1.88254 1.51555,3.3981 3.39809,3.3981 h 10.02436 c 1.74459,8.83672 0.98864,12.73955 -2.27243,22.10881 -2.44635,-3.01808 -5.77858,-5.05676 -9.62088,-6.56256 -3.30171,-1.29393 -6.13185,-3.1686 -7.22094,-5.47942 0.20729,-0.43999 0.33981,-0.92388 0.33981,-1.44419 v -11.5535 c 0,-1.88254 -1.51555,-3.39809 -3.39809,-3.39809 h -11.5535 c -1.88254,0 -3.39809,1.51555 -3.39809,3.39809 v 11.5535 c 0,1.88254 1.51555,3.39809 3.39809,3.39809 h 11.5535 c 0.93067,0 1.7662,-0.37493 2.37867,-0.97695 0.65508,3.10723 3.13684,5.05233 7.22094,7.09352 3.68767,1.84306 6.58047,6.19865 8.00678,10.42788 -0.71924,2.02574 -1.47498,4.17962 -2.33619,6.68999 -1.6147,4.82304 -3.65064,10.41342 -5.09713,16.54445 -1.62415,-0.93974 -3.38457,-1.59082 -5.22457,-1.93267 -0.78557,-0.51895 -1.36854,-1.00252 -1.78399,-1.59285 -1.29868,-1.84521 -0.3984,-5.40302 -0.80705,-7.9218 h 4.50247 c 1.88247,0 3.39809,-1.51555 3.39809,-3.39809 v -11.5535 c 0,-1.88254 -1.51562,-3.39809 -3.39809,-3.39809 h -11.5323 c -1.88254,0 -3.39809,1.51555 -3.39809,3.39809 v 11.5535 c 0,1.88254 1.51555,3.39809 3.39809,3.39809 h 6.20151 c -0.10853,2.64774 -2.07698,6.72342 -0.38228,9.13237 0.0136,0.0197 0.0286,0.0439 0.0421,0.0637 -0.11444,5.4e-4 -0.22502,-0.002 -0.3398,0 -6.89839,0.1378 -10.79282,-0.93405 -14.78169,-3.41933 0.60201,-0.6125 0.97695,-1.46924 0.97695,-2.39989 v -11.53227 c 0,-1.88255 -1.51555,-3.39809 -3.39809,-3.39809 h -11.55351 c -1.88253,0 -3.39809,1.51554 -3.39809,3.39809 v 11.53227 c 0,1.88253 1.51556,3.39808 3.39809,3.39808 h 11.55351 c 0.24248,0 0.49422,-0.0159 0.72209,-0.0637 3.62406,3.49132 8.7231,6.1302 15.88607,7.07227 4.5022,0.59213 7.16236,1.51925 8.87751,2.82466 -1.49916,9.19351 -1.2142,19.39705 3.82285,30.00938 0.85679,0.12964 1.70013,0.29397 2.56977,0.38229 1.79066,0.18185 3.59837,0.27609 5.43694,0.27609 1.83865,0 3.66756,-0.0942 5.45822,-0.27609 0.65454,-0.0665 2.6446,-0.39852 3.29186,-0.48848 -8.7076,-15.20247 -10.0283,-28.81592 -7.34836,-41.73279 0.97592,-0.97351 2.12822,-1.70313 3.46183,-2.31494 3.18476,-1.46102 8.17989,-2.48945 11.89331,-2.82466 7.29659,-0.56278 14.84994,-2.84564 16.45947,-8.60142 0.6086,0.57726 1.44861,0.93448 2.35746,0.93448 h 11.53223 c 1.88255,0 3.39809,-1.51555 3.39809,-3.3981 v -11.5535 c 0,-1.88254 -1.51554,-3.39809 -3.39809,-3.39809 h -11.53223 c -1.88255,0 -3.39809,1.51555 -3.39809,3.39809 v 11.5535 c 0,0.33751 0.0577,0.64842 0.14863,0.95572 -0.854,3.96259 -5.87346,4.92168 -10.44913,5.26704 1.46058,-1.60593 2.23256,-3.18646 3.03708,-4.906 1.5878,-3.39367 0.81459,-7.73772 0.46724,-9.74826 -0.82846,-2.66953 -1.38928,-7.03298 -0.76458,-11.02255 h 4.6299 c 1.88255,0 3.39809,-1.51556 3.39809,-3.39809 V 528.8677 c 0,-1.88254 -1.51554,-3.39809 -3.39809,-3.39809 h -11.5535 c -1.88254,0 -3.39809,1.51555 -3.39809,3.39809 v 11.55351 c 0,1.88253 1.51555,3.39809 3.39809,3.39809 h 5.88291 c -1.32165,3.40891 -1.1699,7.36507 -0.44596,11.40483 0.30447,1.76223 -0.0913,5.348 -1.29556,7.9218 -1.1298,2.41485 -2.36868,4.00797 -7.73065,6.83866 -3.28038,0.23556 -7.25968,0.54126 -10.66151,1.86895 5.71654,-18.43701 2.72146,-30.54222 0.19117,-37.63385 1.44025,-0.39439 2.5061,-1.70188 2.5061,-3.27066 v -11.5535 c 0,-1.88255 -1.51555,-3.39809 -3.3981,-3.39809 h -11.5535 z"
         style="color:#000000;font-style:normal;font-variant:normal;font-weight:normal;font-stretch:normal;font-size:medium;line-height:normal;font-family:Sans;-inkscape-font-specification:Sans;text-indent:0;text-align:start;text-decoration:none;text-decoration-line:none;letter-spacing:normal;word-spacing:normal;text-transform:none;writing-mode:lr-tb;direction:ltr;text-anchor:start;display:inline;overflow:visible;visibility:visible;fill:#000000;fill-opacity:1;stroke:none;stroke-width:4.26666689;marker:none;enable-background:accumulate" />
      <path
         inkscape:connector-curvature="0"
         style="color:#000000;font-style:normal;font-variant:normal;font-weight:normal;font-stretch:normal;font-size:medium;line-height:normal;font-family:Sans;-inkscape-font-specification:Sans;text-indent:0;text-align:start;text-decoration:none;text-decoration-line:none;letter-spacing:normal;word-spacing:normal;text-transform:none;writing-mode:lr-tb;direction:ltr;text-anchor:start;display:inline;overflow:visible;visibility:visible;fill:#808080;fill-opacity:1;stroke:none;stroke-width:19.11929131;marker:none;enable-background:accumulate"
         d="m 324.92084,516.95315 c 0.23263,0.78043 0.36102,1.5965 0.36102,2.44238 v 3.18571 c 1.60076,-1.55804 3.75977,-2.54857 6.11655,-2.54857 h 3.18571 c -3.08139,-1.32675 -6.31576,-2.35449 -9.66328,-3.07952 z m -28.84129,1.82648 c -2.90856,1.02955 -5.69465,2.30297 -8.34659,3.80161 h 5.01218 c 1.16949,0 2.28183,0.24798 3.31314,0.67961 v -3.86532 c 0,-0.20704 0.006,-0.41198 0.021,-0.6159 z m 55.70739,13.14635 v 8.49523 c 0,0.8566 -0.16514,1.67435 -0.40348,2.46361 h 8.55891 c -2.2456,-4.00025 -4.98813,-7.68322 -8.15543,-10.95884 z m -79.43033,3.7379 c -5.19304,6.47823 -8.90463,14.184 -10.59776,22.61853 0.9656,-0.3715 1.99903,-0.57343 3.07949,-0.57343 h 8.21915 c 0.71884,-2.67729 1.68478,-5.25235 2.88839,-7.68817 -2.16051,-1.62604 -3.58927,-4.2007 -3.58927,-7.05104 z m 94.31825,34.1508 c -1.57223,1.41552 -3.62997,2.29371 -5.8617,2.29371 h -5.16088 c -1.47762,18.60506 -14.93392,33.7392 -32.70662,37.69755 1.11661,2.81746 2.50759,5.70686 4.22641,8.70761 0.23155,0.40373 0.41273,0.84609 0.53092,1.29553 22.09166,-6.06945 38.47813,-26.1279 38.97187,-49.9944 z m -102.74973,17.05416 c 5.78205,15.79199 18.88916,28.08419 35.17023,32.77033 -1.62001,-4.30238 -2.54796,-8.5374 -2.9946,-12.65789 -8.75756,-4.02313 -15.89287,-10.93854 -20.15488,-19.56025 -0.22129,-0.16809 -0.4438,-0.33707 -0.65842,-0.50971 h -10.44912 c -0.30713,0 -0.61323,-0.0107 -0.91321,-0.0425 z"
         id="path4332" />
    </g>
  </g>
</svg>
