<?xml version="1.0" encoding="UTF-8" standalone="no"?>
<!-- Created with Inkscape (http://www.inkscape.org/) -->

<svg
   xmlns:dc="http://purl.org/dc/elements/1.1/"
   xmlns:cc="http://creativecommons.org/ns#"
   xmlns:rdf="http://www.w3.org/1999/02/22-rdf-syntax-ns#"
   xmlns:svg="http://www.w3.org/2000/svg"
   xmlns="http://www.w3.org/2000/svg"
   xmlns:sodipodi="http://sodipodi.sourceforge.net/DTD/sodipodi-0.dtd"
   xmlns:inkscape="http://www.inkscape.org/namespaces/inkscape"
   width="81.673546mm"
   height="28.039989mm"
   viewBox="0 0 81.673546 28.039989"
   version="1.1"
   id="svg169"
   inkscape:version="0.92.0 r15299"
   sodipodi:docname="name_plus_logo_black_for_light_bg.svg">
  <defs
     id="defs163" />
  <sodipodi:namedview
     id="base"
     pagecolor="#ffffff"
     bordercolor="#666666"
     borderopacity="1.0"
     inkscape:pageopacity="0.0"
     inkscape:pageshadow="2"
     inkscape:zoom="0.35"
     inkscape:cx="327.24066"
     inkscape:cy="212.37374"
     inkscape:document-units="mm"
     inkscape:current-layer="layer1"
     showgrid="false"
     inkscape:window-width="1920"
     inkscape:window-height="1058"
     inkscape:window-x="-8"
     inkscape:window-y="-8"
     inkscape:window-maximized="1" />
  <metadata
     id="metadata166">
    <rdf:RDF>
      <cc:Work
         rdf:about="">
        <dc:format>image/svg+xml</dc:format>
        <dc:type
           rdf:resource="http://purl.org/dc/dcmitype/StillImage" />
        <dc:title></dc:title>
      </cc:Work>
    </rdf:RDF>
  </metadata>
  <g
     inkscape:label="Layer 1"
     inkscape:groupmode="layer"
     id="layer1"
     transform="translate(-21.151323,-179.41453)">
    <g
       transform="matrix(0.1685771,0,0,0.1685771,288.22927,259.60169)"
       id="g4238"
       style="fill:#000000">
      <path
         style="color:#000000;font-style:normal;font-variant:normal;font-weight:normal;font-stretch:normal;font-size:medium;line-height:normal;font-family:Sans;-inkscape-font-specification:Sans;text-indent:0;text-align:start;text-decoration:none;text-decoration-line:none;letter-spacing:normal;word-spacing:normal;text-transform:none;writing-mode:lr-tb;direction:ltr;text-anchor:start;display:inline;overflow:visible;visibility:visible;fill:#000000;fill-opacity:1;stroke:none;stroke-width:19.11929131;marker:none;enable-background:accumulate"
         d="m -1484.6734,-474.17046 c 0.3651,1.22488 0.5666,2.50572 0.5666,3.83333 v 5 c 2.5125,-2.44534 5.901,-4 9.6,-4 h 5 c -4.8362,-2.08235 -9.9126,-3.6954 -15.1666,-4.83333 z m -45.2667,2.86666 c -4.565,1.61591 -8.9378,3.61455 -13.1,5.96667 h 7.8667 c 1.8355,0 3.5813,0.3892 5.2,1.06667 v -6.06667 c 0,-0.32495 0.011,-0.6466 0.033,-0.96667 z m 87.4333,20.63334 v 13.33333 c 0,1.34446 -0.2592,2.62792 -0.6333,3.86667 h 13.4333 c -3.5245,-6.27844 -7.8289,-12.05889 -12.8,-17.2 z m -124.6666,5.86666 c -8.1505,10.16764 -13.9759,22.26192 -16.6333,35.5 1.5155,-0.58307 3.1375,-0.9 4.8333,-0.9 h 12.9 c 1.1282,-4.20203 2.6443,-8.24361 4.5333,-12.06666 -3.3909,-2.55209 -5.6333,-6.59305 -5.6333,-11.06667 z m -13.2333,80.36667 c 9.075,24.78567 29.6467,44.0784 55.2,51.43333 -2.5426,-6.75262 -3.9991,-13.39953 -4.7001,-19.86666 -13.745,-6.31435 -24.944,-17.16814 -31.6333,-30.7 -0.3473,-0.26383 -0.6964,-0.52905 -1.0333,-0.8 h -16.4 c -0.4821,0 -0.9625,-0.0162 -1.4333,-0.0667 z"
         id="path4240"
         inkscape:connector-curvature="0"
         sodipodi:nodetypes="cscsccccscsccscccccsccsccccccsc" />
      <path
         style="color:#000000;font-style:normal;font-variant:normal;font-weight:normal;font-stretch:normal;font-size:medium;line-height:normal;font-family:Sans;-inkscape-font-specification:Sans;text-indent:0;text-align:start;text-decoration:none;text-decoration-line:none;letter-spacing:normal;word-spacing:normal;text-transform:none;writing-mode:lr-tb;direction:ltr;text-anchor:start;display:inline;overflow:visible;visibility:visible;fill:#000000;fill-opacity:1;stroke:none;stroke-width:4.26666689;marker:none;enable-background:accumulate"
         d="m -1516.1068,-475.67046 c -2.9546,0 -5.3333,2.37866 -5.3333,5.33333 v 18.13333 c 0,2.95467 2.3787,5.33334 5.3333,5.33334 h 15.7334 c 2.7381,13.86933 1.5516,19.99484 -3.5667,34.7 -3.8395,-4.73691 -9.0695,-7.93663 -15.1,-10.3 -5.1821,-2.03085 -9.624,-4.97315 -11.3333,-8.6 0.3253,-0.69057 0.5333,-1.45004 0.5333,-2.26667 v -18.13333 c 0,-2.95467 -2.3787,-5.33334 -5.3333,-5.33334 h -18.1334 c -2.9546,0 -5.3333,2.37867 -5.3333,5.33334 v 18.13333 c 0,2.95467 2.3787,5.33333 5.3333,5.33333 h 18.1334 c 1.4607,0 2.772,-0.58846 3.7333,-1.53333 1.0282,4.87683 4.9233,7.92967 11.3333,11.13333 5.7879,2.89272 10.3281,9.72886 12.5667,16.36667 -1.1288,3.17941 -2.3149,6.55995 -3.6666,10.5 -2.5343,7.56981 -5.7297,16.34396 -8,25.96667 -2.5491,-1.47494 -5.3121,-2.49681 -8.2,-3.03334 -1.233,-0.8145 -2.148,-1.57347 -2.8,-2.5 -2.0383,-2.89606 -0.6253,-8.48009 -1.2667,-12.43333 h 7.0667 c 2.9546,0 5.3333,-2.37867 5.3333,-5.33333 v -18.13334 c 0,-2.95466 -2.3787,-5.33333 -5.3333,-5.33333 h -18.1001 c -2.9546,0 -5.3333,2.37867 -5.3333,5.33333 v 18.13334 c 0,2.95466 2.3787,5.33333 5.3333,5.33333 h 9.7334 c -0.1704,4.15564 -3.2599,10.55246 -0.6,14.33333 0.021,0.0309 0.045,0.0689 0.066,0.0999 -0.1796,8.4e-4 -0.3532,-0.003 -0.5333,0 -10.8271,0.21628 -16.9395,-1.46601 -23.2,-5.36667 0.9448,-0.96133 1.5333,-2.30598 1.5333,-3.76666 v -18.1 c 0,-2.95467 -2.3787,-5.33334 -5.3333,-5.33334 h -18.1334 c -2.9546,0 -5.3333,2.37867 -5.3333,5.33334 v 18.1 c 0,2.95466 2.3787,5.33333 5.3333,5.33333 h 18.1334 c 0.3805,0 0.7756,-0.025 1.1333,-0.1 5.688,5.47967 13.691,9.62142 24.9333,11.1 7.0663,0.92935 11.2414,2.38446 13.9334,4.43334 -2.353,14.42928 -1.9057,30.44384 6,47.1 1.3447,0.20347 2.6683,0.46138 4.0333,0.6 2.8104,0.2854 5.6476,0.43333 8.5334,0.43333 2.8856,0 5.7562,-0.14793 8.5666,-0.43333 1.0273,-0.10432 4.1507,-0.62549 5.1667,-0.76667 -13.6668,-23.86043 -15.7396,-45.22686 -11.5333,-65.5 1.5316,-1.52794 3.3401,-2.6731 5.4333,-3.63333 4.9985,-2.29309 12.8384,-3.90721 18.6666,-4.43334 11.4521,-0.88328 23.3071,-4.46626 25.8334,-13.5 0.9551,0.90602 2.2735,1.46667 3.7,1.46667 h 18.1 c 2.9547,0 5.3333,-2.37867 5.3333,-5.33333 v -18.13334 c 0,-2.95466 -2.3786,-5.33333 -5.3333,-5.33333 h -18.1 c -2.9547,0 -5.3334,2.37867 -5.3334,5.33333 v 18.13334 c 0,0.52971 0.091,1.01769 0.2334,1.5 -1.3405,6.21931 -9.2185,7.72461 -16.4,8.26666 2.2923,-2.52053 3.5039,-5.00117 4.7666,-7.7 2.4922,-5.32641 1.2785,-12.14442 0.7334,-15.3 -1.3003,-4.18985 -2.1804,-11.03831 -1.2,-17.3 h 7.2666 c 2.9547,0 5.3334,-2.37866 5.3334,-5.33333 v -18.13333 c 0,-2.95467 -2.3787,-5.33334 -5.3334,-5.33334 h -18.1333 c -2.9547,0 -5.3333,2.37867 -5.3333,5.33334 v 18.13333 c 0,2.95467 2.3786,5.33333 5.3333,5.33333 h 9.2334 c -2.0745,5.35033 -1.8363,11.55957 -0.7001,17.9 0.4779,2.76583 -0.1432,8.39373 -2.0333,12.43334 -1.7733,3.79012 -3.7177,6.29053 -12.1333,10.73333 -5.1487,0.36973 -11.3942,0.84951 -16.7333,2.93333 8.972,-28.93704 4.2712,-47.9363 0.2999,-59.06666 2.2605,-0.61901 3.9334,-2.67112 3.9334,-5.13334 v -18.13333 c 0,-2.95467 -2.3787,-5.33333 -5.3334,-5.33333 h -18.1333 z"
         id="path4242"
         inkscape:connector-curvature="0" />
      <text
         id="text4244"
         y="-320.66043"
         x="-1492.1542"
         style="font-style:normal;font-variant:normal;font-weight:normal;font-stretch:normal;font-size:72.24536896px;line-height:125%;font-family:'Arial Rounded MT Bold';-inkscape-font-specification:'Arial Rounded MT Bold,';text-align:start;letter-spacing:0;word-spacing:0;writing-mode:lr-tb;text-anchor:start;fill:#000000;stroke:none;stroke-width:1.06666672"
         xml:space="preserve"
         transform="scale(0.99591644,1.0041003)"><tspan
           y="-320.66043"
           x="-1492.1542"
           id="tspan4246"
           sodipodi:role="line"
           style="stroke-width:1.06666672"><tspan
   style="fill:#000000;stroke:none;stroke-width:1.06666672"
   id="tspan4248">W</tspan>in<tspan
   style="fill:#000000;stroke:none;stroke-width:1.06666672"
   id="tspan4250">D</tspan>ir<tspan
   style="fill:#000000;stroke:none;stroke-width:1.06666672"
   id="tspan4252">S</tspan>tat</tspan></text>
    </g>
  </g>
</svg>
