<svg xmlns:svg="http://www.w3.org/2000/svg" xmlns="http://www.w3.org/2000/svg" width="68.3" height="68.3" version="1.1"><style>.s0{-inkscape-font-specification:Sans;direction:ltr;fill:#000;font-family:Sans;font-size:medium;letter-spacing:normal;line-height:normal;text-align:start;text-anchor:start;text-decoration-line:none;text-decoration:none;text-indent:0;text-transform:none;word-spacing:normal;writing-mode:lr-tb;}</style><title>Main logo, color</title><defs><radialGradient gradientUnits="userSpaceOnUse" gradientTransform="matrix(1.4841341,-0.00981819,0.00661529,0.99997812,-147.87792,2.947719)" cx="299.2" cy="456.3" fx="299.2" fy="456.3" r="78.4"/><linearGradient><stop offset="0" style="stop-color:#000000;stop-opacity:0"/><stop offset="1" style="stop-color:#000000;stop-opacity:0.1"/></linearGradient><radialGradient r="78.4" fy="456.3" fx="299.2" cy="456.3" cx="299.2" gradientTransform="matrix(0.32317785,-0.00213796,0.00144051,0.21775039,1965.1476,899.67046)" gradientUnits="userSpaceOnUse"/></defs><g transform="matrix(1.6803977,0,0,1.6803977,-3445.4506,-1646.1433)"><circle cx="2070.8" cy="999.9" r="17.1" fill="#aad400"/><path d="m2068.3 984.8c-0.5 0-1 0.4-1 1v3.3c0 0.5 0.4 1 1 1h2.9c0.5 2.5 0.3 3.7-0.7 6.4-0.7-0.9-1.7-1.5-2.8-1.9-0.9-0.4-1.8-0.9-2.1-1.6 0.1-0.1 0.1-0.3 0.1-0.4v-3.3c0-0.5-0.4-1-1-1h-3.3c-0.5 0-1 0.4-1 1v3.3c0 0.5 0.4 1 1 1h3.3c0.3 0 0.5-0.1 0.7-0.3 0.2 0.9 0.9 1.5 2.1 2 1.1 0.5 1.9 1.8 2.3 3-0.2 0.6-0.4 1.2-0.7 1.9-0.5 1.4-1 3-1.5 4.8-0.5-0.3-1-0.5-1.5-0.6-0.2-0.1-0.4-0.3-0.5-0.5-0.4-0.5-0.1-1.6-0.2-2.3h1.3c0.5 0 1-0.4 1-1v-3.3c0-0.5-0.4-1-1-1h-3.3c-0.5 0-1 0.4-1 1v3.3c0 0.5 0.4 1 1 1h1.8c0 0.8-0.6 1.9-0.1 2.6 0 0 0 0 0 0 0 0-0.1 0-0.1 0-2 0-3.1-0.3-4.2-1 0.2-0.2 0.3-0.4 0.3-0.7v-3.3c0-0.5-0.4-1-1-1h-3.3c-0.5 0-1 0.4-1 1v3.3c0 0.5 0.4 1 1 1h3.3c0.1 0 0.1 0 0.2 0 1 1 2.5 1.8 4.6 2 1.3 0.2 2.1 0.4 2.6 0.8-0.4 2.6-0.3 5.6 1.1 8.6 0.2 0 0.5 0.1 0.7 0.1 0.5 0.1 1 0.1 1.6 0.1 0.5 0 1.1 0 1.6-0.1 0.2 0 0.8-0.1 0.9-0.1-2.5-4.4-2.9-8.3-2.1-12 0.3-0.3 0.6-0.5 1-0.7 0.9-0.4 2.4-0.7 3.4-0.8 2.1-0.2 4.3-0.8 4.7-2.5 0.2 0.2 0.4 0.3 0.7 0.3h3.3c0.5 0 1-0.4 1-1v-3.3c0-0.5-0.4-1-1-1h-3.3c-0.5 0-1 0.4-1 1v3.3c0 0.1 0 0.2 0 0.3-0.2 1.1-1.7 1.4-3 1.5 0.4-0.5 0.6-0.9 0.9-1.4 0.5-1 0.2-2.2 0.1-2.8-0.2-0.8-0.4-2-0.2-3.2h1.3c0.5 0 1-0.4 1-1v-3.3c0-0.5-0.4-1-1-1h-3.3c-0.5 0-1 0.4-1 1v3.3c0 0.5 0.4 1 1 1h1.7c-0.4 1-0.3 2.1-0.1 3.3 0.1 0.5 0 1.5-0.4 2.3-0.3 0.7-0.7 1.2-2.2 2-0.9 0.1-2.1 0.2-3.1 0.5 1.6-5.3 0.8-8.8 0.1-10.8 0.4-0.1 0.7-0.5 0.7-0.9v-3.3c0-0.5-0.4-1-1-1zM2074.1 985c0.1 0.2 0.1 0.5 0.1 0.7v0.9c0.5-0.4 1.1-0.7 1.8-0.7h0.9c-0.9-0.4-1.8-0.7-2.8-0.9zm-8.3 0.5c-0.8 0.3-1.6 0.7-2.4 1.1h1.4c0.3 0 0.7 0.1 1 0.2v-1.1c0-0.1 0-0.1 0-0.2zm16 3.8v2.4c0 0.2 0 0.5-0.1 0.7h2.5c-0.6-1.1-1.4-2.2-2.3-3.1zm-22.8 1.1c-1.5 1.9-2.6 4.1-3 6.5 0.3-0.1 0.6-0.2 0.9-0.2h2.4c0.2-0.8 0.5-1.5 0.8-2.2-0.6-0.5-1-1.2-1-2zm27.1 9.8c-0.5 0.4-1 0.7-1.7 0.7h-1.5c-0.4 5.3-4.3 9.7-9.4 10.8 0.3 0.8 0.7 1.6 1.2 2.5 0.1 0.1 0.1 0.2 0.2 0.4 6.3-1.7 11.1-7.5 11.2-14.4zm-29.5 4.9c1.7 4.5 5.4 8.1 10.1 9.4-0.5-1.2-0.7-2.5-0.9-3.6-2.5-1.2-4.6-3.1-5.8-5.6-0.1 0-0.1-0.1-0.2-0.1h-3c-0.1 0-0.2 0-0.3 0z" class="s0"/><circle cx="2070.8" cy="999.9" r="17.1" fill="url(#radialGradient3453)"/></g></svg>