<?xml version="1.0" encoding="UTF-8" standalone="no"?>
<!-- Created with Inkscape (http://www.inkscape.org/) -->

<svg
   xmlns:dc="http://purl.org/dc/elements/1.1/"
   xmlns:cc="http://creativecommons.org/ns#"
   xmlns:rdf="http://www.w3.org/1999/02/22-rdf-syntax-ns#"
   xmlns:svg="http://www.w3.org/2000/svg"
   xmlns="http://www.w3.org/2000/svg"
   xmlns:xlink="http://www.w3.org/1999/xlink"
   xmlns:sodipodi="http://sodipodi.sourceforge.net/DTD/sodipodi-0.dtd"
   xmlns:inkscape="http://www.inkscape.org/namespaces/inkscape"
   width="64px"
   height="64px"
   id="svg3413"
   version="1.1"
   inkscape:version="0.48.0 r9654"
   sodipodi:docname="logo_color.svg">
  <title
     id="title3432">Main logo, gray</title>
  <defs
     id="defs3415">
    <radialGradient
       inkscape:collect="always"
       xlink:href="#linearGradient4494"
       id="radialGradient4295"
       gradientUnits="userSpaceOnUse"
       gradientTransform="matrix(1.4841341,-0.00981819,0.00661529,0.99997812,-147.87792,2.947719)"
       cx="299.21332"
       cy="456.29883"
       fx="299.21332"
       fy="456.29883"
       r="78.375488" />
    <linearGradient
       id="linearGradient4494">
      <stop
         style="stop-color:#000000;stop-opacity:0;"
         offset="0"
         id="stop4496" />
      <stop
         style="stop-color:#000000;stop-opacity:0.1254902;"
         offset="1"
         id="stop4498" />
    </linearGradient>
    <radialGradient
       r="78.375488"
       fy="456.29883"
       fx="299.21332"
       cy="456.29883"
       cx="299.21332"
       gradientTransform="matrix(1.4841341,-0.00981819,0.00661529,0.99997812,-147.87792,2.947719)"
       gradientUnits="userSpaceOnUse"
       id="radialGradient3453"
       xlink:href="#linearGradient4494"
       inkscape:collect="always" />
  </defs>
  <sodipodi:namedview
     id="base"
     pagecolor="#ffffff"
     bordercolor="#666666"
     borderopacity="1.0"
     inkscape:pageopacity="0.0"
     inkscape:pageshadow="2"
     inkscape:zoom="5.5"
     inkscape:cx="32"
     inkscape:cy="32"
     inkscape:current-layer="layer1"
     showgrid="true"
     inkscape:document-units="px"
     inkscape:grid-bbox="true"
     inkscape:window-width="1186"
     inkscape:window-height="822"
     inkscape:window-x="1305"
     inkscape:window-y="25"
     inkscape:window-maximized="0" />
  <metadata
     id="metadata3418">
    <rdf:RDF>
      <cc:Work
         rdf:about="">
        <dc:format>image/svg+xml</dc:format>
        <dc:type
           rdf:resource="http://purl.org/dc/dcmitype/StillImage" />
        <dc:title>Main logo, gray</dc:title>
      </cc:Work>
    </rdf:RDF>
  </metadata>
  <g
     id="layer1"
     inkscape:label="Layer 1"
     inkscape:groupmode="layer">
    <g
       transform="matrix(0.62404472,0,0,0.62404472,-151.37311,-300.46636)"
       id="g3396">
      <path
         inkscape:connector-curvature="0"
         id="path4330"
         d="m 285.83748,483.7476 c -1.76488,0 -3.18571,1.42082 -3.18571,3.18571 l 0,10.83141 c 0,1.76488 1.42083,3.18571 3.18571,3.18571 l 9.39784,0 c 1.63555,8.28443 0.92685,11.94333 -2.13041,20.72701 -2.29345,-2.82945 -5.41742,-4.74071 -9.01957,-6.1524 -3.09536,-1.21306 -5.74861,-2.97056 -6.76963,-5.13695 0.19433,-0.41249 0.31857,-0.86614 0.31857,-1.35393 l 0,-10.83141 c 0,-1.76488 -1.42083,-3.18571 -3.18571,-3.18571 l -10.83141,0 c -1.76488,0 -3.18571,1.42083 -3.18571,3.18571 l 0,10.83141 c 0,1.76488 1.42083,3.18571 3.18571,3.18571 l 10.83141,0 c 0.8725,0 1.65581,-0.3515 2.23,-0.91589 0.61414,2.91303 2.94079,4.73656 6.76963,6.65017 3.45719,1.72787 6.16919,5.81124 7.50636,9.77614 -0.67429,1.89913 -1.38279,3.91839 -2.19018,6.27187 -1.51378,4.5216 -3.42247,9.76258 -4.77856,15.51042 -1.52264,-0.88101 -3.17303,-1.4914 -4.89803,-1.81188 -0.73647,-0.48652 -1.28301,-0.93986 -1.67249,-1.4933 -1.21752,-1.72988 -0.3735,-5.06533 -0.75661,-7.42668 l 4.22106,0 c 1.76482,0 3.18571,-1.42083 3.18571,-3.18571 l 0,-10.83141 c 0,-1.76488 -1.42089,-3.18571 -3.18571,-3.18571 l -10.81153,0 c -1.76488,0 -3.18571,1.42083 -3.18571,3.18571 l 0,10.83141 c 0,1.76488 1.42083,3.18571 3.18571,3.18571 l 5.81392,0 c -0.10175,2.48225 -1.94717,6.3032 -0.35839,8.56159 0.0127,0.0185 0.0268,0.0412 0.0395,0.0597 -0.10729,5.1e-4 -0.21096,-0.002 -0.31857,0 -6.46724,0.12919 -10.11826,-0.87567 -13.85783,-3.20562 0.56438,-0.57422 0.91589,-1.37741 0.91589,-2.2499 l 0,-10.8115 c 0,-1.76489 -1.42083,-3.18571 -3.18571,-3.18571 l -10.83141,0 c -1.76488,0 -3.18571,1.42082 -3.18571,3.18571 l 0,10.8115 c 0,1.76488 1.42083,3.1857 3.18571,3.1857 l 10.83141,0 c 0.22733,0 0.46333,-0.0149 0.67696,-0.0597 3.39756,3.27312 8.17791,5.74707 14.89319,6.63026 4.22081,0.55512 6.71471,1.42429 8.32267,2.64812 -1.40547,8.61891 -1.13832,18.18473 3.58392,28.13379 0.80324,0.12154 1.59387,0.2756 2.40916,0.3584 1.67874,0.17048 3.37347,0.25883 5.09713,0.25883 1.72373,0 3.43834,-0.0883 5.11708,-0.25883 0.61363,-0.0623 2.47931,-0.37362 3.08612,-0.45795 -8.16338,-14.25232 -9.40153,-27.01493 -6.88909,-39.12449 0.91493,-0.91267 1.99521,-1.59669 3.24547,-2.17026 2.98571,-1.36971 7.66864,-2.33386 11.14998,-2.64812 6.84055,-0.52761 13.92181,-2.66779 15.43075,-8.06383 0.57056,0.54118 1.35807,0.87607 2.21012,0.87607 l 10.81146,0 c 1.76489,0 3.18571,-1.42082 3.18571,-3.18571 l 0,-10.83141 c 0,-1.76488 -1.42082,-3.18571 -3.18571,-3.18571 l -10.81146,0 c -1.76489,0 -3.18571,1.42083 -3.18571,3.18571 l 0,10.83141 c 0,0.31641 0.0541,0.60789 0.13934,0.89598 -0.80063,3.71493 -5.50637,4.61408 -9.79606,4.93785 1.36929,-1.50556 2.09302,-2.9873 2.84726,-4.59937 1.48856,-3.18157 0.76368,-7.25411 0.43804,-9.139 -0.77668,-2.50268 -1.30245,-6.59341 -0.71679,-10.33364 l 4.34053,0 c 1.76489,0 3.18571,-1.42083 3.18571,-3.18571 l 0,-10.83141 c 0,-1.76488 -1.42082,-3.18571 -3.18571,-3.18571 l -10.83141,0 c -1.76488,0 -3.18571,1.42083 -3.18571,3.18571 l 0,10.83141 c 0,1.76488 1.42083,3.18571 3.18571,3.18571 l 5.51523,0 c -1.23905,3.19586 -1.09678,6.90476 -0.41809,10.69203 0.28544,1.65209 -0.0856,5.01375 -1.21459,7.42669 -1.05918,2.26392 -2.22063,3.75747 -7.24748,6.41124 -3.07536,0.22084 -6.80595,0.50743 -9.99517,1.75214 5.35926,-17.28469 2.55137,-28.63333 0.17923,-35.28173 1.35023,-0.36974 2.34946,-1.59551 2.34946,-3.06624 l 0,-10.83141 c 0,-1.76489 -1.42082,-3.18571 -3.18571,-3.18571 l -10.83141,0 z"
         style="font-size:medium;font-style:normal;font-variant:normal;font-weight:normal;font-stretch:normal;text-indent:0;text-align:start;text-decoration:none;line-height:normal;letter-spacing:normal;word-spacing:normal;text-transform:none;direction:ltr;block-progression:tb;writing-mode:lr-tb;text-anchor:start;color:#000000;fill:#000000;fill-opacity:1;stroke:none;stroke-width:4;marker:none;visibility:visible;display:inline;overflow:visible;enable-background:accumulate;font-family:Sans;-inkscape-font-specification:Sans" />
      <path
         inkscape:connector-curvature="0"
         style="font-size:medium;font-style:normal;font-variant:normal;font-weight:normal;font-stretch:normal;text-indent:0;text-align:start;text-decoration:none;line-height:normal;letter-spacing:normal;word-spacing:normal;text-transform:none;direction:ltr;block-progression:tb;writing-mode:lr-tb;text-anchor:start;color:#000000;fill:#808080;fill-opacity:1;stroke:none;stroke-width:17.92433548;marker:none;visibility:visible;display:inline;overflow:visible;enable-background:accumulate;font-family:Sans;-inkscape-font-specification:Sans"
         d="m 304.61329,484.64358 c 0.21809,0.73165 0.33845,1.49672 0.33845,2.28973 l 0,2.9866 c 1.50072,-1.46066 3.52479,-2.38928 5.73427,-2.38928 l 2.9866,0 c -2.8888,-1.24383 -5.92102,-2.20734 -9.05932,-2.88705 z m -27.03871,1.71232 c -2.72678,0.96521 -5.33874,2.15904 -7.82493,3.56401 l 4.69892,0 c 1.0964,0 2.13921,0.23248 3.10607,0.63714 l 0,-3.62374 c 0,-0.1941 0.006,-0.38623 0.0197,-0.57741 z m 52.22568,12.32471 0,7.96427 c 0,0.80307 -0.15482,1.56971 -0.37827,2.30964 l 8.02398,0 c -2.10525,-3.75024 -4.67637,-7.20302 -7.64571,-10.27391 z m -74.46594,3.50428 c -4.86847,6.07334 -8.34809,13.2975 -9.9354,21.20487 0.90525,-0.34828 1.87409,-0.53759 2.88702,-0.53759 l 7.70546,0 c 0.67391,-2.50996 1.57948,-4.92408 2.70786,-7.20766 -2.02548,-1.52441 -3.36494,-3.93816 -3.36494,-6.61035 l 0,-6.84927 z m 88.42336,32.01637 c -1.47396,1.32705 -3.4031,2.15036 -5.49534,2.15036 l -4.83833,0 c -1.38527,17.44224 -14.00055,31.6305 -30.66245,35.34145 1.04682,2.64137 2.35086,5.35018 3.96226,8.16338 0.21707,0.3785 0.38693,0.79321 0.49773,1.21456 20.71093,-5.69011 36.07325,-24.4949 36.53613,-46.86975 z m -96.32787,15.98828 c 5.42067,14.80499 17.70859,26.32893 32.97209,30.72218 -1.51876,-4.03348 -2.38871,-8.00381 -2.80744,-11.86677 -8.21021,-3.77168 -14.89956,-10.25488 -18.8952,-18.33773 -0.20746,-0.15759 -0.41606,-0.31601 -0.61727,-0.47786 l -9.79605,0 c -0.28793,0 -0.5749,-0.01 -0.85613,-0.0398 z"
         id="path4332" />
    </g>
  </g>
</svg>
